<svg xmlns="http://www.w3.org/2000/svg" width="43.04" height="51.481"><defs><style>.a{fill:#446fc1}</style></defs><path class="a" d="M40.214 51.481H2.826A2.825 2.825 0 010 48.655V2.826A2.825 2.825 0 012.826 0h37.388a2.826 2.826 0 012.826 2.826v45.829a2.826 2.826 0 01-2.826 2.826zM5.653 45.828h31.735V5.653H5.653z"/><path class="a" d="M11.608 16.985a1.885 1.885 0 01-1.884-1.884v-3.073a1.884 1.884 0 113.768 0v3.073a1.885 1.885 0 01-1.884 1.884zm9.775 0a1.884 1.884 0 01-1.884-1.884v-3.073a1.884 1.884 0 113.768 0v3.073a1.885 1.885 0 01-1.884 1.884zm9.774 0a1.885 1.885 0 01-1.884-1.884v-3.073a1.884 1.884 0 113.768 0v3.073a1.885 1.885 0 01-1.884 1.884zM11.608 27.987a1.885 1.885 0 01-1.884-1.884v-3.075a1.884 1.884 0 013.768 0v3.075a1.885 1.885 0 01-1.884 1.884zm9.775 0a1.884 1.884 0 01-1.884-1.884v-3.075a1.884 1.884 0 013.768 0v3.075a1.885 1.885 0 01-1.884 1.884zm9.774 0a1.885 1.885 0 01-1.884-1.884v-3.075a1.884 1.884 0 013.768 0v3.075a1.885 1.885 0 01-1.884 1.884zm-5.7 23.133h-7.874a1.884 1.884 0 01-1.884-1.884V34.418a1.885 1.885 0 011.884-1.884h7.874a1.885 1.885 0 011.884 1.884v14.817a1.884 1.884 0 01-1.884 1.885zm-5.99-3.768h4.106v-11.05h-4.106z"/></svg>