<svg xmlns="http://www.w3.org/2000/svg" width="297.397" height="60.003"><defs><linearGradient id="a" x1=".043" y1=".043" x2=".953" y2=".953" gradientUnits="objectBoundingBox"><stop offset="0" stop-color="#1bbbed"/><stop offset=".231" stop-color="#1ab8e9"/><stop offset=".417" stop-color="#1aaedf"/><stop offset=".586" stop-color="#199fce"/><stop offset=".747" stop-color="#1889b7"/><stop offset=".899" stop-color="#166c98"/><stop offset="1" stop-color="#155680"/></linearGradient></defs><path d="M267.911 5.272q-2.17-2.885-7.4-2.888a19.1 19.1 0 00-3.958.415 12.206 12.206 0 00-4.06 1.8 14.652 14.652 0 00-3.652 3.41 18.305 18.305 0 00-2.446 4.33 17.624 17.624 0 00-1.133 4.706q-.442 4.623 2.058 7.18t7.394 2.56a15.865 15.865 0 004.092-.524 13.62 13.62 0 004.169-2.076 14.708 14.708 0 003.729-3.785 16.671 16.671 0 002.16-4.312 18.265 18.265 0 00.807-3.708 9.83 9.83 0 00-1.76-7.108zm-5.16 7.073a16.523 16.523 0 01-.987 3.452 10.9 10.9 0 01-2.474 4.014 4.969 4.969 0 01-3.622 1.592 3.249 3.249 0 01-2.741-1.187 4.11 4.11 0 01-.736-3 16.049 16.049 0 011.1-4.127 10.4 10.4 0 012.474-3.876 4.906 4.906 0 013.47-1.46 3.426 3.426 0 012.733 1.161 4.409 4.409 0 01.783 3.431zM104.72 2.785l-1.73 5.8h-7.423l-5.445 17.8h-7.1l5.43-17.8h-7.1l1.746-5.8zm20.683 1.819q-1.382-1.816-4.751-1.819h-13.009l-7.127 23.592h7.093l2.88-9.59h.376a2.311 2.311 0 011.5.481q.592.48 1.574 3.517c.65 2.018 1.207 3.888 1.663 5.592h7.475q-2.212-8.118-4.191-9.911a9.048 9.048 0 005.542-2.649 8.223 8.223 0 002.118-4.837 5.978 5.978 0 00-1.143-4.376zm-5.634 4.891a3.126 3.126 0 01-2.205 2.558 18.025 18.025 0 01-4.391.325h-1.342l1.45-4.81h3.59a3.841 3.841 0 012.465.514 1.657 1.657 0 01.434 1.413zm28.609 16.882l-1.356-23.592h-7.536l-15.189 23.592h7.609l2.153-3.865h7.457l-.061 3.865zm-11.526-8.866l4.757-8.594h.064l-.126 8.594zm43.105-14.726l-7.193 23.593h-6.613l-4.339-13.71h-.062l-4.161 13.71h-6.647l7.189-23.593h6.613l4.307 13.743h.062l4.2-13.743zm19.948 6.549l-6.648.372c.047-2.048-.958-3.073-3.029-3.073a3.237 3.237 0 00-2 .557 1.853 1.853 0 00-.805 1.326 1.328 1.328 0 00.442 1.072 8.308 8.308 0 002.462 1.29 31.645 31.645 0 014.028 1.951 6.9 6.9 0 012.417 2.381 5.79 5.79 0 01.68 3.655 7.686 7.686 0 01-1.486 3.833 9.768 9.768 0 01-3.5 2.932 13.271 13.271 0 01-6.077 1.154q-5.443 0-7.514-2.16a6.684 6.684 0 01-1.743-5.538l.053-.542 6.691-.469a3.941 3.941 0 00.641 3.115 3.319 3.319 0 002.529.909 4.144 4.144 0 002.638-.757 2.508 2.508 0 001.045-1.723 1.753 1.753 0 00-.435-1.334 7.031 7.031 0 00-2.618-1.432q-4.856-1.867-6.042-3.442a5.271 5.271 0 01-.967-3.8 7.183 7.183 0 011.459-3.7 8.179 8.179 0 013.447-2.6 13.11 13.11 0 015.119-.923q9.284 0 9.207 6.95zm12.027-6.549l-7.174 23.593h-7.16l7.175-23.593zm24.563 0l-1.729 5.8h-7.424l-5.443 17.8h-7.1l5.431-17.8h-7.1l1.745-5.8zm10.116 0l-7.174 23.593h-7.159l7.175-23.593zm50.785 0l-7.19 23.593h-6.611l-4.342-13.71h-.063l-4.162 13.71h-6.644l7.19-23.593h6.615l4.3 13.743h.063l4.2-13.743zM84.935 37.143v-5.112h-1.909v-.686h4.6v.686h-1.919v5.112zm16.731 0v-5.8h4.192v.686h-3.42v1.774h3.2v.683h-3.2v1.971h3.558v.684zm22.731-2.029l.768.2a2.611 2.611 0 01-.867 1.439 2.391 2.391 0 01-1.533.5 2.748 2.748 0 01-1.525-.381 2.393 2.393 0 01-.895-1.1 3.91 3.91 0 01-.307-1.553 3.4 3.4 0 01.347-1.582 2.356 2.356 0 01.985-1.026 2.873 2.873 0 011.403-.36 2.394 2.394 0 011.463.442 2.3 2.3 0 01.826 1.247l-.754.178a1.776 1.776 0 00-.589-.922 1.55 1.55 0 00-.964-.289 1.883 1.883 0 00-1.117.319 1.723 1.723 0 00-.631.859 3.744 3.744 0 00.035 2.407 1.616 1.616 0 00.67.825 1.9 1.9 0 00.985.272 1.662 1.662 0 001.089-.371 1.887 1.887 0 00.606-1.107zm14.814 2.029v-5.8h.767v2.381h3.016v-2.381h.766v5.8h-.766v-2.731h-3.016v2.731zm18.594 0v-5.8h.789l3.047 4.553v-4.553h.733v5.8h-.786l-3.047-4.557v4.557zm23.818-4.444a2.48 2.48 0 00-.982-1.068 2.785 2.785 0 00-1.448-.384 2.645 2.645 0 00-2 .815 3.161 3.161 0 00-.771 2.259 3.287 3.287 0 00.332 1.45 2.53 2.53 0 00.976 1.077 2.737 2.737 0 001.463.4 2.906 2.906 0 001.41-.356 2.463 2.463 0 001.008-1.058 3.379 3.379 0 00.355-1.572 3.509 3.509 0 00-.343-1.563zm-1.011 3.283a1.965 1.965 0 01-2.839 0 2.306 2.306 0 01-.565-1.65 2.483 2.483 0 01.589-1.867 1.957 1.957 0 011.4-.56 1.885 1.885 0 011.033.29 1.847 1.847 0 01.7.818 3.017 3.017 0 01.236 1.236 2.464 2.464 0 01-.554 1.733zm15.396 1.161v-5.8h.768v5.114h2.857v.684zm22.876-4.444a2.481 2.481 0 00-.982-1.068 2.78 2.78 0 00-1.45-.384 2.631 2.631 0 00-2 .815 3.146 3.146 0 00-.775 2.259 3.269 3.269 0 00.333 1.45 2.514 2.514 0 00.977 1.077 2.73 2.73 0 001.462.4 2.894 2.894 0 001.408-.356 2.462 2.462 0 001.01-1.058 3.4 3.4 0 00.352-1.572 3.489 3.489 0 00-.335-1.563zm-1.011 3.283a1.967 1.967 0 01-2.841 0 2.328 2.328 0 01-.564-1.65 2.48 2.48 0 01.589-1.867 1.959 1.959 0 011.4-.56 1.9 1.9 0 011.032.29 1.837 1.837 0 01.7.818 2.982 2.982 0 01.241 1.236 2.475 2.475 0 01-.557 1.733zm18.301-1.108v-.68l2.458-.005v2.152a4.46 4.46 0 01-1.17.68 3.438 3.438 0 01-1.231.225 3.294 3.294 0 01-1.553-.365 2.437 2.437 0 01-1.053-1.059 3.319 3.319 0 01-.358-1.546 3.585 3.585 0 01.356-1.579 2.346 2.346 0 011.017-1.092 3.224 3.224 0 011.53-.355 2.989 2.989 0 011.138.2 1.922 1.922 0 01.8.563 2.607 2.607 0 01.438.953l-.694.19a2.114 2.114 0 00-.326-.7 1.326 1.326 0 00-.552-.405 2.015 2.015 0 00-.8-.152 2.381 2.381 0 00-.911.159 1.768 1.768 0 00-.618.421 2.1 2.1 0 00-.365.574 3.016 3.016 0 00-.222 1.166 2.8 2.8 0 00.269 1.3 1.7 1.7 0 00.773.775 2.426 2.426 0 001.087.254 2.562 2.562 0 00.969-.191 2.511 2.511 0 00.721-.412v-1.078zm16.504 2.269v-5.8h.766v5.8zm14.811 0v-5.8h4.192v.686h-3.426v1.774h3.209v.683h-3.209v1.971h3.56v.684zm18.372-1.862l.724-.062a1.555 1.555 0 00.24.71 1.251 1.251 0 00.582.451 2.136 2.136 0 00.891.174 2.178 2.178 0 00.774-.13 1.04 1.04 0 00.5-.358.837.837 0 00.168-.5.728.728 0 00-.162-.474 1.108 1.108 0 00-.518-.345c-.157-.059-.5-.156-1.035-.286a5.077 5.077 0 01-1.117-.359 1.556 1.556 0 01-.62-.538 1.349 1.349 0 01-.207-.726 1.478 1.478 0 01.252-.818 1.536 1.536 0 01.728-.579 2.748 2.748 0 011.062-.2 2.875 2.875 0 011.136.208 1.64 1.64 0 01.758.611 1.736 1.736 0 01.285.913l-.734.056a1.176 1.176 0 00-.4-.829 1.535 1.535 0 00-1.01-.282 1.615 1.615 0 00-1.013.256.763.763 0 00-.319.615.669.669 0 00.226.515 3.112 3.112 0 001.158.414 8.036 8.036 0 011.283.365 1.827 1.827 0 01.749.592 1.457 1.457 0 01.24.828 1.56 1.56 0 01-.266.87 1.722 1.722 0 01-.761.638 2.635 2.635 0 01-1.114.225 3.353 3.353 0 01-1.323-.228 1.865 1.865 0 01-.833-.694 1.936 1.936 0 01-.317-1.039z" fill-rule="evenodd" fill="#000001"/><path d="M85.981 56.937l-.121-2.617h-4.3l-1.672 2.616h-2.99l8.11-12.272h2.989l.7 12.276zm-.23-5.021l-.153-3.9-2.707 3.9zm3.7 5.022l3.8-12.274h3.306c.894 0 1.451.014 1.7.043a4.711 4.711 0 011.323.315 3.33 3.33 0 011.038.678 3.673 3.673 0 01.747 1.043 4.622 4.622 0 01.406 1.385 6.979 6.979 0 01.016 1.689 8.523 8.523 0 01-1.1 3.483 8.039 8.039 0 01-2.112 2.423 6.338 6.338 0 01-2.341 1.037 11.182 11.182 0 01-2.36.183zm4.505-2.337a7.975 7.975 0 001.876-.157 2.811 2.811 0 001.069-.575 5.86 5.86 0 001.324-1.683 6.545 6.545 0 00.725-2.486 3.232 3.232 0 00-.183-1.772 1.472 1.472 0 00-.789-.743 4.54 4.54 0 00-1.385-.132h-1.234l-2.33 7.549zm10.11 2.343l-.907-12.276h2.834l.532 8.5 5.466-8.5h2.9l-7.937 12.272zm14.867.008l-.121-2.617h-4.3l-1.672 2.617h-2.989l8.109-12.272h2.99l.7 12.276zm-.23-5.021l-.153-3.9-2.707 3.9zm10.881 5.025l-2.179-7.425-2.3 7.423h-2.691l3.791-12.274h2.568l2.19 7.4 2.285-7.394h2.683L132.14 56.96zm10.134.215a4.136 4.136 0 01-3.382-1.388 5.24 5.24 0 01-.864-3.957 9.336 9.336 0 011.218-3.783 7.193 7.193 0 012.584-2.64 6.529 6.529 0 013.321-.917 4.31 4.31 0 013.114 1.093 4.023 4.023 0 011.155 2.96v.2l-2.742.265-.018-.219a2.038 2.038 0 00-.514-1.358 1.786 1.786 0 00-1.259-.407 3.237 3.237 0 00-1.8.577 4.609 4.609 0 00-1.506 1.835 7.367 7.367 0 00-.764 2.531 2.832 2.832 0 00.4 2.044 1.69 1.69 0 001.425.691 2.755 2.755 0 001.645-.572 3.989 3.989 0 001.275-1.726l.066-.156 2.833.443-.119.259a7.513 7.513 0 01-2.515 3.136 6.134 6.134 0 01-3.549 1.091zm6.078-.207l3.791-12.274h9.113l-.744 2.411h-6.255l-.7 2.258h6.046l-.743 2.411h-6.05l-.921 2.782h6.791l-.753 2.411zm10.976.005l3.8-12.274h3.306c.895 0 1.451.014 1.7.043a4.711 4.711 0 011.323.315 3.32 3.32 0 011.038.679 3.684 3.684 0 01.747 1.042 4.647 4.647 0 01.405 1.385 6.943 6.943 0 01.016 1.689 8.51 8.51 0 01-1.1 3.483 8.032 8.032 0 01-2.113 2.419 6.327 6.327 0 01-2.341 1.036 11.131 11.131 0 01-2.36.183zm4.505-2.336a7.927 7.927 0 001.876-.157 2.813 2.813 0 001.069-.574 5.865 5.865 0 001.324-1.684 6.528 6.528 0 00.725-2.486 3.228 3.228 0 00-.183-1.772 1.468 1.468 0 00-.789-.742 4.521 4.521 0 00-1.385-.133h-1.234l-2.33 7.548zm17 2.552a6.037 6.037 0 01-2.651-.536 2.919 2.919 0 01-1.517-1.542 4.419 4.419 0 01-.22-2.207l.023-.179 2.721-.142-.014.241a2.207 2.207 0 00.178 1.354 2.057 2.057 0 001.705.542 2.729 2.729 0 001.619-.384 1.246 1.246 0 00.547-.884.8.8 0 00-.271-.707 6.747 6.747 0 00-1.516-.828 14.249 14.249 0 01-1.913-1.015 2.737 2.737 0 01-.951-1.127 3.059 3.059 0 01-.223-1.607 3.848 3.848 0 011.4-2.623 5.021 5.021 0 013.327-1.035 4.551 4.551 0 013.236 1.039 3.481 3.481 0 011.038 2.766l-.007.2-2.739.124v-.227a1.5 1.5 0 00-.4-1.144 1.891 1.891 0 00-1.334-.393 2.225 2.225 0 00-1.327.309 1.051 1.051 0 00-.435.748.742.742 0 00.236.659 6.875 6.875 0 001.577.893 8.444 8.444 0 012.488 1.483 2.766 2.766 0 01.661 2.243 4.15 4.15 0 01-1.575 2.822 5.567 5.567 0 01-3.656 1.157zm82.717 0a6.037 6.037 0 01-2.651-.536 2.922 2.922 0 01-1.517-1.542 4.428 4.428 0 01-.22-2.207l.023-.179 2.721-.142-.014.241a2.2 2.2 0 00.179 1.354 2.055 2.055 0 001.7.542 2.729 2.729 0 001.619-.384 1.246 1.246 0 00.547-.884.8.8 0 00-.271-.707 6.729 6.729 0 00-1.516-.828 14.181 14.181 0 01-1.912-1.015 2.727 2.727 0 01-.951-1.127 3.066 3.066 0 01-.224-1.607 3.846 3.846 0 011.4-2.623 5.02 5.02 0 013.327-1.035 4.55 4.55 0 013.237 1.039 3.484 3.484 0 011.039 2.766l-.007.2-2.739.124v-.227a1.5 1.5 0 00-.405-1.144 1.89 1.89 0 00-1.334-.393 2.225 2.225 0 00-1.327.309 1.046 1.046 0 00-.435.748.74.74 0 00.235.659 6.89 6.89 0 001.577.893 8.444 8.444 0 012.488 1.483 2.764 2.764 0 01.661 2.243 4.146 4.146 0 01-1.575 2.822 5.565 5.565 0 01-3.656 1.159zm-71.529.009a4.644 4.644 0 01-2.791-.794 3.843 3.843 0 01-1.457-1.973 5.761 5.761 0 01-.24-2.329 10.114 10.114 0 012.1-5.035 7.25 7.25 0 012.356-1.868 6.764 6.764 0 013.047-.688 4.456 4.456 0 013.527 1.441 4.779 4.779 0 011.014 3.784 9 9 0 01-1.272 3.715 7.849 7.849 0 01-2.711 2.773 6.9 6.9 0 01-3.576.974zm2.619-10.219a3.507 3.507 0 00-2.862 1.578 6.924 6.924 0 00-1.436 3.541 2.5 2.5 0 00.477 1.889 1.987 1.987 0 001.674.742 3.237 3.237 0 001.814-.612 5.3 5.3 0 001.616-1.894 6.687 6.687 0 00.826-2.492 2.669 2.669 0 00-.467-2.033 2 2 0 00-1.64-.719v-.216zm4.291 10.013l3.8-12.274h2.85l-3.047 9.863h5.944l-.744 2.411zm14.629.208a4.25 4.25 0 01-3.174-1.082 3.322 3.322 0 01-.875-2.778 5.394 5.394 0 01.135-.749c.04-.177.182-.663.433-1.481l1.98-6.388h2.85l-2.561 8.293a2.4 2.4 0 00-.062.339 1.139 1.139 0 00.324.984 1.755 1.755 0 001.27.394 2.806 2.806 0 001.364-.3 2.341 2.341 0 00.895-.9 11.517 11.517 0 00.839-2.176l2.053-6.623h2.85l-2.085 6.758a14.613 14.613 0 01-1.315 3.175 5.292 5.292 0 01-1.923 1.835 5.972 5.972 0 01-3 .706zm8.89-.195l3.055-9.863h-3.426l.744-2.411h9.655l-.744 2.411H225.8l-3.047 9.863zm7.047-.002l3.8-12.274h2.851l-3.793 12.274zm10.428.218a4.65 4.65 0 01-2.792-.794 3.848 3.848 0 01-1.457-1.973 5.788 5.788 0 01-.24-2.329 10.126 10.126 0 012.1-5.034 7.25 7.25 0 012.356-1.868 6.754 6.754 0 013.044-.688 4.458 4.458 0 013.53 1.441 4.776 4.776 0 011.015 3.784 9 9 0 01-1.272 3.715 7.853 7.853 0 01-2.711 2.772 6.9 6.9 0 01-3.576.974zm2.62-10.218a3.51 3.51 0 00-2.863 1.577 6.925 6.925 0 00-1.436 3.542 2.5 2.5 0 00.477 1.889 1.989 1.989 0 001.674.742 3.242 3.242 0 001.814-.612 5.3 5.3 0 001.616-1.894 6.675 6.675 0 00.825-2.492 2.666 2.666 0 00-.467-2.034 2 2 0 00-1.64-.718zm11.457 10.015l-2.18-7.425-2.3 7.423h-2.691l3.791-12.274h2.568l2.19 7.4 2.285-7.394h2.689l-3.791 12.274z" fill="#000001"/><path d="M269.881 256.1h-49.63a5.193 5.193 0 00-5.187 5.187v49.63a5.193 5.193 0 005.187 5.187h49.63a5.193 5.193 0 005.187-5.187v-49.63a5.193 5.193 0 00-5.187-5.187zm2.16 54.817a2.163 2.163 0 01-2.16 2.16h-49.63a2.163 2.163 0 01-2.16-2.16v-26.356A31.125 31.125 0 00254 284.34c.589-.423 1.17-.87 1.726-1.33a31.1 31.1 0 0011.316-23.883h2.835a2.163 2.163 0 012.16 2.16zm-51.79-51.791h4.558a49.306 49.306 0 005.855 10.315 62.751 62.751 0 01-12.573 3.181v-11.334a2.163 2.163 0 012.16-2.161zm31.708 0a37.5 37.5 0 012.553 9.724 38.34 38.34 0 01-1.4 1.393 38.555 38.555 0 01-3.26 2.72l-5.79-8.346a44.355 44.355 0 006.407-5.49zm4.6 10.4a33.2 33.2 0 006.519-10.4h2.015a29.127 29.127 0 01-8.973 20.9 37.931 37.931 0 00.436-10.501zm-.343-2.584a39.689 39.689 0 00-2.144-7.813h6.9a30.98 30.98 0 01-4.759 7.812zm-38.125 7.658a64.461 64.461 0 0013.828-3.562c.706.852 1.436 1.67 2.194 2.443a34.171 34.171 0 006.058 4.936 55.338 55.338 0 01-21.7 4.022c-.128-.095-.25-.195-.376-.292zm15.734-4.33a55.313 55.313 0 008.617-4.551l5.816 8.383a44.381 44.381 0 01-5.9 3.348 31.551 31.551 0 01-6.848-5.338q-.867-.886-1.685-1.844zm8.5 9.394a27.305 27.305 0 0010.543 3.081l-.007.006a29.186 29.186 0 01-31.433 1.619 55.089 55.089 0 0020.902-4.708zm2.235-1.08a45.7 45.7 0 004.816-2.864l3.514 5.065a25.2 25.2 0 01-8.326-2.203zm6.409-4a42.013 42.013 0 003.473-2.912c.1-.091.188-.186.285-.278a35.976 35.976 0 01-.47 7.927zm-8.006-11.541l-2.716-3.915h7.495a42.933 42.933 0 01-4.774 3.915zm-1.621 1.1a53.561 53.561 0 01-8.789 4.568 46.5 46.5 0 01-5.624-9.579h10.938z" transform="translate(-215.064 -256.101)" fill="url(#a)"/><path d="M38.054 52.923l-.121-2.617h-4.3l-1.672 2.616h-2.99l8.11-12.272h2.989l.7 12.276zm-.23-5.021l-.153-3.9-2.707 3.9zm8.978 5.265a6.028 6.028 0 01-2.651-.535 2.917 2.917 0 01-1.517-1.542 4.419 4.419 0 01-.22-2.207l.023-.179 2.721-.142-.014.241a2.2 2.2 0 00.178 1.353 2.055 2.055 0 001.705.543 2.732 2.732 0 001.619-.384 1.245 1.245 0 00.547-.884.8.8 0 00-.27-.707 6.743 6.743 0 00-1.517-.828 14.276 14.276 0 01-1.912-1.016 2.736 2.736 0 01-.951-1.127 3.06 3.06 0 01-.223-1.608 3.845 3.845 0 011.4-2.623 5.02 5.02 0 013.327-1.035 4.546 4.546 0 013.236 1.039 3.483 3.483 0 011.039 2.766l-.007.2-2.739.123v-.227a1.5 1.5 0 00-.4-1.144 1.891 1.891 0 00-1.334-.393 2.225 2.225 0 00-1.327.309 1.046 1.046 0 00-.435.747.74.74 0 00.235.659 6.87 6.87 0 001.577.892 8.453 8.453 0 012.489 1.483 2.766 2.766 0 01.661 2.243 4.149 4.149 0 01-1.576 2.822 5.563 5.563 0 01-3.656 1.158z" fill="#155680"/></svg>