<svg xmlns="http://www.w3.org/2000/svg" width="171.152" height="39.283"><defs><clipPath id="a"><path fill="none" d="M0 0h171.152v39.283H0z"/></clipPath></defs><g clip-path="url(#a)"><path d="M154.397 11.377q-1.234-1.639-4.2-1.641a10.825 10.825 0 00-2.249.237 6.929 6.929 0 00-2.307 1.021 8.329 8.329 0 00-2.076 1.938 10.4 10.4 0 00-1.39 2.46 9.991 9.991 0 00-.644 2.674 4.882 4.882 0 001.169 4.08 5.619 5.619 0 004.2 1.454 9.029 9.029 0 002.325-.3 7.741 7.741 0 002.369-1.18 8.352 8.352 0 002.118-2.151 9.471 9.471 0 001.228-2.45 10.371 10.371 0 00.459-2.107 5.589 5.589 0 00-1.002-4.035zm-2.932 4.02a9.446 9.446 0 01-.561 1.961 6.2 6.2 0 01-1.406 2.281 2.827 2.827 0 01-2.059.9 1.844 1.844 0 01-1.557-.674 2.338 2.338 0 01-.419-1.7 9.141 9.141 0 01.625-2.345 5.917 5.917 0 011.406-2.2 2.788 2.788 0 011.972-.829 1.948 1.948 0 011.553.66 2.506 2.506 0 01.446 1.95zm-89.8-5.433l-.983 3.294h-4.218L53.37 23.371h-4.032l3.085-10.113h-4.035l.992-3.294zm11.754 1.034a3.192 3.192 0 00-2.7-1.034h-7.391l-4.049 13.407h4.031l1.636-5.45h.214a1.312 1.312 0 01.85.274 5.571 5.571 0 01.894 2c.369 1.147.686 2.209.945 3.178h4.248q-1.258-4.613-2.382-5.632a5.147 5.147 0 003.15-1.505 4.677 4.677 0 001.2-2.749 3.4 3.4 0 00-.646-2.489zm-3.2 2.779a1.772 1.772 0 01-1.253 1.453 10.24 10.24 0 01-2.5.185h-.762l.821-2.733h2.039a2.183 2.183 0 011.4.292.941.941 0 01.253.803zm16.255 9.594l-.771-13.407h-4.282L72.79 23.371h4.32l1.224-2.2h4.237l-.035 2.2zm-6.55-5.038l2.7-4.883h.037l-.073 4.883zm24.494-8.369l-4.088 13.407h-3.758l-2.465-7.791h-.035l-2.365 7.791H87.93l4.085-13.407h3.758l2.447 7.809h.035l2.385-7.809zm11.334 3.721l-3.778.212a1.511 1.511 0 00-1.721-1.746 1.84 1.84 0 00-1.134.316 1.059 1.059 0 00-.458.754.757.757 0 00.251.61 4.736 4.736 0 001.4.733 17.952 17.952 0 012.289 1.108 3.931 3.931 0 011.374 1.353 3.294 3.294 0 01.387 2.077 4.373 4.373 0 01-.844 2.178 5.566 5.566 0 01-1.987 1.666 7.554 7.554 0 01-3.454.655q-3.093 0-4.27-1.227a3.8 3.8 0 01-.991-3.146l.03-.309 3.8-.267a2.236 2.236 0 00.364 1.77 1.886 1.886 0 001.437.516 2.352 2.352 0 001.5-.43 1.423 1.423 0 00.594-.979.993.993 0 00-.247-.758 3.992 3.992 0 00-1.488-.814 8.4 8.4 0 01-3.434-1.956 3 3 0 01-.55-2.158 4.077 4.077 0 01.829-2.1 4.644 4.644 0 011.958-1.478 7.452 7.452 0 012.909-.525q5.275 0 5.231 3.949zm6.835-3.721l-4.076 13.407h-4.069l4.078-13.407zm13.958 0l-.982 3.294h-4.218l-3.093 10.113h-4.034l3.086-10.113h-4.037l.992-3.294zm5.746 0l-4.077 13.407h-4.068l4.077-13.407zm28.861 0l-4.085 13.407h-3.758l-2.467-7.791h-.036l-2.366 7.791h-3.775l4.086-13.407h3.759l2.446 7.809h.036l2.384-7.809zM50.423 29.491v-2.9h-1.085v-.39h2.611v.39H50.86v2.9zm9.508 0v-3.295h2.382v.39h-1.94v1.008h1.822v.388h-1.822v1.119h2.021v.389zm12.916-1.157l.436.112a1.479 1.479 0 01-.493.818 1.36 1.36 0 01-.871.283 1.562 1.562 0 01-.866-.217 1.356 1.356 0 01-.509-.628 2.219 2.219 0 01-.174-.882 1.925 1.925 0 01.2-.9 1.339 1.339 0 01.559-.583 1.635 1.635 0 01.8-.2 1.358 1.358 0 01.831.251 1.306 1.306 0 01.469.708l-.429.1a1.008 1.008 0 00-.334-.523.878.878 0 00-.548-.164 1.068 1.068 0 00-.635.181.984.984 0 00-.359.488 2.133 2.133 0 00.02 1.367.924.924 0 00.381.469 1.078 1.078 0 00.56.154.943.943 0 00.618-.21 1.068 1.068 0 00.345-.629zm8.418 1.157v-3.295h.436v1.353h1.715v-1.353h.435v3.295h-.435v-1.552h-1.714v1.552zm10.566 0v-3.295h.448l1.731 2.587v-2.587h.417v3.295h-.447l-1.731-2.589v2.589zm13.535-2.529a1.415 1.415 0 00-.558-.606 1.579 1.579 0 00-.822-.218 1.5 1.5 0 00-1.139.463 1.8 1.8 0 00-.438 1.284 1.866 1.866 0 00.188.824 1.435 1.435 0 00.555.612 1.551 1.551 0 00.831.226 1.646 1.646 0 00.8-.2 1.4 1.4 0 00.573-.6 1.923 1.923 0 00.2-.893 2 2 0 00-.19-.892zm-.575 1.866a1.117 1.117 0 01-1.613 0 1.308 1.308 0 01-.322-.937 1.411 1.411 0 01.334-1.06 1.113 1.113 0 01.8-.319 1.078 1.078 0 01.588.165 1.055 1.055 0 01.4.465 1.712 1.712 0 01.134.7 1.4 1.4 0 01-.321.986zm8.748.663v-3.295h.436v2.906h1.623v.389zm13-2.529a1.42 1.42 0 00-.558-.606 1.577 1.577 0 00-.824-.218 1.5 1.5 0 00-1.136.463 1.789 1.789 0 00-.44 1.284 1.853 1.853 0 00.189.824 1.429 1.429 0 00.555.612 1.548 1.548 0 00.831.226 1.639 1.639 0 00.8-.2 1.4 1.4 0 00.574-.6 1.934 1.934 0 00.2-.893 1.983 1.983 0 00-.191-.892zm-.575 1.866a1.118 1.118 0 01-1.614 0 1.32 1.32 0 01-.321-.937 1.409 1.409 0 01.334-1.06 1.114 1.114 0 01.8-.319 1.082 1.082 0 01.587.165 1.043 1.043 0 01.4.465 1.69 1.69 0 01.138.7 1.41 1.41 0 01-.324.986zm10.399-.629v-.386h1.4v1.223a2.535 2.535 0 01-.665.386 1.96 1.96 0 01-.7.129 1.868 1.868 0 01-.882-.208 1.378 1.378 0 01-.6-.6 1.891 1.891 0 01-.2-.878 2.031 2.031 0 01.2-.9 1.336 1.336 0 01.577-.621 1.837 1.837 0 01.87-.2 1.7 1.7 0 01.647.116 1.1 1.1 0 01.454.32 1.484 1.484 0 01.249.541l-.394.108a1.2 1.2 0 00-.185-.4.751.751 0 00-.313-.23 1.153 1.153 0 00-.454-.086 1.363 1.363 0 00-.518.09 1.017 1.017 0 00-.351.239 1.2 1.2 0 00-.208.326 1.722 1.722 0 00-.125.663 1.583 1.583 0 00.153.737.961.961 0 00.439.441 1.381 1.381 0 00.618.144 1.461 1.461 0 00.551-.108 1.409 1.409 0 00.41-.234v-.613zm9.379 1.292v-3.295h.435v3.295zm8.416 0v-3.295h2.382v.39h-1.947v1.008h1.824v.388h-1.824v1.119h2.023v.389zm10.439-1.059l.412-.035a.859.859 0 00.137.4.7.7 0 00.33.257 1.216 1.216 0 00.507.1 1.234 1.234 0 00.44-.074.588.588 0 00.283-.2.479.479 0 00.1-.282.413.413 0 00-.092-.27.637.637 0 00-.294-.2 6.076 6.076 0 00-.588-.162 2.977 2.977 0 01-.635-.2.888.888 0 01-.352-.307.77.77 0 01-.117-.412.838.838 0 01.143-.465.871.871 0 01.414-.329 1.56 1.56 0 01.6-.113 1.646 1.646 0 01.646.118.93.93 0 01.43.348.987.987 0 01.162.519l-.418.032a.665.665 0 00-.229-.471.869.869 0 00-.573-.16.916.916 0 00-.576.145.433.433 0 00-.181.349.379.379 0 00.128.292 1.764 1.764 0 00.658.236 4.506 4.506 0 01.729.207 1.04 1.04 0 01.425.336.826.826 0 01.137.471.888.888 0 01-.152.495.981.981 0 01-.432.362 1.5 1.5 0 01-.633.129 1.92 1.92 0 01-.752-.129 1.065 1.065 0 01-.473-.394 1.1 1.1 0 01-.181-.591z" fill="#161615" fill-rule="evenodd"/><path d="M5.359 33.415v-8.636a1.109 1.109 0 011.145-1.21 1.083 1.083 0 011.1.834h.016a2.406 2.406 0 012.061-.916 2.821 2.821 0 012.748 2.012 8.262 8.262 0 010 4.253 2.822 2.822 0 01-2.748 2.011 2.344 2.344 0 01-2.012-.85h-.015v2.5a1.147 1.147 0 11-2.29 0zm4.873-4.5a5.732 5.732 0 000-2.584 1.206 1.206 0 00-1.226-.916 1.19 1.19 0 00-1.211.916 5.765 5.765 0 000 2.584 1.19 1.19 0 001.211.916 1.206 1.206 0 001.226-.914zm3.483 2.094a1.021 1.021 0 01-.556-.916.932.932 0 01.948-.915 1.325 1.325 0 01.671.212 3.787 3.787 0 001.946.572c.835 0 1.227-.294 1.227-.735 0-.377-.212-.572-1.144-.671l-.867-.1c-1.717-.2-2.584-1.047-2.584-2.42 0-1.554 1.194-2.552 3.272-2.552a5.364 5.364 0 012.4.523 1.009 1.009 0 01.671.9.868.868 0 01-.9.9 1.528 1.528 0 01-.654-.2 3.764 3.764 0 00-1.6-.343c-.7 0-1 .246-1 .622 0 .36.2.556 1.1.654l.866.1c1.864.213 2.634 1.079 2.634 2.4 0 1.619-1.292 2.715-3.533 2.715a5.509 5.509 0 01-2.897-.746zm7.146-1.5a6.891 6.891 0 010-3.762 3.256 3.256 0 013.37-2.257 3.521 3.521 0 012.485.867 1.236 1.236 0 01.458.915.958.958 0 01-1 .982 1.392 1.392 0 01-.932-.475 1.321 1.321 0 00-.981-.36 1.136 1.136 0 00-1.194.867 6.187 6.187 0 000 2.682 1.135 1.135 0 001.194.867 1.325 1.325 0 00.981-.359 1.4 1.4 0 01.932-.475.958.958 0 011 .982 1.238 1.238 0 01-.458.916 3.521 3.521 0 01-2.485.866 3.256 3.256 0 01-3.37-2.256z" fill="#be257a"/><path d="M26.994 33.567a.971.971 0 011.062-1h5.835a1 1 0 110 1.994h-5.835a.97.97 0 01-1.062-.994z" fill="#63a424"/><path d="M36.047 39.283H3.237A3.241 3.241 0 010 36.046V3.236A3.24 3.24 0 013.237 0h32.81a3.239 3.239 0 013.236 3.236v32.81a3.24 3.24 0 01-3.236 3.237zM3.237 2.071a1.167 1.167 0 00-1.166 1.165v32.81a1.167 1.167 0 001.166 1.166h32.81a1.167 1.167 0 001.165-1.166V3.236a1.166 1.166 0 00-1.165-1.165z" fill="#5f2073"/></g></svg>