<svg xmlns="http://www.w3.org/2000/svg" width="297.019" height="60.082"><defs><style>.b{fill:#ef541d}</style></defs><path d="M267.476 5.253q-2.175-2.89-7.413-2.893a19.088 19.088 0 00-3.966.417 12.2 12.2 0 00-4.068 1.8 14.675 14.675 0 00-3.66 3.417 18.317 18.317 0 00-2.451 4.339 17.621 17.621 0 00-1.135 4.714c-.3 3.089.391 5.48 2.061 7.194s4.138 2.563 7.409 2.563a15.9 15.9 0 004.1-.524 13.622 13.622 0 004.176-2.08 14.7 14.7 0 003.736-3.792 16.712 16.712 0 002.165-4.32 18.223 18.223 0 00.809-3.715 9.85 9.85 0 00-1.763-7.12zm-5.169 7.088a16.715 16.715 0 01-.989 3.458 10.943 10.943 0 01-2.479 4.022 4.982 4.982 0 01-3.63 1.594 3.252 3.252 0 01-2.745-1.189 4.123 4.123 0 01-.739-3 16.129 16.129 0 011.1-4.135 10.43 10.43 0 012.479-3.884 4.918 4.918 0 013.476-1.462 3.433 3.433 0 012.739 1.165 4.418 4.418 0 01.788 3.431zM103.972 2.762l-1.733 5.808h-7.437l-5.455 17.831h-7.11l5.44-17.831h-7.115l1.749-5.808zm20.724 1.823q-1.385-1.818-4.76-1.823h-13.035L99.761 26.4h7.107l2.885-9.608h.376a2.311 2.311 0 011.5.482q.592.48 1.577 3.523c.651 2.021 1.21 3.9 1.667 5.6h7.49q-2.217-8.135-4.2-9.931a9.079 9.079 0 005.553-2.654 8.242 8.242 0 002.122-4.847 5.989 5.989 0 00-1.142-4.38zm-5.645 4.9a3.125 3.125 0 01-2.208 2.562 18.034 18.034 0 01-4.4.327h-1.344l1.451-4.819h3.6a3.849 3.849 0 012.47.515 1.657 1.657 0 01.43 1.415zM147.715 26.4l-1.36-23.638h-7.549L123.588 26.4h7.624l2.157-3.873h7.472l-.062 3.873zm-11.548-8.883l4.767-8.61h.064l-.128 8.61zm43.187-14.755L172.147 26.4h-6.626l-4.346-13.738h-.062L156.944 26.4h-6.66l7.2-23.638h6.626l4.314 13.769h.062l4.206-13.769zm19.985 6.561l-6.661.373q.073-3.078-3.034-3.079a3.247 3.247 0 00-2 .557 1.867 1.867 0 00-.808 1.329 1.335 1.335 0 00.444 1.075 8.346 8.346 0 002.466 1.293 31.669 31.669 0 014.036 1.953 6.935 6.935 0 012.423 2.385 5.8 5.8 0 01.681 3.662 7.7 7.7 0 01-1.488 3.84 9.81 9.81 0 01-3.5 2.938 13.313 13.313 0 01-6.088 1.154q-5.453 0-7.529-2.163a6.7 6.7 0 01-1.747-5.548l.054-.544 6.7-.47a3.95 3.95 0 00.642 3.122 3.328 3.328 0 002.534.909 4.14 4.14 0 002.642-.758 2.508 2.508 0 001.047-1.726 1.749 1.749 0 00-.436-1.337 7.037 7.037 0 00-2.622-1.435q-4.866-1.87-6.055-3.447a5.289 5.289 0 01-.969-3.806 7.2 7.2 0 011.463-3.71 8.186 8.186 0 013.452-2.6 13.12 13.12 0 015.129-.925q9.3 0 9.224 6.963zm12.05-6.561L204.203 26.4h-7.174l7.19-23.638zm24.61 0l-1.732 5.808h-7.438l-5.454 17.831h-7.112l5.442-17.831h-7.115l1.748-5.808zm10.14 0L238.95 26.4h-7.172l7.189-23.638zm50.88 0l-7.2 23.638h-6.629l-4.349-13.738h-.063L274.607 26.4h-6.657l7.2-23.638h6.628l4.312 13.769h.063l4.2-13.769zM84.15 37.19v-5.125h-1.913v-.687h4.6v.687h-1.921v5.122zm16.764 0v-5.809h4.2v.687h-3.429v1.777h3.212v.685h-3.212v1.974h3.564v.686zm22.774-2.038l.769.2a2.61 2.61 0 01-.868 1.443 2.4 2.4 0 01-1.535.5 2.76 2.76 0 01-1.527-.383 2.39 2.39 0 01-.9-1.107 3.906 3.906 0 01-.307-1.555 3.4 3.4 0 01.347-1.585 2.361 2.361 0 01.987-1.028 2.881 2.881 0 011.409-.35 2.4 2.4 0 011.466.444 2.309 2.309 0 01.828 1.248l-.756.18a1.774 1.774 0 00-.59-.923 1.543 1.543 0 00-.966-.29 1.88 1.88 0 00-1.118.32 1.731 1.731 0 00-.633.862 3.754 3.754 0 00.035 2.411 1.623 1.623 0 00.671.826 1.9 1.9 0 00.988.272 1.665 1.665 0 001.09-.371 1.884 1.884 0 00.607-1.109zm14.841 2.038v-5.809h.769v2.384h3.022V31.38h.767v5.809h-.767v-2.736h-3.022v2.736zm18.631 0v-5.809h.79l3.053 4.562v-4.562h.735v5.809h-.788l-3.053-4.565v4.565zm23.865-4.457a2.486 2.486 0 00-.985-1.069 2.777 2.777 0 00-1.449-.385 2.653 2.653 0 00-2.009.817 3.164 3.164 0 00-.773 2.264 3.294 3.294 0 00.332 1.452 2.54 2.54 0 00.978 1.079 2.745 2.745 0 001.465.4 2.9 2.9 0 001.413-.358 2.464 2.464 0 001.011-1.06 3.394 3.394 0 00.356-1.575 3.524 3.524 0 00-.339-1.565zm-1.013 3.291a1.97 1.97 0 01-2.845 0 2.309 2.309 0 01-.566-1.654 2.488 2.488 0 01.589-1.87 1.963 1.963 0 011.4-.562 1.9 1.9 0 011.036.291 1.859 1.859 0 01.706.82 3.019 3.019 0 01.237 1.237 2.475 2.475 0 01-.558 1.738zm15.424 1.166v-5.809h.769v5.123h2.862v.686zm22.92-4.457a2.488 2.488 0 00-.983-1.069 2.779 2.779 0 00-1.453-.385 2.641 2.641 0 00-2 .817 3.154 3.154 0 00-.777 2.264 3.273 3.273 0 00.334 1.452 2.524 2.524 0 00.978 1.079 2.737 2.737 0 001.465.4 2.89 2.89 0 001.411-.358 2.469 2.469 0 001.011-1.06 3.4 3.4 0 00.353-1.575 3.489 3.489 0 00-.339-1.565zm-1.013 3.291a1.97 1.97 0 01-2.845 0 2.324 2.324 0 01-.566-1.654 2.484 2.484 0 01.59-1.87 1.963 1.963 0 011.4-.562 1.907 1.907 0 011.035.291 1.836 1.836 0 01.7.82 2.976 2.976 0 01.243 1.237 2.484 2.484 0 01-.558 1.738zm18.336-1.112v-.682l2.462-.005v2.155a4.47 4.47 0 01-1.172.681 3.444 3.444 0 01-1.234.227 3.3 3.3 0 01-1.555-.366 2.439 2.439 0 01-1.057-1.061 3.339 3.339 0 01-.358-1.548 3.588 3.588 0 01.357-1.582 2.36 2.36 0 011.018-1.095 3.247 3.247 0 011.534-.355 2.989 2.989 0 011.14.2 1.938 1.938 0 01.8.564 2.606 2.606 0 01.44.956l-.695.19a2.1 2.1 0 00-.328-.7 1.306 1.306 0 00-.552-.405 2.018 2.018 0 00-.8-.153 2.38 2.38 0 00-.913.16 1.781 1.781 0 00-.619.422 2.1 2.1 0 00-.366.575 3.016 3.016 0 00-.221 1.169 2.808 2.808 0 00.27 1.3 1.7 1.7 0 00.775.777 2.446 2.446 0 001.09.254 2.582 2.582 0 00.97-.191 2.478 2.478 0 00.723-.413v-1.08zm16.536 2.278v-5.809h.768v5.809zm14.839 0v-5.809h4.2v.687h-3.432v1.777h3.215v.685h-3.215v1.974h3.567v.686zm18.407-1.865l.726-.062a1.527 1.527 0 00.241.71 1.236 1.236 0 00.582.453 2.143 2.143 0 00.893.174 2.166 2.166 0 00.776-.13 1.034 1.034 0 00.5-.359.846.846 0 00.168-.5.733.733 0 00-.162-.475 1.118 1.118 0 00-.519-.345 10.708 10.708 0 00-1.037-.286 5.245 5.245 0 01-1.12-.359 1.556 1.556 0 01-.62-.54 1.353 1.353 0 01-.207-.727 1.477 1.477 0 01.252-.82 1.533 1.533 0 01.731-.58 2.739 2.739 0 011.064-.2 2.894 2.894 0 011.138.208 1.638 1.638 0 01.759.613 1.744 1.744 0 01.287.915l-.737.055a1.174 1.174 0 00-.405-.831 1.532 1.532 0 00-1.012-.283 1.619 1.619 0 00-1.014.256.765.765 0 00-.32.616.67.67 0 00.225.516 3.125 3.125 0 001.159.416 7.932 7.932 0 011.286.365 1.841 1.841 0 01.751.594 1.456 1.456 0 01.241.829 1.561 1.561 0 01-.268.873 1.726 1.726 0 01-.762.638 2.641 2.641 0 01-1.115.227 3.388 3.388 0 01-1.327-.228 1.877 1.877 0 01-.834-.7 1.936 1.936 0 01-.319-1.041z" fill-rule="evenodd" fill="#000001"/><path class="b" d="M55.302 60.082H4.779A4.785 4.785 0 010 55.303V4.779a4.785 4.785 0 014.779-4.78h50.523a4.785 4.785 0 014.779 4.78v50.526a4.785 4.785 0 01-4.779 4.777zM4.779 2.731a2.05 2.05 0 00-2.048 2.048v50.526a2.05 2.05 0 002.048 2.048h50.523a2.051 2.051 0 002.048-2.048V4.779a2.051 2.051 0 00-2.048-2.048z"/><path class="b" d="M9.558 20.482h2.731v-6.745l-2.731-2.731zm10.924-8.193V9.558h-9.476l2.731 2.731zm6.827 4.097h-2.731v6.778l2.731 2.731zm-10.924 8.226v2.731h9.476l-2.731-2.731zm22.549 21.926a4.038 4.038 0 01-1.662 3.161 6.685 6.685 0 01-3.79.824 6.254 6.254 0 01-4.659-1.453 5.453 5.453 0 01-1.513-4.045 5.513 5.513 0 011.453-4.014 6.05 6.05 0 014.48-1.573 8.082 8.082 0 014.1.929 3.467 3.467 0 011.513 2.876H35.98a1.524 1.524 0 00-.779-1.288 3.231 3.231 0 00-1.768-.419 2.826 2.826 0 00-2.262.823 3.73 3.73 0 00-.869 2.652 3.647 3.647 0 00.9 2.652 3.014 3.014 0 002.248.764 3.263 3.263 0 001.827-.4 1.92 1.92 0 00.778-1.483zm4.036.27v.06a1.306 1.306 0 00.4 1 3 3 0 002.023.57 3.208 3.208 0 001.5-.24 1.233 1.233 0 00.689-1.049c0-.239-.1-.644-.734-.9a9.832 9.832 0 00-1.452-.345l-1.514-.239c-1.138-.181-2.471-.39-3.145-1.139a2.4 2.4 0 01-.585-1.678 2.963 2.963 0 011.438-2.682 6.439 6.439 0 013.431-.749 7.012 7.012 0 013.656.7 2.639 2.639 0 011.407 2.547h-2.786a1.108 1.108 0 00-.629-.959 4.157 4.157 0 00-1.679-.284 3.093 3.093 0 00-1.438.284 1.063 1.063 0 00-.524.914c0 .479.405.674.749.794a11.076 11.076 0 001.8.375l1.2.194a6.239 6.239 0 012.666.868 2.69 2.69 0 011.064 2.292 2.985 2.985 0 01-1.229 2.547 6.168 6.168 0 01-3.7.81c-1.663 0-3.566-.105-4.628-1.229a3.381 3.381 0 01-.854-2.412v-.06z"/><path d="M92.779 53.969a3.68 3.68 0 01-1.515 2.881 6.086 6.086 0 01-3.456.752 5.7 5.7 0 01-4.247-1.324 4.966 4.966 0 01-1.379-3.688 5.028 5.028 0 011.324-3.661 5.523 5.523 0 014.084-1.433 7.369 7.369 0 013.743.847 3.16 3.16 0 011.379 2.623h-2.624a1.388 1.388 0 00-.71-1.175 2.946 2.946 0 00-1.611-.383 2.578 2.578 0 00-2.063.752 3.4 3.4 0 00-.791 2.417 3.317 3.317 0 00.82 2.417 2.741 2.741 0 002.048.7 2.971 2.971 0 001.666-.369 1.753 1.753 0 00.71-1.352zm10.733 2.226a6.966 6.966 0 01-8.358 0 5.211 5.211 0 010-7.321 6.966 6.966 0 018.358 0 5.209 5.209 0 010 7.321zm-6.257-6.065a3.741 3.741 0 000 4.807 3.29 3.29 0 004.152 0 3.744 3.744 0 000-4.807 3.29 3.29 0 00-4.152 0zm19.173 7.185h-2.445l-4.822-6.419v6.419h-2.512v-9.561h2.457l4.808 6.419v-6.419h2.513zm1.255-7.648v-1.913h9.178v1.913h-3.332v7.648h-2.513v-7.648zm10.391-1.913h5.655a4.446 4.446 0 013.1.861 2.506 2.506 0 01.655 1.817 2.231 2.231 0 01-.628 1.693 2.713 2.713 0 01-1.229.669v.054a2.02 2.02 0 011.121.575 1.961 1.961 0 01.478 1.447l.069 1.079a2.7 2.7 0 00.4 1.366h-2.664a2.02 2.02 0 01-.369-1.216l-.041-.792a1.564 1.564 0 00-.45-1.161 2.078 2.078 0 00-1.229-.341h-2.349v3.51h-2.514zm2.514 4.247h2.663a1.826 1.826 0 001.324-.382 1.143 1.143 0 00.314-.819 1.057 1.057 0 00-.464-.929 2.721 2.721 0 00-1.2-.2h-2.632zm18.023 4.194a6.967 6.967 0 01-8.359 0 5.213 5.213 0 010-7.321 6.968 6.968 0 018.359 0 5.211 5.211 0 010 7.321zm-6.254-6.065a3.741 3.741 0 000 4.807 3.289 3.289 0 004.151 0 3.738 3.738 0 000-4.807 3.289 3.289 0 00-4.151 0zm17.139 7.185h-7.745v-9.561h2.514v7.621h5.23zm6.469-3.1v.054a1.191 1.191 0 00.37.915 2.739 2.739 0 001.844.519 2.939 2.939 0 001.366-.219 1.126 1.126 0 00.628-.956c0-.219-.1-.587-.67-.819a8.885 8.885 0 00-1.324-.314l-1.38-.219a5.018 5.018 0 01-2.868-1.038 2.191 2.191 0 01-.532-1.53 2.7 2.7 0 011.311-2.445 5.871 5.871 0 013.128-.682 6.392 6.392 0 013.332.642 2.4 2.4 0 011.283 2.322h-2.54a1.008 1.008 0 00-.574-.874 3.787 3.787 0 00-1.529-.26 2.8 2.8 0 00-1.311.26.966.966 0 00-.479.833c0 .437.369.614.683.724a9.9 9.9 0 001.639.341l1.093.178a5.676 5.676 0 012.431.792 2.454 2.454 0 01.969 2.089 2.716 2.716 0 01-1.12 2.322 5.619 5.619 0 01-3.374.738c-1.515 0-3.25-.1-4.22-1.12a3.08 3.08 0 01-.778-2.2v-.054zm17.81 1.98a6.966 6.966 0 01-8.358 0 5.211 5.211 0 010-7.321 6.966 6.966 0 018.358 0 5.209 5.209 0 010 7.321zm-6.258-6.065a3.744 3.744 0 000 4.807 3.29 3.29 0 004.152 0 3.741 3.741 0 000-4.807 3.29 3.29 0 00-4.152 0zm17.139 7.185h-7.743v-9.561h2.516v7.621h5.23zm10.35-3.756a3.891 3.891 0 01-.969 2.881 6.95 6.95 0 01-7.566 0 3.891 3.891 0 01-.969-2.881v-5.805h2.512v5.545a2.441 2.441 0 00.533 1.763 3 3 0 003.414 0 2.442 2.442 0 00.534-1.763v-5.545h2.512zm1.05-3.892v-1.913h9.178v1.913h-3.332v7.648h-2.513v-7.648zm12.904-1.913v9.561h-2.512v-9.561zm11.513 8.441a6.967 6.967 0 01-8.359 0 5.211 5.211 0 010-7.321 6.968 6.968 0 018.359 0 5.213 5.213 0 010 7.321zm-6.25-6.065a3.738 3.738 0 000 4.807 3.289 3.289 0 004.151 0 3.741 3.741 0 000-4.807 3.289 3.289 0 00-4.151 0zm19.167 7.185h-2.445l-4.821-6.419v6.419h-2.513v-9.561h2.459l4.807 6.419v-6.419h2.513zm4.177-3.1v.054a1.191 1.191 0 00.369.915 2.738 2.738 0 001.844.519 2.934 2.934 0 001.366-.219 1.124 1.124 0 00.628-.956c0-.219-.1-.587-.669-.819a8.923 8.923 0 00-1.325-.314l-1.379-.219a5.011 5.011 0 01-2.868-1.038 2.191 2.191 0 01-.533-1.53 2.7 2.7 0 011.311-2.445 5.873 5.873 0 013.127-.682 6.385 6.385 0 013.332.642 2.408 2.408 0 011.285 2.322h-2.54a1.009 1.009 0 00-.574-.874 3.794 3.794 0 00-1.529-.26 2.8 2.8 0 00-1.311.26.966.966 0 00-.479.833c0 .437.369.614.683.724a9.852 9.852 0 001.638.341l1.093.178a5.675 5.675 0 012.431.792 2.452 2.452 0 01.97 2.089 2.717 2.717 0 01-1.121 2.322 5.617 5.617 0 01-3.374.738c-1.516 0-3.25-.1-4.221-1.12a3.086 3.086 0 01-.778-2.2v-.054z" fill="#000001"/></svg>