<svg xmlns="http://www.w3.org/2000/svg" width="220.802" height="37.471"><defs><clipPath id="a"><path fill="none" d="M0 0h220.802v37.471H0z"/></clipPath><style>.c{fill:#161615}</style></defs><g clip-path="url(#a)"><path class="c" d="M22.834 8.862h-3.313V6.18h9.683v2.682h-3.313v8.362h-3.057zM6.616 20.072h3.235l2.635 4.275 2.635-4.275h3.23v11.044h-3.045v-6.338L12.482 29.1h-.063l-2.808-4.29v6.31h-3zm3.815-11.21H7.118V6.18h9.687v2.682h-3.313v8.362h-3.061z"/><path class="c" d="M36.419 37.471H0V0h36.419zm-34.316-2.1h32.212V2.104H2.103z"/><path class="c" d="M26.823 24.341l-1.437-.453-.052-.015c-.176-.051-.793-.221-.849-.659a.588.588 0 01.516-.745 33.175 33.175 0 013.359.218l.508.063.381-2.555-.508-.062a34.482 34.482 0 00-3.9-.243l-.2.014a3.372 3.372 0 00-2.994 3.309 3.849 3.849 0 002.842 3.645l1.424.449.127.036c.162.041.873.123.8.794a.611.611 0 01-.558.6c-.495 0-2.128-.035-3.755-.221l-.509-.058-.353 2.559.509.058a42.161 42.161 0 004.222.241h.077l.077-.008a3.429 3.429 0 003.131-3.432 3.66 3.66 0 00-2.858-3.535zM45.749 7.194v8.709h-1.252V7.194h-3.159v-1.11h7.586v1.11zm10.329 8.707l-.868-3.074a1.264 1.264 0 00-1.31-1.024c-.911 0-1.622-.015-2.163-.015v4.113h-1.238V6.082a28.306 28.306 0 013.387-.129c2.277 0 3.174.627 3.174 2.832 0 1.594-.512 2.362-1.808 2.533v.071a1.835 1.835 0 011.209 1.409l.954 3.1zm-2.22-5.179c1.452-.015 1.935-.413 1.935-1.865s-.484-1.822-1.935-1.822c-.839 0-1.565 0-2.12.014v3.672zm6.603 2.107l-.968 3.074h-1.3l3.159-9.478a.462.462 0 01.47-.341h1.309a.462.462 0 01.469.341l3.159 9.478h-1.295l-.968-3.074zm2.462-4.98a15.592 15.592 0 01-.242-.8h-.4l-.242.8-1.238 3.9h3.358zm12.778 7.556a.44.44 0 01-.484.5h-1.223a.547.547 0 01-.555-.4l-3.316-6.959a10.447 10.447 0 01-.555-1.295h-.228c.043.427.057.868.057 1.295v7.357h-1.253V6.582a.444.444 0 01.5-.5h1.181a.547.547 0 01.555.4l3.216 6.788c.2.4.455.939.669 1.423h.242c-.028-.512-.043-1-.043-1.494V6.084h1.238zm3.953-4.169c-1.423-.355-1.935-1.238-1.935-2.733 0-2.291 1-2.59 3.188-2.59a14.9 14.9 0 012.918.284l-.086.911a56.823 56.823 0 00-2.775-.071c-1.423 0-1.978.043-1.978 1.494 0 1.081.37 1.395 1.238 1.608l1.992.5c1.509.37 1.978 1.238 1.978 2.761 0 2.263-1 2.675-3.288 2.675a16.9 16.9 0 01-3.045-.27l.085-.925c1.665.057 2.192.085 3 .071 1.509 0 1.978-.228 1.978-1.579 0-1.139-.384-1.409-1.238-1.623zm6.503 4.667V6.084h1.252v9.819zM93.4 7.194v8.709h-1.253V7.194h-3.159v-1.11h7.585v1.11zm4.751 8.709V6.084h1.252v9.819zm11.114-4.909c0 3.843-1.01 5.1-3.871 5.1s-3.885-1.252-3.885-5.1 1.025-5.095 3.885-5.095 3.871 1.252 3.871 5.095zm-6.432 0c0 3 .626 3.971 2.562 3.971s2.562-.968 2.562-3.971-.626-3.97-2.562-3.97-2.562.967-2.562 3.97zm16.107 4.411a.439.439 0 01-.483.5h-1.224a.548.548 0 01-.555-.4l-3.316-6.959a10.4 10.4 0 01-.555-1.295h-.227c.042.427.057.868.057 1.295v7.357h-1.252V6.582a.444.444 0 01.5-.5h1.181a.547.547 0 01.555.4l3.216 6.788c.2.4.456.939.669 1.423h.242c-.029-.512-.043-1-.043-1.494V6.084h1.235zm8.836-8.211v8.709h-1.253V7.194h-3.159v-1.11h7.585v1.11zm10.771 8.639c-1.31.085-2.8.085-4.212.085a1.691 1.691 0 01-1.896-1.708V7.778a1.691 1.691 0 011.9-1.707c1.409 0 2.9 0 4.212.085l-.057.982h-3.942c-.584 0-.854.284-.854.94v2.134h4.241v1.01h-4.241v2.689c0 .669.271.954.854.954h3.942zm8.224-.084a9.981 9.981 0 01-2.875.327c-2.832 0-3.857-1.338-3.857-5.081s1.024-5.08 3.857-5.08a9.87 9.87 0 012.675.284l-.129.954a21.653 21.653 0 00-2.547-.128c-1.921 0-2.534.982-2.534 3.971s.612 3.971 2.534 3.971a18.2 18.2 0 002.746-.156zm8.779.154h-1.252v-4.71h-4.526v4.71h-1.252V6.084h1.252v4.027h4.526V6.084h1.252zm10.032-.498a.44.44 0 01-.484.5h-1.224a.548.548 0 01-.555-.4l-3.316-6.959a10.45 10.45 0 01-.555-1.295h-.227c.043.427.057.868.057 1.295v7.357h-1.253V6.582a.444.444 0 01.5-.5h1.178a.548.548 0 01.555.4l3.216 6.788c.2.4.456.939.669 1.423h.242c-.028-.512-.043-1-.043-1.494V6.084h1.238zm9.855-4.411c0 3.843-1.01 5.1-3.871 5.1s-3.885-1.252-3.885-5.1 1.025-5.095 3.885-5.095 3.871 1.252 3.871 5.095zm-6.432 0c0 3 .626 3.971 2.562 3.971s2.562-.968 2.562-3.971-.626-3.97-2.562-3.97-2.558.967-2.558 3.97zm9.765 2.917c0 .654.3.939.954.939h3.544l.057.968c-1.238.1-2.533.1-3.8.1-1.452 0-1.993-.783-1.993-1.85V6.084h1.238zm13.262-2.917c0 3.843-1.01 5.1-3.871 5.1s-3.885-1.252-3.885-5.1 1.024-5.095 3.885-5.095 3.871 1.252 3.871 5.095zm-6.432 0c0 3 .626 3.971 2.562 3.971s2.562-.968 2.562-3.971-.627-3.97-2.562-3.97-2.562.967-2.562 3.97zm14.229 3.871a4.227 4.227 0 01-2.932 1.224c-2.206 0-3.1-1.594-3.1-5.123 0-3.9 1.067-5.066 4.1-5.066a11.034 11.034 0 012.733.3l-.128.94c-.9-.086-1.807-.114-2.533-.114-2.12 0-2.846.6-2.846 4.028 0 2.889.541 3.942 2.121 3.942a3.973 3.973 0 002.419-.953v-3.818h1.224v5.678h-.911zm3.257 1.038V6.084h1.253v9.819zm9.747-.07c-1.309.085-2.8.085-4.212.085a1.691 1.691 0 01-1.893-1.708V7.778a1.691 1.691 0 011.895-1.707c1.409 0 2.9 0 4.212.085l-.057.982h-3.942c-.584 0-.854.284-.854.94v2.134h4.241v1.01h-4.241v2.689c0 .669.27.954.854.954h3.942zm3.429-4.597c-1.423-.355-1.935-1.238-1.935-2.733 0-2.291 1-2.59 3.188-2.59a14.9 14.9 0 012.918.284l-.086.911a56.823 56.823 0 00-2.775-.071c-1.423 0-1.978.043-1.978 1.494 0 1.081.37 1.395 1.238 1.608l1.993.5c1.508.37 1.978 1.238 1.978 2.761 0 2.263-1 2.675-3.287 2.675a16.9 16.9 0 01-3.045-.27l.086-.925c1.665.057 2.191.085 3 .071 1.509 0 1.978-.228 1.978-1.579 0-1.139-.384-1.409-1.238-1.623zM51.967 21.278a.735.735 0 01.811.811l.384 9.008H51.11l-.327-8.126h-.242l-1.48 6.077a.808.808 0 01-.882.7h-1.423a.809.809 0 01-.882-.7l-1.494-6.077h-.242l-.285 8.126H41.81l.356-9.008c.029-.527.285-.811.811-.811h2.092a.8.8 0 01.853.7l1.2 4.9c.114.469.185.925.256 1.38h.185c.085-.455.156-.911.256-1.38l1.181-4.9a.828.828 0 01.882-.7zm4.935 7.244l-.711 2.576h-2.22l2.832-9.25a.75.75 0 01.754-.569h2.05a.738.738 0 01.754.569l2.832 9.25h-2.206l-.712-2.576zm2.078-4.682c-.071-.3-.157-.626-.2-.925h-.378c-.071.3-.142.626-.214.925l-.825 3h2.439zm13.505 6.474a.69.69 0 01-.769.783h-1.352c-.456 0-.655-.214-.868-.64L66.92 25.22a8.886 8.886 0 01-.6-1.523h-.156a11.56 11.56 0 01.1 1.565v5.835h-2.063V22.06a.7.7 0 01.783-.783h1.324c.455 0 .654.213.868.64l2.49 5.081c.214.427.484 1.024.711 1.579h.142c-.043-.555-.086-1.1-.086-1.651v-5.649h2.05zm3.94-1.792l-.711 2.576h-2.22l2.832-9.25a.749.749 0 01.754-.569h2.05a.738.738 0 01.754.569l2.832 9.25H80.51l-.712-2.576zm2.078-4.682c-.071-.3-.157-.626-.2-.925h-.384c-.071.3-.142.626-.214.925l-.825 3h2.448zm12.549 7.257h-1.594l-.2-.982a3.955 3.955 0 01-2.832 1.167c-2.206 0-3.131-1.523-3.131-5.123 0-3.885 1.167-5.066 4.4-5.066a10.993 10.993 0 013.017.341l-.171 1.593a64.047 64.047 0 00-2.775-.071c-1.637 0-2.178.427-2.178 3.274 0 2.447.385 3.2 1.608 3.2a3.614 3.614 0 001.764-.5v-3.5h2.092zm8.381-.099c-1.337.142-3.031.142-4.554.142a1.951 1.951 0 01-2.163-1.978v-5.948a1.951 1.951 0 012.163-1.978c1.523 0 3.216 0 4.554.142l-.1 1.608h-3.771c-.47 0-.669.214-.669.726v1.494h3.913v1.565h-3.913v1.893c0 .526.2.74.669.74h3.771zm1.564-9.72a57.228 57.228 0 013.814-.128c3.088 0 4.184 1.153 4.184 5.037s-1.1 5.038-4.184 5.038c-1.48 0-2.69-.057-3.814-.128zm2.163 8.225c.5 0 1.053.014 1.651.014 1.466 0 1.907-.754 1.907-3.33s-.441-3.344-1.907-3.344l-1.651.014zm12.251-2.817a2.694 2.694 0 01-2.035-2.874c0-2.249 1.039-2.718 3.571-2.718a11.951 11.951 0 013.23.384l-.142 1.48c-.825-.028-2.035-.043-3.074-.043s-1.423.057-1.423.9c0 .683.285.868 1.024 1.11l1.865.641a2.7 2.7 0 012.077 2.889c0 2.234-.968 2.832-3.643 2.832a16.083 16.083 0 01-3.373-.371l.129-1.565c1.821.043 2.618.071 3.244.071 1.139 0 1.452-.156 1.452-.953 0-.7-.27-.868-.925-1.081zm13.261 4.312c-1.338.142-3.031.142-4.554.142a1.951 1.951 0 01-2.163-1.978v-5.948a1.951 1.951 0 012.163-1.978c1.523 0 3.216 0 4.554.142l-.1 1.608h-3.771c-.47 0-.669.214-.669.726v1.494h3.909v1.565h-3.913v1.893c0 .526.2.74.669.74h3.771zm7.014.1l-.74-3a.946.946 0 00-1.053-.826l-1.523-.014v3.843h-2.134v-9.819a34.394 34.394 0 013.743-.128c2.562 0 3.629.654 3.629 2.9 0 1.38-.484 2.263-1.878 2.434v.071a1.809 1.809 0 011.394 1.48l.853 3.06zm-1.75-5.507c1.139 0 1.48-.313 1.48-1.395s-.341-1.38-1.48-1.38l-1.566.014v2.761zm10.643 4.908a.767.767 0 01-.769.6h-1.978a.767.767 0 01-.769-.6l-2.675-9.221h2.234l1.778 7.087c.085.356.171.74.242 1.1h.356c.057-.356.156-.74.242-1.1l1.764-7.087h2.234zm3.756.598v-9.819h2.166v9.819zm11.099-.228a9.656 9.656 0 01-3.145.4c-3.031 0-4.127-1.338-4.127-5.081s1.1-5.08 4.127-5.08a10.367 10.367 0 012.946.327l-.184 1.622a38.852 38.852 0 00-2.761-.071c-1.423 0-1.85.726-1.85 3.2s.427 3.2 1.85 3.2a21.712 21.712 0 002.96-.128zm8.025.129c-1.338.142-3.031.142-4.554.142a1.951 1.951 0 01-2.163-1.978v-5.948a1.951 1.951 0 012.163-1.978c1.523 0 3.216 0 4.554.142l-.1 1.608h-3.771c-.47 0-.669.214-.669.726v1.494h3.913v1.565h-3.914v1.893c0 .526.2.74.669.74h3.771zm3.215-4.312a2.694 2.694 0 01-2.035-2.874c0-2.249 1.039-2.718 3.571-2.718a11.954 11.954 0 013.23.384l-.142 1.48c-.826-.028-2.035-.043-3.074-.043s-1.423.057-1.423.9c0 .683.285.868 1.025 1.11l1.864.641a2.7 2.7 0 012.078 2.889c0 2.234-.968 2.832-3.643 2.832a16.077 16.077 0 01-3.373-.371l.128-1.565c1.822.043 2.618.071 3.245.071 1.138 0 1.452-.156 1.452-.953 0-.7-.271-.868-.925-1.081z"/></g></svg>