<svg xmlns="http://www.w3.org/2000/svg" width="200.58" height="28.837"><defs><clipPath id="a"><path fill="none" d="M0 0h200.58v28.837H0z"/></clipPath><style>.c,.e{fill:#161615;fill-rule:evenodd}.e{fill:#fff}</style></defs><g clip-path="url(#a)"><path class="c" d="M160.512 4.932q-1.445-1.921-4.927-1.923a12.671 12.671 0 00-2.636.277 8.111 8.111 0 00-2.7 1.2 9.785 9.785 0 00-2.433 2.271 12.194 12.194 0 00-1.628 2.884 11.737 11.737 0 00-.755 3.134 5.719 5.719 0 001.37 4.781 6.584 6.584 0 004.923 1.7 10.535 10.535 0 002.725-.349 9.067 9.067 0 002.776-1.382 9.781 9.781 0 002.483-2.52 11.092 11.092 0 001.439-2.871 12.168 12.168 0 00.538-2.47 6.544 6.544 0 00-1.175-4.732zm-3.436 4.71a11.019 11.019 0 01-.657 2.3 7.255 7.255 0 01-1.648 2.672 3.309 3.309 0 01-2.413 1.06 2.161 2.161 0 01-1.824-.791 2.738 2.738 0 01-.491-2 10.678 10.678 0 01.731-2.747 6.926 6.926 0 011.647-2.582 3.267 3.267 0 012.31-.972 2.281 2.281 0 011.82.773 2.938 2.938 0 01.525 2.287z"/><path d="M28.838 14.419A14.419 14.419 0 1114.419 0a14.419 14.419 0 0114.419 14.419z" fill="#4072b7" fill-rule="evenodd"/><path class="e" d="M2.345 22.295q.2.307.414.6h23.32q.215-.295.414-.6zM.756 19.024q.1.3.218.6h26.891q.115-.3.217-.6zm22.808 6.542H5.275c.256.21.521.408.791.6h16.707c.269-.192.535-.39.791-.6zm-23.5-9.812c.018.2.043.4.069.6h28.572c.026-.2.051-.4.069-.6zm2.695-9.813q-.215.295-.414.6h24.149q-.2-.306-.414-.6zM6.065 2.67c-.27.192-.535.391-.79.6h18.287c-.255-.21-.52-.409-.79-.6zM.973 9.212q-.114.3-.217.6h27.326c-.068-.2-.141-.4-.217-.6zm-.84 3.271c-.027.2-.051.4-.069.6h28.709a13.6 13.6 0 00-.069-.6z"/><path class="e" d="M19.16 25.766a10.3 10.3 0 01-3.369-.57c-4.008-1.387-4.062-4.594-4.051-5.026-.009-.4-.011-3.927-.011-8.569H8.123V7.129h3.606V5.66l6.988-3.525v5.142h3.771v4.472h-3.771v6.824c.13 1.915 1.934 2.325 3.424 2.325a6.063 6.063 0 00.679-.035l.678-.089v3.967l-.321.169a9.3 9.3 0 01-4.017.856z"/><path d="M22.899 21.458v2.919a9.3 9.3 0 01-6.912.25c-3.891-1.347-3.646-4.459-3.646-4.459-.011-.255-.011-5.211-.011-9.169H8.723V7.728h3.607V4.76l5.787-2.919v6.036h3.771v3.271h-3.771v7.425c.233 3.493 4.782 2.885 4.782 2.885z" fill="#10265e" fill-rule="evenodd"/><path class="e" d="M17.111 23.242v2.92a9.3 9.3 0 01-6.912.249c-3.891-1.346-3.646-4.458-3.646-4.458-.011-.255-.011-5.211-.011-9.169H2.935V9.513h3.607V6.544l5.787-2.919v5.887H16.1v3.271h-3.771v7.573c.233 3.494 4.782 2.886 4.782 2.886z"/><path class="c" d="M51.844 3.276l-1.152 3.86h-4.943l-3.626 11.851h-4.725l3.616-11.851h-4.729l1.163-3.86zm13.773 1.211a3.737 3.737 0 00-3.164-1.212H53.79l-4.746 15.711h4.723l1.918-6.387h.25a1.533 1.533 0 011 .321 6.51 6.51 0 011.048 2.341c.433 1.344.8 2.589 1.108 3.724h4.977q-1.473-5.406-2.79-6.6a6.026 6.026 0 003.69-1.764 5.477 5.477 0 001.41-3.221 3.98 3.98 0 00-.761-2.913zm-3.751 3.257a2.082 2.082 0 01-1.469 1.7 12.009 12.009 0 01-2.924.216h-.888l.963-3.2h2.39a2.559 2.559 0 011.641.343 1.1 1.1 0 01.287.941zm19.05 11.242l-.9-15.711h-5.023L64.878 18.986h5.066l1.434-2.574h4.966l-.041 2.574zm-7.675-5.9l3.168-5.723h.042l-.084 5.723zm28.704-9.81l-4.79 15.71h-4.4l-2.889-9.13h-.041l-2.771 9.13h-4.426l4.788-15.71h4.4l2.868 9.151h.041l2.8-9.151zm13.282 4.361l-4.427.247a1.77 1.77 0 00-2.016-2.046 2.153 2.153 0 00-1.33.371 1.238 1.238 0 00-.537.883.89.89 0 00.295.714 5.547 5.547 0 001.64.859 20.878 20.878 0 012.681 1.3 4.578 4.578 0 011.61 1.585 3.852 3.852 0 01.453 2.434 5.122 5.122 0 01-.989 2.552 6.5 6.5 0 01-2.328 1.952 8.834 8.834 0 01-4.047.768q-3.623 0-5-1.439a4.448 4.448 0 01-1.161-3.687l.035-.362 4.455-.313a2.625 2.625 0 00.427 2.075 2.212 2.212 0 001.684.605 2.764 2.764 0 001.757-.5 1.671 1.671 0 00.7-1.148 1.168 1.168 0 00-.289-.888 4.688 4.688 0 00-1.744-.954q-3.233-1.243-4.023-2.291a3.513 3.513 0 01-.644-2.529 4.782 4.782 0 01.971-2.466 5.455 5.455 0 012.3-1.732 8.732 8.732 0 013.409-.614q6.182 0 6.131 4.628zm8.008-4.361l-4.777 15.71h-4.768l4.778-15.71zm16.357 0l-1.151 3.86h-4.944l-3.625 11.851h-4.726l3.616-11.851h-4.729l1.162-3.86zm6.739 0l-4.777 15.71h-4.768l4.778-15.71zm33.82 0l-4.787 15.71h-4.4l-2.891-9.13h-.042l-2.772 9.13h-4.424l4.787-15.71h4.4l2.865 9.151h.042l2.794-9.151zm20.429 0l-4.787 15.71h-17.856l4.788-15.71zM38.671 26.158v-3.4H37.4v-.457h3.06v.457h-1.277v3.4zm11.141 0v-3.861h2.792v.457h-2.279v1.181h2.135v.454h-2.135v1.313h2.369v.456zm15.135-1.354l.512.131a1.734 1.734 0 01-.578.959 1.6 1.6 0 01-1.021.331 1.831 1.831 0 01-1.015-.254 1.591 1.591 0 01-.6-.735 2.606 2.606 0 01-.2-1.034 2.267 2.267 0 01.231-1.053 1.568 1.568 0 01.656-.683 1.916 1.916 0 01.937-.232 1.591 1.591 0 01.974.295 1.534 1.534 0 01.55.83l-.5.119a1.181 1.181 0 00-.392-.614 1.031 1.031 0 00-.642-.193 1.252 1.252 0 00-.743.213 1.142 1.142 0 00-.42.573 2.49 2.49 0 00.023 1.6 1.073 1.073 0 00.446.549 1.258 1.258 0 00.656.181 1.109 1.109 0 00.725-.246 1.258 1.258 0 00.4-.737zm9.866 1.354v-3.861h.51v1.586h2.008v-1.586h.51v3.861h-.51V24.34h-2.008v1.818zm12.381 0v-3.861h.525l2.029 3.032v-3.032h.485v3.861h-.523l-2.029-3.034v3.034zm15.862-2.962a1.659 1.659 0 00-.654-.711 1.851 1.851 0 00-.964-.255 1.758 1.758 0 00-1.334.543 2.1 2.1 0 00-.515 1.5 2.2 2.2 0 00.22.966 1.692 1.692 0 00.651.717 1.821 1.821 0 00.974.264 1.93 1.93 0 00.938-.237 1.634 1.634 0 00.671-.7 2.244 2.244 0 00.238-1.047 2.338 2.338 0 00-.225-1.04zm-.674 2.186a1.308 1.308 0 01-1.89 0 1.534 1.534 0 01-.377-1.1 1.655 1.655 0 01.392-1.243 1.3 1.3 0 01.933-.373 1.254 1.254 0 01.687.194 1.231 1.231 0 01.469.545 2 2 0 01.157.823 1.638 1.638 0 01-.371 1.154zm10.252.776v-3.861h.512v3.405h1.9v.456zm15.233-2.962a1.653 1.653 0 00-.654-.711 1.847 1.847 0 00-.965-.255 1.755 1.755 0 00-1.331.543 2.1 2.1 0 00-.516 1.5 2.189 2.189 0 00.222.966 1.685 1.685 0 00.65.717 1.823 1.823 0 00.974.264 1.926 1.926 0 00.937-.237 1.63 1.63 0 00.672-.7 2.261 2.261 0 00.235-1.047 2.317 2.317 0 00-.224-1.04zm-.674 2.186a1.309 1.309 0 01-1.891 0 1.547 1.547 0 01-.376-1.1 1.656 1.656 0 01.392-1.243 1.306 1.306 0 01.934-.373 1.263 1.263 0 01.688.194 1.219 1.219 0 01.465.545 1.973 1.973 0 01.161.823 1.641 1.641 0 01-.373 1.154zm12.186-.737v-.451h1.637v1.433a2.973 2.973 0 01-.779.452 2.282 2.282 0 01-.821.15 2.2 2.2 0 01-1.033-.243 1.62 1.62 0 01-.7-.705 2.207 2.207 0 01-.238-1.029 2.385 2.385 0 01.237-1.051 1.56 1.56 0 01.677-.727 2.142 2.142 0 011.019-.236 1.976 1.976 0 01.758.136 1.267 1.267 0 01.531.375 1.727 1.727 0 01.292.634l-.462.126a1.4 1.4 0 00-.217-.463.88.88 0 00-.367-.27 1.346 1.346 0 00-.531-.1 1.59 1.59 0 00-.607.106 1.167 1.167 0 00-.412.281 1.4 1.4 0 00-.243.382 2.014 2.014 0 00-.148.777 1.865 1.865 0 00.18.863 1.131 1.131 0 00.515.517 1.614 1.614 0 00.724.169 1.718 1.718 0 00.645-.127 1.668 1.668 0 00.48-.274v-.718zm10.99 1.513v-3.861h.51v3.861zm9.864 0v-3.861h2.792v.457h-2.282v1.181h2.14v.454h-2.14v1.313h2.37v.456zm12.233-1.24l.482-.041a1.026 1.026 0 00.16.473.834.834 0 00.386.3 1.575 1.575 0 001.109.029.692.692 0 00.333-.238.56.56 0 00.111-.33.492.492 0 00-.107-.316.744.744 0 00-.346-.229 7.046 7.046 0 00-.688-.19 3.449 3.449 0 01-.744-.239 1.05 1.05 0 01-.413-.359.9.9 0 01-.137-.483.979.979 0 01.167-.545 1.02 1.02 0 01.485-.384 1.808 1.808 0 01.707-.133 1.925 1.925 0 01.758.139 1.092 1.092 0 01.5.406 1.158 1.158 0 01.19.609l-.49.036a.78.78 0 00-.268-.552 1.026 1.026 0 00-.672-.187 1.077 1.077 0 00-.675.17.51.51 0 00-.212.409.447.447 0 00.15.344 2.085 2.085 0 00.771.275 5.363 5.363 0 01.854.243 1.208 1.208 0 01.5.395.969.969 0 01.16.551 1.045 1.045 0 01-.177.58 1.151 1.151 0 01-.507.425 1.75 1.75 0 01-.742.15 2.222 2.222 0 01-.881-.152 1.246 1.246 0 01-.555-.462 1.284 1.284 0 01-.211-.692z"/><path d="M184.543 5.921h.893l-.706 2.361-.174.582a1.162 1.162 0 00-.024.139.5.5 0 00.15.426.737.737 0 00.533.168 1.127 1.127 0 00.546-.121.925.925 0 00.357-.362 4.127 4.127 0 00.309-.815l.711-2.376h.893l-.708 2.379a5.205 5.205 0 01-.466 1.147 1.836 1.836 0 01-.678.647 2.134 2.134 0 01-1.072.249 1.538 1.538 0 01-1.131-.372 1.146 1.146 0 01-.316-.957 1.916 1.916 0 01.045-.265c.013-.063.064-.243.151-.54zm3.506 2.939l.854-.044a.889.889 0 00.093.548.837.837 0 00.7.232 1.078 1.078 0 00.649-.157.523.523 0 00.23-.38.371.371 0 00-.13-.327 2.821 2.821 0 00-.591-.317 5.6 5.6 0 01-.707-.366.965.965 0 01-.332-.381 1.039 1.039 0 01-.082-.548 1.3 1.3 0 01.48-.911 1.776 1.776 0 011.182-.362 1.642 1.642 0 011.153.359 1.2 1.2 0 01.375.955l-.86.039a.636.636 0 00-.184-.478.789.789 0 00-.554-.167.9.9 0 00-.542.131.455.455 0 00-.188.329.354.354 0 00.117.309 2.66 2.66 0 00.614.341 3.174 3.174 0 01.907.525.932.932 0 01.239.762 1.416 1.416 0 01-.545.984 1.976 1.976 0 01-1.3.407 2.222 2.222 0 01-.957-.188 1.019 1.019 0 01-.531-.524 1.5 1.5 0 01-.09-.771zm7.004.448h-1.723l-.61.961h-.92l2.85-4.348h.993l.318 4.348h-.85zm-.046-.724l-.094-1.751-1.207 1.756zm-13.438 7.755l1.3-4.349h.894l-1.3 4.349zm5.534 0h-.834l-.9-2.921-.885 2.921h-.835l1.315-4.349h.835l.906 2.91.881-2.91h.831zm4.531-1.567l.89.136a2.653 2.653 0 01-.9 1.12 2.2 2.2 0 01-1.274.387 1.483 1.483 0 01-1.2-.481 1.825 1.825 0 01-.318-1.394 3.244 3.244 0 01.427-1.357 2.519 2.519 0 01.925-.942 2.339 2.339 0 011.192-.327 1.543 1.543 0 011.106.378 1.391 1.391 0 01.416 1.031l-.865.083a.822.822 0 00-.22-.55.755.755 0 00-.527-.171 1.276 1.276 0 00-.714.225 1.747 1.747 0 00-.582.7 2.713 2.713 0 00-.281.957 1.1 1.1 0 00.174.806.724.724 0 00.6.285 1.1 1.1 0 00.658-.225 1.508 1.508 0 00.493-.661zm1.317.743h.843l-.249.822h-.842z" fill="#fff"/></g></svg>