<svg xmlns="http://www.w3.org/2000/svg" width="258.232" height="60.034"><path d="M0 3.882c.217-.465.4-.95.657-1.391A4.615 4.615 0 014.808.013q24.829-.024 49.659 0a4.868 4.868 0 014.806 4.855c.032 1.6.007 3.2.007 4.8v44.49c0 3.362-.922 4.7-4.051 5.879H3.694A6.16 6.16 0 010 56.158zm56.146 26.173V5.587c0-1.851-.573-2.423-2.421-2.423H5.619c-1.952 0-2.484.522-2.484 2.441v48.844c0 1.873.548 2.424 2.41 2.424h48.2c1.842 0 2.4-.569 2.4-2.442q.002-12.188.001-24.375z" fill="#5c277f"/><path d="M11.565 47.471c0 1.259.03 2.4-.009 3.53-.038 1.151-.562 1.767-1.507 1.888a1.628 1.628 0 01-1.94-1.776c-.026-2.154-.011-4.309-.011-6.463 0-2.185.011-4.37 0-6.555-.006-.862.16-1.622 1.063-1.945a1.629 1.629 0 012.144.731c.151.252.252.22.485.062 3.086-2.09 6.315-.885 7.14 2.684a11.644 11.644 0 01.016 5.13c-.786 3.59-4.138 4.88-7.381 2.714zm.008-5.2a6.232 6.232 0 00.263 2.09 1.758 1.758 0 001.762 1.23 1.72 1.72 0 001.753-1.24 6.841 6.841 0 000-4.255 1.72 1.72 0 00-1.753-1.241 1.768 1.768 0 00-1.767 1.226 6.6 6.6 0 00-.257 2.185zm13.57 6.301a8.925 8.925 0 01-4.2-1.025c-.986-.557-1.338-1.409-.931-2.2s1.315-.969 2.322-.424a7.072 7.072 0 002.238.814 3.5 3.5 0 001.64-.1.979.979 0 00.824-.968c0-.592-.407-.8-.887-.879-.908-.15-1.828-.234-2.735-.4-2.551-.454-3.8-2.389-3.1-4.77a3.37 3.37 0 012.22-2.294 7.718 7.718 0 016.169.364c.977.471 1.265 1.233.869 2.018-.367.728-1.075.91-2.067.488a5.769 5.769 0 00-2.861-.562c-.559.057-1.162.2-1.161.93 0 .68.571.786 1.1.893 1.052.216 2.139.2 3.178.514a3.253 3.253 0 012.612 2.965 3.707 3.707 0 01-1.74 3.707 6.741 6.741 0 01-3.49.929zm5.87-6.464c.082-.664.115-1.376.262-2.063a5.5 5.5 0 018.531-3.246 4.106 4.106 0 01.68.62 1.535 1.535 0 11-2.06 2.274c-.2-.146-.371-.326-.573-.466a1.947 1.947 0 00-3.1 1.181 8.5 8.5 0 00-.01 3.576 1.95 1.95 0 003.141 1.2c.276-.195.517-.443.8-.616a1.423 1.423 0 011.864.173 1.445 1.445 0 01.234 1.863 3.3 3.3 0 01-1.247 1.208 5.442 5.442 0 01-8.352-4.009c-.065-.549-.108-1.098-.17-1.695z" fill="#bf3070"/><path d="M46.81 52.832c-1.446 0-2.892.011-4.338 0-1.1-.011-1.726-.552-1.755-1.473-.03-.969.587-1.585 1.736-1.6q4.292-.04 8.585 0c1.139.012 1.754.65 1.707 1.622-.045.918-.667 1.437-1.78 1.446-1.385.015-2.77.005-4.155.005z" fill="#61af36"/><path d="M54.331.013H4.957A4.958 4.958 0 000 4.971V55.03a4.958 4.958 0 004.957 4.958h49.374a4.958 4.958 0 004.958-4.958V4.968A4.958 4.958 0 0054.331.013zm1.9 55.224a1.659 1.659 0 01-1.659 1.659H4.716a1.66 1.66 0 01-1.66-1.659V4.768a1.66 1.66 0 011.66-1.659h49.857a1.659 1.659 0 011.658 1.659z" fill="#5b257e"/><path d="M232.965 17.574q-1.859-2.472-6.34-2.475a16.353 16.353 0 00-3.392.356 10.448 10.448 0 00-3.478 1.541 12.562 12.562 0 00-3.131 2.922 15.714 15.714 0 00-2.1 3.711 15.087 15.087 0 00-.971 4.033c-.252 2.641.334 4.687 1.763 6.153s3.539 2.193 6.336 2.193a13.574 13.574 0 003.507-.449 11.658 11.658 0 003.573-1.779 12.588 12.588 0 003.195-3.242 14.242 14.242 0 001.851-3.7 15.637 15.637 0 00.692-3.178 8.422 8.422 0 00-1.505-6.086zm-4.421 6.061a14.2 14.2 0 01-.846 2.958 9.334 9.334 0 01-2.12 3.439 4.26 4.26 0 01-3.1 1.364 2.783 2.783 0 01-2.348-1.018 3.521 3.521 0 01-.631-2.567 13.771 13.771 0 01.94-3.537 8.908 8.908 0 012.121-3.322 4.2 4.2 0 012.972-1.251 2.935 2.935 0 012.342 1 3.779 3.779 0 01.67 2.934zM93.125 15.442l-1.482 4.967h-6.358l-4.666 15.25h-6.081l4.653-15.25h-6.085l1.5-4.967zm17.724 1.559q-1.185-1.557-4.071-1.559H95.631l-6.108 20.217h6.079l2.467-8.218h.322a1.98 1.98 0 011.282.412 8.39 8.39 0 011.348 3.013 100.863 100.863 0 011.425 4.792h6.403q-1.9-6.956-3.591-8.493a7.757 7.757 0 004.749-2.271 7.045 7.045 0 001.815-4.145 5.121 5.121 0 00-.973-3.748zm-4.828 4.192a2.675 2.675 0 01-1.89 2.191 15.432 15.432 0 01-3.762.279H99.22l1.239-4.121h3.076a3.293 3.293 0 012.112.441 1.421 1.421 0 01.375 1.21zm24.515 14.466l-1.163-20.217h-6.457l-13.015 20.217h6.52l1.846-3.312h6.39l-.053 3.312zm-9.877-7.6l4.077-7.364h.055l-.109 7.364zm36.938-12.617l-6.164 20.217h-5.667l-3.718-11.749h-.053l-3.569 11.749h-5.7l6.161-20.217h5.667l3.69 11.776h.053l3.6-11.776zm17.093 5.613l-5.7.318a2.279 2.279 0 00-2.6-2.633 2.772 2.772 0 00-1.711.477 1.591 1.591 0 00-.691 1.136 1.14 1.14 0 00.379.919 7.131 7.131 0 002.109 1.105 27.075 27.075 0 013.452 1.671 5.918 5.918 0 012.072 2.04 4.96 4.96 0 01.583 3.132 6.585 6.585 0 01-1.273 3.285 8.374 8.374 0 01-3 2.512 11.372 11.372 0 01-5.207.989q-4.664 0-6.439-1.851a5.727 5.727 0 01-1.493-4.745l.045-.465 5.734-.4a3.379 3.379 0 00.549 2.67 2.848 2.848 0 002.167.778 3.546 3.546 0 002.26-.648 2.149 2.149 0 00.9-1.477 1.505 1.505 0 00-.373-1.143 6.027 6.027 0 00-2.244-1.227q-4.161-1.6-5.178-2.949a4.522 4.522 0 01-.829-3.254 6.158 6.158 0 011.25-3.172 7.009 7.009 0 012.953-2.229 11.238 11.238 0 014.387-.791q7.954 0 7.89 5.956zm10.306-5.613l-6.147 20.217h-6.135l6.149-20.217zm21.049 0l-1.481 4.967h-6.362l-4.664 15.25h-6.082l4.654-15.25h-6.083l1.495-4.967zm8.67 0l-6.147 20.217h-6.135l6.149-20.217zm43.517 0l-6.161 20.217h-5.665l-3.721-11.749h-.054l-3.567 11.749h-5.693l6.161-20.217h5.669l3.687 11.776h.054l3.6-11.776zM76.171 44.889v-4.383h-1.636v-.588h3.938v.588h-1.644v4.38zm14.338 0v-4.968h3.592v.585h-2.937v1.52h2.747v.585h-2.747v1.695h3.049v.586zm19.478-1.743l.659.168a2.23 2.23 0 01-.743 1.234 2.048 2.048 0 01-1.314.426 2.349 2.349 0 01-1.306-.327 2.044 2.044 0 01-.767-.946 3.353 3.353 0 01-.263-1.331 2.921 2.921 0 01.3-1.355 2.023 2.023 0 01.844-.879 2.458 2.458 0 011.2-.3 2.052 2.052 0 011.254.379 1.974 1.974 0 01.708 1.068l-.646.153a1.521 1.521 0 00-.5-.789 1.326 1.326 0 00-.826-.248 1.616 1.616 0 00-.957.273 1.48 1.48 0 00-.54.737 3.2 3.2 0 00.03 2.063 1.388 1.388 0 00.574.706 1.623 1.623 0 00.844.233 1.424 1.424 0 00.933-.317 1.617 1.617 0 00.52-.949zm12.693 1.743v-4.968h.657v2.041h2.584v-2.041h.656v4.968h-.656v-2.34h-2.584v2.34zm15.934 0v-4.968h.676l2.611 3.9v-3.9h.628v4.968h-.674l-2.611-3.9v3.9zm20.411-3.811a2.127 2.127 0 00-.841-.915 2.385 2.385 0 00-1.241-.328 2.263 2.263 0 00-1.717.7 2.709 2.709 0 00-.662 1.936 2.826 2.826 0 00.284 1.243 2.163 2.163 0 00.836.922 2.345 2.345 0 001.254.34 2.491 2.491 0 001.208-.305 2.116 2.116 0 00.864-.906 2.9 2.9 0 00.305-1.348 3.009 3.009 0 00-.29-1.339zm-.867 2.813a1.684 1.684 0 01-2.433 0 1.977 1.977 0 01-.485-1.414 2.128 2.128 0 01.5-1.6 1.678 1.678 0 011.2-.48 1.611 1.611 0 01.885.249 1.572 1.572 0 01.6.7 2.582 2.582 0 01.2 1.058 2.111 2.111 0 01-.467 1.487zm13.193.998v-4.968h.658v4.385h2.448v.586zm19.603-3.811a2.124 2.124 0 00-.841-.915 2.379 2.379 0 00-1.242-.328 2.254 2.254 0 00-1.713.7 2.7 2.7 0 00-.664 1.936 2.809 2.809 0 00.285 1.243 2.156 2.156 0 00.837.922 2.341 2.341 0 001.253.34 2.481 2.481 0 001.207-.305 2.116 2.116 0 00.865-.906 2.91 2.91 0 00.3-1.348 2.984 2.984 0 00-.287-1.339zm-.866 2.813a1.686 1.686 0 01-2.434 0 2 2 0 01-.483-1.414 2.125 2.125 0 01.5-1.6 1.678 1.678 0 011.2-.48 1.622 1.622 0 01.885.249 1.567 1.567 0 01.6.7 2.561 2.561 0 01.206 1.058 2.12 2.12 0 01-.474 1.487zm15.682-.95v-.585h2.106V44.2a3.823 3.823 0 01-1 .583 2.946 2.946 0 01-1.056.193 2.824 2.824 0 01-1.33-.313 2.088 2.088 0 01-.9-.908 2.844 2.844 0 01-.307-1.325 3.068 3.068 0 01.306-1.353 2.009 2.009 0 01.871-.935 2.756 2.756 0 011.31-.3 2.563 2.563 0 01.976.175 1.647 1.647 0 01.684.483 2.223 2.223 0 01.376.817l-.6.162a1.8 1.8 0 00-.279-.6 1.134 1.134 0 00-.473-.347 1.725 1.725 0 00-.684-.13 2.049 2.049 0 00-.781.136 1.532 1.532 0 00-.53.361 1.814 1.814 0 00-.313.492 2.589 2.589 0 00-.19 1 2.393 2.393 0 00.231 1.111 1.454 1.454 0 00.663.664 2.077 2.077 0 00.932.218 2.205 2.205 0 00.831-.164 2.142 2.142 0 00.617-.353v-.924zm14.143 1.948v-4.968h.657v4.968zm12.694 0v-4.968h3.592v.585h-2.936v1.52h2.75v.585h-2.75v1.695h3.05v.586zm15.74-1.596l.621-.053a1.326 1.326 0 00.205.608 1.07 1.07 0 00.5.387 1.842 1.842 0 00.764.149 1.87 1.87 0 00.663-.111.894.894 0 00.427-.308.718.718 0 00.143-.425.625.625 0 00-.139-.406.954.954 0 00-.444-.294 9.1 9.1 0 00-.886-.245 4.36 4.36 0 01-.957-.308 1.34 1.34 0 01-.532-.461 1.158 1.158 0 01-.176-.623 1.265 1.265 0 01.216-.7 1.316 1.316 0 01.623-.5 2.35 2.35 0 01.911-.171 2.47 2.47 0 01.974.179 1.4 1.4 0 01.649.524 1.481 1.481 0 01.245.782l-.63.048a1.007 1.007 0 00-.346-.711 1.315 1.315 0 00-.865-.242 1.385 1.385 0 00-.868.219.654.654 0 00-.274.527.577.577 0 00.193.442 2.673 2.673 0 00.992.354 6.857 6.857 0 011.1.313 1.568 1.568 0 01.642.507 1.251 1.251 0 01.205.71 1.34 1.34 0 01-.228.746 1.48 1.48 0 01-.652.547 2.259 2.259 0 01-.954.193 2.888 2.888 0 01-1.134-.195 1.6 1.6 0 01-.714-.6 1.655 1.655 0 01-.272-.891z" fill="#1a1818" fill-rule="evenodd"/></svg>