<svg xmlns="http://www.w3.org/2000/svg" width="81.205" height="48" viewBox="0 0 81.205 48"><defs><style>.a,.b{fill:#446fc1;}.a{stroke:#47b8b3;stroke-linecap:round;stroke-linejoin:round;stroke-width:3px;}</style></defs><g transform="translate(-263.063 -222.865)"><g transform="translate(300.531 230.48)"><path class="a" d="M286.029,227.533" transform="translate(-286.029 -227.533)"/></g><g transform="translate(281.33 240.641)"><path class="b" d="M298.283,263.986a2.457,2.457,0,0,1-1.026-.225L281.331,256.4h-4.624a2.447,2.447,0,1,1,0-4.894h5.162a2.456,2.456,0,0,1,1.028.225l15.308,7.076,33.21-17.723a1.424,1.424,0,0,0,.8-.79,1.209,1.209,0,0,0-.023-.927,1.272,1.272,0,0,0-1.615-.61,2.349,2.349,0,0,1-.494.144l-27.931,4.994a2.447,2.447,0,1,1-.861-4.818L329,234.122a6.129,6.129,0,0,1,7.643,3.2,6.063,6.063,0,0,1,.161,4.681,6.139,6.139,0,0,1-3.225,3.469L299.435,263.7A2.432,2.432,0,0,1,298.283,263.986Z" transform="translate(-274.26 -233.761)"/></g><g transform="translate(263.063 235.497)"><rect class="b" width="19.845" height="24.621" transform="translate(2.448 2.447)"/><path class="b" d="M285.357,260.123H265.51a2.447,2.447,0,0,1-2.447-2.447v-24.62a2.447,2.447,0,0,1,2.447-2.447h19.847a2.447,2.447,0,0,1,2.447,2.447v24.62A2.447,2.447,0,0,1,285.357,260.123Zm-17.4-4.894H282.91V235.5H267.957Z" transform="translate(-263.063 -230.608)"/></g><g transform="translate(283.582 237.615)"><path class="b" d="M300.172,255.719a7.366,7.366,0,0,1-4.522-1.56l-7.913-6.836a2.447,2.447,0,1,1,3.2-3.7l7.81,6.751a2.418,2.418,0,0,0,1.775.427,1.9,1.9,0,0,0,1.276-.693,2.194,2.194,0,0,0-.121-2.454L289.716,236.8H278.087a2.447,2.447,0,0,1,0-4.894h12.574a2.45,2.45,0,0,1,1.645.635l12.841,11.649a2.328,2.328,0,0,1,.279.3,7.058,7.058,0,0,1,.308,8.524,6.805,6.805,0,0,1-4.539,2.632A7.2,7.2,0,0,1,300.172,255.719Z" transform="translate(-275.64 -231.906)"/></g><g transform="translate(307.114 222.866)"><path class="b" d="M297.859,235.822a26.564,26.564,0,0,0,4.589-4.225c2.064-2.41,2.336-3.623,2.375-4.456a3.457,3.457,0,0,0-.7-2.57c-1.121-1.124-3.7-.925-6.17.811-2.475-1.736-5.051-1.935-6.172-.811a3.466,3.466,0,0,0-.7,2.57c.044.91.357,2.069,2.375,4.456A29.419,29.419,0,0,0,297.859,235.822Z" transform="translate(-289.432 -222.231)"/><path class="b" d="M298.491,238.088a1.632,1.632,0,0,1-1-.344,31.242,31.242,0,0,1-4.651-4.46c-2.326-2.752-2.7-4.237-2.759-5.43a4.978,4.978,0,0,1,1.178-3.8c1.607-1.614,4.519-1.566,7.327.033,2.811-1.6,5.72-1.645,7.325-.033a4.978,4.978,0,0,1,1.178,3.8c-.055,1.157-.427,2.707-2.765,5.438a28.354,28.354,0,0,1-4.872,4.485A1.618,1.618,0,0,1,298.491,238.088Zm-4.08-11.959a1.233,1.233,0,0,0-.843.228c-.106.1-.274.418-.23,1.339.02.387.057,1.193,1.992,3.48a27.676,27.676,0,0,0,3.194,3.2,25.03,25.03,0,0,0,3.318-3.209c1.925-2.251,1.968-3.139,1.984-3.473.044-.922-.124-1.235-.228-1.341-.393-.392-2.09-.4-4.079,1a1.634,1.634,0,0,1-1.875,0A5.954,5.954,0,0,0,294.41,226.129Z" transform="translate(-290.064 -222.866)"/></g></g></svg>