<svg xmlns="http://www.w3.org/2000/svg" width="61.541" height="65.663" viewBox="0 0 61.541 65.663"><defs><style>.a{fill:#446fc1;}</style></defs><g transform="translate(-288.044 -108.644)"><g transform="translate(302.396 124.992)"><path class="a" d="M319.483,162.419H306.173a2.474,2.474,0,0,1-2.473-2.4l-.363-12.192a16.611,16.611,0,0,1-6.594-13.181,16.083,16.083,0,1,1,25.213,13.247v12.052A2.474,2.474,0,0,1,319.483,162.419Zm-10.907-4.949h8.433V146.525a2.476,2.476,0,0,1,1.26-2.156,11.141,11.141,0,1,0-16.575-9.723,12.5,12.5,0,0,0,.518,3.37,12.731,12.731,0,0,0,4.964,6.495,2.473,2.473,0,0,1,1.074,1.966Z" transform="translate(-296.744 -118.554)"/></g><g transform="translate(312.874 164.887)"><rect class="a" width="11.211" height="9.42" rx="1.5"/></g><g transform="translate(316.005 108.644)"><path class="a" d="M307.468,121.607a2.474,2.474,0,0,1-2.474-2.474v-8.014a2.474,2.474,0,0,1,4.949,0v8.014A2.474,2.474,0,0,1,307.468,121.607Z" transform="translate(-304.994 -108.644)"/></g><g transform="translate(329.876 113.825)"><path class="a" d="M315.876,122.4a2.475,2.475,0,0,1-1.749-4.225l5.666-5.666a2.474,2.474,0,0,1,3.5,3.5l-5.666,5.666A2.469,2.469,0,0,1,315.876,122.4Z" transform="translate(-313.403 -111.785)"/></g><g transform="translate(336.622 131.336)"><path class="a" d="M327.98,127.349h-8.014a2.474,2.474,0,0,1,0-4.949h8.014a2.474,2.474,0,1,1,0,4.949Z" transform="translate(-317.492 -122.4)"/></g><g transform="translate(288.044 131.336)"><path class="a" d="M298.532,127.349h-8.014a2.474,2.474,0,0,1,0-4.949h8.014a2.474,2.474,0,0,1,0,4.949Z" transform="translate(-288.044 -122.4)"/></g><g transform="translate(296.059 113.825)"><path class="a" d="M301.043,122.4a2.467,2.467,0,0,1-1.749-.726l-5.667-5.666a2.474,2.474,0,0,1,3.5-3.5l5.667,5.666a2.475,2.475,0,0,1-1.75,4.225Z" transform="translate(-292.902 -111.785)"/></g></g></svg>