<svg xmlns="http://www.w3.org/2000/svg" width="68.21" height="47.931" viewBox="0 0 68.21 47.931"><defs><style>.a{fill:#446fc1;}</style></defs><g transform="translate(-177.316 -112.948)"><g transform="translate(177.316 112.948)"><path class="a" d="M198.5,160.879c-.971,0-1.974-.032-3.023-.1a51.15,51.15,0,0,1-16.691-4.1,2.425,2.425,0,0,1-1.472-2.228V116.394a2.424,2.424,0,0,1,3.31-2.255,48.17,48.17,0,0,0,18.436,3.535,50.9,50.9,0,0,0,12.707-2.028,76.177,76.177,0,0,1,14.279-2.516,72.447,72.447,0,0,1,17.467.876,2.424,2.424,0,0,1,2.011,2.388v38.051a2.424,2.424,0,0,1-2.688,2.409,85.525,85.525,0,0,0-16.177-.237,96.217,96.217,0,0,0-14.314,2.346A60.334,60.334,0,0,1,198.5,160.879Zm-16.339-8.06a45.815,45.815,0,0,0,13.641,3.123c5.987.4,10.39-.577,15.491-1.711a101.875,101.875,0,0,1,14.978-2.446,90.86,90.86,0,0,1,14.407,0V118.465a67.378,67.378,0,0,0-14.284-.5,71.159,71.159,0,0,0-13.439,2.381,55.58,55.58,0,0,1-13.814,2.175,51.681,51.681,0,0,1-16.98-2.679Z" transform="translate(-177.316 -112.948)"/></g><g transform="translate(179.739 135.847)"><path class="a" d="M178.816,128.187A44.126,44.126,0,0,0,196,132.246c10.421.244,15.421-3.629,27.592-4.811a68.844,68.844,0,0,1,18.586.753v16.489l-13.948.627L207.2,149.732l-20.412-2.446-7.976-4.758Z" transform="translate(-178.816 -127.121)"/></g></g></svg>