<svg xmlns="http://www.w3.org/2000/svg" width="59.652" height="59.654" viewBox="0 0 59.652 59.654"><defs><style>.a,.b{fill:#446fc1;}.b{stroke:#446fc1;}</style></defs><g transform="translate(-225.69 -154.107)"><g transform="translate(225.69 154.107)"><path class="a" d="M255.516,213.761a29.827,29.827,0,1,1,29.826-29.826A29.859,29.859,0,0,1,255.516,213.761Zm0-53.339a23.512,23.512,0,1,0,23.511,23.513A23.538,23.538,0,0,0,255.516,160.422Z" transform="translate(-225.69 -154.107)"/></g><g transform="translate(228.127 160.626)"><path class="a" d="M256.028,201.441a5.024,5.024,0,0,1-1.476-.217,9.652,9.652,0,0,1-2.44-1.236c-.236-.152-.469-.305-.712-.442a16.745,16.745,0,0,0-4.557-1.486,17.789,17.789,0,0,1-6.385-2.37,10.384,10.384,0,0,1-3.732-12.062c.16-.41.349-.821.541-1.231a4.274,4.274,0,0,0,.642-2.078c-.166-.745-1.7-1.429-2.711-1.884a46.726,46.726,0,0,1-7.443-4.193,2.105,2.105,0,0,1,2.4-3.463,42.3,42.3,0,0,0,6.77,3.814c1.781.8,4.471,2,5.1,4.806a7.261,7.261,0,0,1-.933,4.774c-.154.328-.305.653-.434.979a6.253,6.253,0,0,0,2.187,7.064,14.425,14.425,0,0,0,4.943,1.739,20.089,20.089,0,0,1,5.713,1.937c.3.173.6.362.895.552a6.215,6.215,0,0,0,1.389.754.88.88,0,0,0,.3.038c0-.057,0-.133,0-.227a8.912,8.912,0,0,0-.825-3.644c-.158-.339-.335-.667-.514-1A11.014,11.014,0,0,1,253.42,189a11.394,11.394,0,0,1-.114-2.023,3.994,3.994,0,0,0-.177-1.648c-.112-.189-.5-.552-1.808-.848l-.541-.116a9.1,9.1,0,0,1-3.789-1.461,4.9,4.9,0,0,1-1.918-3.4,3.816,3.816,0,0,1,.945-2.968A5.162,5.162,0,0,1,247.9,175.3a2.884,2.884,0,0,0,.5-.244c.078-.055.474-.415.446-2.055l-.01-.429a8.159,8.159,0,0,1,.951-4.846,8.052,8.052,0,0,1,1.817-1.865c.223-.181.446-.358.65-.556a1.742,1.742,0,0,0,.255-.309,7.992,7.992,0,0,0-3.682-.461,12.982,12.982,0,0,1-4.968-.591,12.58,12.58,0,0,1-2.518-1.4c-.322-.217-.646-.434-.979-.625a2.409,2.409,0,0,0-1.726-.457,2.105,2.105,0,1,1-1.516-3.928,6.153,6.153,0,0,1,5.353.741c.41.238.808.5,1.2.766a9.086,9.086,0,0,0,1.682.97,9.744,9.744,0,0,0,3.4.318c1.918-.036,4.09-.063,6.056,1.177a4.283,4.283,0,0,1,1.625,1.737,4.433,4.433,0,0,1-1.267,5.094c-.291.282-.606.541-.924.8a4.721,4.721,0,0,0-.926.874,5.082,5.082,0,0,0-.28,2.459l.011.465c.044,2.623-.709,4.5-2.238,5.57a7.1,7.1,0,0,1-1.225.653c-.082.036-.185.082-.276.124a.758.758,0,0,0,.2.259,5.884,5.884,0,0,0,2.13.705l.6.128a6.819,6.819,0,0,1,4.509,2.821,7.034,7.034,0,0,1,.76,3.806,7.939,7.939,0,0,0,.055,1.3,7.619,7.619,0,0,0,.884,2.086c.215.4.425.8.615,1.2a13.124,13.124,0,0,1,1.221,5.378,4.829,4.829,0,0,1-.53,2.461A4.137,4.137,0,0,1,256.028,201.441Z" transform="translate(-226.848 -157.204)"/></g><g transform="translate(264.314 172.264)"><path class="a" d="M248.723,197.784a2.107,2.107,0,0,1-1.823-3.153A10.612,10.612,0,0,0,248.2,188c-.051-.387-.122-.773-.194-1.158a13.318,13.318,0,0,1-.309-3.347,14.065,14.065,0,0,1,.606-2.909,5.2,5.2,0,0,0,.358-2.743,6.076,6.076,0,0,0-1.676-1.93c-1.332-1.2-2.989-2.7-2.947-5.14.048-2.783,2.45-4.688,4.81-5.34a17.871,17.871,0,0,1,2.619-.465,12.582,12.582,0,0,0,2.233-.408,13.729,13.729,0,0,0,1.535-.644c1.478-.684,3.315-1.537,5.412-1.027a2.1,2.1,0,1,1-.994,4.09,4.89,4.89,0,0,0-2.65.758,17.859,17.859,0,0,1-2.012.829,15.9,15.9,0,0,1-3,.581,14.574,14.574,0,0,0-2.019.345c-.909.251-1.713.884-1.722,1.356-.011.524.754,1.215,1.56,1.945a9.116,9.116,0,0,1,2.825,3.661,8.493,8.493,0,0,1-.282,5.292,10.552,10.552,0,0,0-.455,2.042,9.824,9.824,0,0,0,.251,2.292c.084.457.166.911.227,1.366a14.85,14.85,0,0,1-1.823,9.281A2.107,2.107,0,0,1,248.723,197.784Z" transform="translate(-244.039 -162.732)"/></g><path class="a" d="M249.336,195.828V177.835l-4.2-7.94v-2.064l12.4-4.287,3.505,16.142Z" transform="translate(21.492 10.428)"/><path class="b" d="M227.026,170.142l13.04,8.01-1.906,9.965,6.352,6.193,13.021,3.652-2.223-9.528-.635-5.875-6.987-4.407,1.112-2.58L251.34,167l2.7-4.6L238,158.263Z" transform="translate(1.476 4.593)"/></g></svg>