<svg xmlns="http://www.w3.org/2000/svg" width="39" height="39" viewBox="0 0 10.319 10.319"><path class="b" d="M8.904 5.766a1.533 1.533 0 01-.327-.057 4.616 4.616 0 01-.638-.19.974.974 0 00-1.208.487l-.107.219a5.94 5.94 0 01-1.297-.974 5.94 5.94 0 01-.974-1.297l.204-.136a.974.974 0 00.488-1.208 5.024 5.024 0 01-.19-.638 3.62 3.62 0 01-.059-.332A1.462 1.462 0 003.336.428H1.875A1.461 1.461 0 00.4 1.875a1.49 1.49 0 00.013.214 9.255 9.255 0 008.047 8.016h.186a1.458 1.458 0 001.46-1.466V7.18a1.462 1.462 0 00-1.202-1.413zm.243 2.923a.487.487 0 01-.165.365.516.516 0 01-.4.122 8.281 8.281 0 01-7.165-7.2.531.531 0 01.121-.399.487.487 0 01.366-.165h1.461a.487.487 0 01.487.384q.03.2.073.395a5.437 5.437 0 00.224.755l-.682.317a.487.487 0 00-.24.646v.002a7.056 7.056 0 003.411 3.41.516.516 0 00.648-.254l.302-.682a6.717 6.717 0 00.77.224q.195.044.394.073a.487.487 0 01.385.487z" fill="#454545"/></svg>