<svg xmlns="http://www.w3.org/2000/svg" width="38" height="38" viewBox="0 0 10.054 10.054"><path class="b" d="M9.573 3.503v-.024a4.761 4.761 0 00-8.941 0v.024a4.694 4.694 0 000 3.2v.023a4.761 4.761 0 008.941 0v-.024a4.694 4.694 0 000-3.199zM1.407 6.055a3.72 3.72 0 010-1.905h.886a7.964 7.964 0 000 1.905zm.39.952h.667a5.785 5.785 0 00.476 1.224 3.805 3.805 0 01-1.142-1.224zm.667-3.81h-.666a3.806 3.806 0 011.128-1.223 5.786 5.786 0 00-.462 1.224zm2.152 5.571A3.019 3.019 0 013.46 7.006h1.157zm0-2.714H3.254a6.823 6.823 0 010-1.905h1.362zm0-2.857H3.46a3.019 3.019 0 011.157-1.762zm3.771 0h-.666a5.785 5.785 0 00-.476-1.224 3.805 3.805 0 011.142 1.225zm-2.819-1.76a3.019 3.019 0 011.157 1.761H5.568zm0 7.332V7.007h1.157A3.019 3.019 0 015.568 8.77zM6.93 6.055H5.568V4.15H6.93a6.823 6.823 0 010 1.905zm.328 2.177a5.785 5.785 0 00.476-1.224h.667a3.805 3.805 0 01-1.143 1.224zm1.519-2.176h-.885a7.768 7.768 0 00.057-.953 7.762 7.762 0 00-.057-.952h.885a3.72 3.72 0 010 1.904z" fill="#454545"/></svg>