<svg xmlns="http://www.w3.org/2000/svg" width="36" height="36" viewBox="0 0 9.525 9.525"><path class="a" d="M2.76 3.127h.927v-.138c.004-.389-.014-.78.016-1.167A1.773 1.773 0 014.576.328a1.94 1.94 0 01.953-.25c.513-.01 1.026 0 1.538 0a.377.377 0 01.047.006v1.611H6.08a.37.37 0 00-.419.362c-.017.351-.004.704-.004 1.067H7.15l-.171 1.67H5.653v4.708H3.69V4.796h-.93z" fill="#454545"/><path d="M3.72 7.132V4.776h-.936V3.141l.46-.009.459-.01-.01-.3c-.006-.165.004-.534.022-.819.026-.42.049-.56.117-.744.19-.503.576-.88 1.094-1.065.2-.072.272-.078 1.19-.088l.978-.011v1.574H6.54c-.864 0-.88.014-.908.779-.01.283-.009.554.003.603l.022.088h.735c.416 0 .734.014.734.03 0 .046-.13 1.302-.152 1.465l-.019.142H5.624v4.711H3.719z" fill="#454545"/><path d="M3.72 7.132V4.776h-.936V3.141l.451-.009.451-.01.016-.7c.008-.387.03-.778.048-.87A1.77 1.77 0 015.095.15C5.255.112 5.526.1 6.2.1h.894v1.569H6.54c-.856 0-.878.018-.907.743-.011.265-.01.537.003.604l.023.123h.734c.437 0 .733.013.733.032 0 .049-.13 1.304-.152 1.463l-.019.142H5.624v4.711H3.719z" fill="#454545"/><path d="M3.72 7.132V4.776h-.936V3.14h.892l.023-.751c.024-.76.057-.984.184-1.268.145-.323.5-.682.828-.838C5.043.124 5.237.1 6.2.1h.893v1.569H6.54c-.84 0-.873.027-.906.729a4.39 4.39 0 00.003.584l.023.157h.733c.403 0 .733.012.733.026 0 .06-.135 1.37-.153 1.486l-.02.125h-1.33v4.711H3.719z" fill="#454545"/><path d="M3.72 7.132V4.776h-.936V3.14h.892l.023-.751c.024-.76.057-.984.184-1.268.145-.323.5-.682.828-.838C5.043.124 5.237.1 6.2.1h.893v1.569l-.543.002c-.84.003-.877.03-.914.686a4.54 4.54 0 00.001.592l.024.19h.733c.611 0 .732.008.732.048 0 .061-.125 1.26-.151 1.447l-.02.142H5.624v4.711H3.719z" fill="#454545"/></svg>