<svg xmlns="http://www.w3.org/2000/svg" width="36" height="36" viewBox="0 0 9.525 9.525"><path class="a" d="M3.496 3.484h1.627v.68c.047-.053.07-.076.087-.1.496-.704 1.193-.889 1.999-.749a1.806 1.806 0 011.488 1.358 3.081 3.081 0 01.139.836c.017 1.08.008 2.16.009 3.241 0 .023-.004.045-.008.078H7.191v-.207c0-.91.003-1.82-.002-2.73a2.04 2.04 0 00-.05-.472c-.124-.505-.532-.757-1.124-.71a.976.976 0 00-.861.872c-.02.272-.015.546-.016.818-.002.74 0 1.479 0 2.218v.212h-1.64zm-2.678.033H2.44v5.31H.818zM1.6.783a.814.814 0 01.854.844.817.817 0 01-.85.832.806.806 0 01-.85-.827A.808.808 0 011.6.783z" fill="#2d2d2d"/><path d="M3.519 6.163V3.507H5.12l.01.342.01.342.166-.213c.409-.52.985-.746 1.7-.667.393.044.65.132.932.319.402.267.623.605.782 1.197l.09.334.013 1.829.013 1.829H7.194V7.188c0-1.39-.008-1.657-.053-1.809-.139-.467-.455-.683-1-.683-.428 0-.731.186-.92.566l-.082.166-.01 1.695-.01 1.696h-1.6z" fill="#2d2d2d"/><path d="M3.519 6.163V3.507H5.12l.01.339.01.338.16-.205c.403-.513 1.007-.75 1.708-.67.537.06.873.214 1.205.55.244.248.388.522.508.968l.09.334.012 1.829.013 1.829h-1.64l-.009-1.696-.01-1.695-.087-.184a.853.853 0 00-.464-.463c-.256-.119-.674-.12-.917-.003-.21.1-.382.272-.488.484l-.082.166-.01 1.695-.01 1.696h-1.6zM.846 6.18V3.54h1.571v5.28H.846z" fill="#2d2d2d"/><path d="M1.217 2.35c-.304-.152-.455-.43-.431-.797a.775.775 0 01.77-.743c.216-.013.262-.004.426.08.342.176.51.529.433.904-.109.523-.707.8-1.198.556zm2.302 3.813V3.507H5.12l.01.339.01.338.16-.205c.403-.513 1.007-.75 1.708-.67.537.06.873.214 1.205.55.238.241.382.512.506.95l.09.318.014 1.846.013 1.846h-1.64l-.009-1.696c-.01-1.688-.01-1.696-.087-1.862-.146-.317-.368-.484-.735-.55-.485-.088-.908.115-1.135.546l-.09.17-.01 1.696-.01 1.696H3.518zM.846 6.18V3.54h1.571v5.28H.846z" fill="#454545"/><path d="M1.446 2.406a.893.893 0 01-.515-.33C.836 1.94.83 1.912.83 1.622c0-.28.008-.32.092-.447.152-.23.324-.322.632-.336.278-.013.442.042.625.207.125.114.237.384.237.573 0 .19-.112.46-.237.574a.909.909 0 01-.733.213z" fill="#454545"/></svg>