<svg xmlns="http://www.w3.org/2000/svg" width="36" height="36" viewBox="0 0 9.525 9.525"><path class="a" d="M.458 7.581a3.607 3.607 0 002.6-.732 1.8 1.8 0 01-1.25-.559 1.512 1.512 0 01-.382-.665 1.86 1.86 0 00.75-.032 1.814 1.814 0 01-1.395-1.76 1.889 1.889 0 00.799.219 1.78 1.78 0 01-.77-1.347A1.697 1.697 0 011.043 1.7a5.054 5.054 0 003.642 1.843 1.81 1.81 0 01.005-.822 1.765 1.765 0 012.937-.859.159.159 0 00.17.048 3.688 3.688 0 00.909-.346c.028-.015.056-.03.109-.056a1.848 1.848 0 01-.728.954 3.519 3.519 0 00.943-.24 2.667 2.667 0 01-.664.736.439.439 0 00-.189.41A5.003 5.003 0 01.576 7.655c-.034-.018-.065-.04-.118-.075z" fill="#454545"/></svg>