<svg xmlns="http://www.w3.org/2000/svg" width="36" height="36" viewBox="0 0 9.525 9.525"><path class="a" d="M.07 5.561V4.108a.582.582 0 00.015-.08c.015-.256.027-.513.044-.77a3.507 3.507 0 01.199-1.041 1.111 1.111 0 01.887-.754 7.983 7.983 0 011.005-.086 64.7 64.7 0 012.196-.055c.824-.002 1.649.014 2.473.037.459.012.918.04 1.376.09a1.065 1.065 0 01.908.657 2.335 2.335 0 01.195.674c.057.542.093 1.086.11 1.63a18.19 18.19 0 01-.067 2.205 3.05 3.05 0 01-.203.9 1.114 1.114 0 01-.871.709 5.123 5.123 0 01-.722.07c-.82.03-1.64.063-2.462.071a51.12 51.12 0 01-2.114-.032A30.016 30.016 0 011.4 8.24a1.178 1.178 0 01-1.113-.888 5.385 5.385 0 01-.174-1.186c-.017-.202-.03-.402-.043-.604zm6.486-.718l-2.95-1.77v3.54z" fill="#454545"/></svg>