<svg xmlns="http://www.w3.org/2000/svg" width="468.454" height="455.77"><defs><style>.d,.k,.o{fill:none}.d,.e,.f,.g,.h,.j,.o{stroke:#404040}.d,.i,.j,.o{stroke-width:3.5px}.b,.e,.f,.h,.i,.u{fill:#fff}.c,.g,.j{fill:#29abe2}.d{stroke-miterlimit:4.004}.e,.o{stroke-linecap:round}.e,.f,.g,.h,.i,.j,.k,.o,.u,.x{stroke-miterlimit:10}.e,.g,.h,.k{stroke-width:2px}.f,.u{stroke-width:3px}.i,.k,.u{stroke:#454545}.l{fill:#454545}.x{fill:#132828;stroke:#142828}</style></defs><path d="M213.25 74.5l68 315m-215-226l312.646 150.818M423.25 74.5l-259 276" stroke-width="3.5" stroke-miterlimit="4.002" stroke="#404040" fill="none"/><g transform="translate(202.339 188.929)"><circle class="b" cx="46.065" cy="46.065" r="46.065" transform="translate(0 5.718)"/><circle class="c" cx="46.065" cy="46.065" r="46.065" transform="translate(14.867)"/><circle class="d" cx="46.065" cy="46.065" r="46.065" transform="translate(0 6.861)"/></g><g transform="translate(98.093 334.698)"><circle class="b" cx="33.666" cy="33.666" r="33.666" transform="translate(0 10.304)"/><circle class="c" cx="33.666" cy="33.666" r="33.666" transform="translate(12.021)"/><circle class="d" cx="33.666" cy="33.666" r="33.666" transform="translate(0 10.304)"/></g><g transform="translate(389.101 27.089)"><circle class="b" cx="33.666" cy="33.666" r="33.666" transform="translate(0 10.304)"/><circle class="c" cx="33.666" cy="33.666" r="33.666" transform="translate(12.021)"/><circle class="d" cx="33.666" cy="33.666" r="33.666" transform="translate(0 10.304)"/></g><g transform="translate(1.75 104.348)"><circle class="b" cx="35.912" cy="35.912" r="35.912" transform="translate(0 9.891)"/><circle class="c" cx="35.912" cy="35.912" r="35.912" transform="translate(11.54)"/><circle class="d" cx="35.912" cy="35.912" r="35.912" transform="translate(0 9.891)"/></g><g transform="translate(373.045 285.224)"><circle class="b" cx="35.912" cy="35.912" r="35.912" transform="translate(0 9.891)"/><circle class="c" cx="35.912" cy="35.912" r="35.912" transform="translate(11.54)"/><circle class="d" cx="35.912" cy="35.912" r="35.912" transform="translate(0 9.891)"/></g><g transform="translate(169.913)"><circle class="b" cx="35.912" cy="35.912" r="35.912" transform="translate(0 9.891)"/><circle class="c" cx="35.912" cy="35.912" r="35.912" transform="translate(11.54)"/><circle class="d" cx="35.912" cy="35.912" r="35.912" transform="translate(0 9.891)"/></g><g transform="translate(255.697 373.448)"><circle class="b" cx="35.912" cy="35.912" r="35.912" transform="translate(0 8.747)"/><circle class="c" cx="35.912" cy="35.912" r="35.912" transform="translate(12.683)"/><circle class="d" cx="35.912" cy="35.912" r="35.912" transform="translate(0 8.747)"/></g><g transform="translate(-1158.25 -2211)"><rect class="e" width="4.988" height="8.105" rx="1.964" transform="translate(1268.512 2577.836)"/><rect class="e" width="4.988" height="8.105" rx="1.964" transform="translate(1304.012 2577.836)"/><path class="f" d="M1296.05 2591.553h-14.34a9.04 9.04 0 110-18.081h14.34a9.04 9.04 0 110 18.081z"/><g transform="translate(1280.775 2579.083)"><circle class="g" cx="2.494" cy="2.494" r="2.494"/><circle class="g" cx="2.494" cy="2.494" transform="translate(11.223)" r="2.494"/></g><circle class="h" cx="2.494" cy="2.494" transform="translate(1286.387 2561.626)" r="2.494"/><path class="h" d="M1288.881 2565.99v7.482"/><path class="e" d="M1283.893 2587.188h9.976m-5.113 4.988v5.611"/><rect class="f" width="32.421" height="18.081" rx="7.119" transform="translate(1272.67 2596.06)"/></g><g transform="translate(-1166.25 -2296)"><rect class="i" width="25.444" height="25.444" rx="2.049" transform="translate(1445.494 2701.933)"/><path class="j" d="M1463.325 2722.038h-10.218a2.134 2.134 0 01-2.135-2.133v-10.219a2.134 2.134 0 012.135-2.133h7.226l5.129 5.13v7.224a2.132 2.132 0 01-2.135 2.132z"/><path class="k" d="M1451.404 2692.844v10.159"/><circle class="l" cx="2.54" cy="2.54" transform="translate(1448.845 2690.305)" r="2.54"/><circle class="l" cx="2.54" cy="2.54" transform="translate(1455.829 2685.225)" r="2.54"/><circle class="l" cx="2.54" cy="2.54" transform="translate(1462.814 2689.035)" r="2.54"/><path class="k" d="M1465.314 2692.646v10.358m-6.955-15.443v15.443m21.501 18.277h-9.427m9.427-13.91h-9.427"/><circle class="l" cx="2.54" cy="2.54" transform="translate(1477.321 2704.812)" r="2.54"/><circle class="l" cx="2.54" cy="2.54" transform="translate(1477.321 2718.781)" r="2.54"/><path class="k" d="M1484.94 2714.326h-14.507"/><circle class="l" cx="2.54" cy="2.54" transform="translate(1483.671 2711.796)" r="2.54"/><path class="k" d="M1465.334 2735.828v-8.696"/><circle class="l" cx="2.54" cy="2.54" transform="translate(1462.814 2733.288)" r="2.54"/><path class="k" d="M1458.408 2738.561v-11.429"/><circle class="l" cx="2.54" cy="2.54" transform="translate(1455.829 2737.292)" r="2.54"/><path class="k" d="M1451.395 2740.907v-13.775"/><circle class="l" cx="2.54" cy="2.54" transform="translate(1448.845 2739.638)" r="2.54"/><path class="k" d="M1437.642 2721.301h7.393"/><circle class="l" cx="2.54" cy="2.54" transform="translate(1435.102 2718.781)" r="2.54"/><path class="k" d="M1434.908 2707.391h10.127"/><circle class="l" cx="2.54" cy="2.54" transform="translate(1431.098 2704.812)" r="2.54"/><path class="k" d="M1431.292 2714.346h13.743"/><circle class="l" cx="2.54" cy="2.54" transform="translate(1427.482 2711.796)" r="2.54"/></g><path d="M40.355 157.372a4.674 4.674 0 01.13 1.1v1.567a4.9 4.9 0 01-9.794 0v-1.567a4.674 4.674 0 01.13-1.1 9.4 9.4 0 119.535 0z" stroke-miterlimit="10" stroke-linecap="round" fill="#fff" stroke-width="3.5" stroke="#404040"/><path d="M32.062 168.736h7.051m-6.659 2.837h6.267m-5.092 2.837h3.917" stroke-width="2.5" stroke-miterlimit="10" stroke-linecap="round" stroke="#404040" fill="none"/><path class="o" d="M35.588 129.004v5.484m-11.938-1.6l3.558 4.173m20.319-4.173l-3.558 4.173M18.348 141.268l5.271 1.514m29.208-1.514l-5.271 1.514"/><g transform="translate(-1267.25 -2311)"><path d="M1650.537 2643.471c1.642-1.65 10.868-12.092 25.41-11.958 15.368.144 24.7 10.319 26.156 11.958-1.256 1.517-10 11.717-24.662 11.958a34.92 34.92 0 01-26.904-11.958z" stroke-miterlimit="10" fill="#fff" stroke-width="3.5" stroke="#404040"/><circle class="j" cx="10.836" cy="10.836" transform="translate(1665.484 2632.636)" r="10.836"/><circle cx="5.231" cy="5.231" transform="translate(1671.089 2638.241)" fill="#404040" r="5.231"/><circle class="b" cx="3" cy="3" r="3" transform="translate(1676 2638)"/></g><g transform="translate(-1188.25 -2497)"><rect class="i" width="32.258" height="58.874" rx="3.051" transform="translate(1420 2709.667)"/><path stroke="#454545" stroke-width="2" stroke-miterlimit="10" stroke-linecap="round" fill="none" d="M1431.68 2714.267h8.899"/><path class="i" d="M1420 2720.327h32.258v36.152H1420z"/><path class="l" d="M1429.972 2736.274v2.164a6.718 6.718 0 016.709 6.7h2.164a8.883 8.883 0 00-8.873-8.864z"/><path class="l" d="M1429.972 2730.669v2.164a12.328 12.328 0 0112.317 12.311h2.164a14.491 14.491 0 00-14.481-14.475z"/><circle class="l" cx="1.334" cy="1.334" transform="translate(1429.973 2741.975)" r="1.334"/><circle cx="2.334" cy="2.334" transform="translate(1433.973 2760.505)" stroke="#454545" stroke-width="2" fill="#29abe2" r="2.334"/></g><g transform="translate(-1379.25 -2273)"><path class="u" d="M1800.824 2352.745a2.575 2.575 0 01-2.575 2.575h-13.673a2.575 2.575 0 01-2.576-2.575 2.576 2.576 0 012.576-2.576h13.673a2.576 2.576 0 012.575 2.576z"/><path d="M1807.419 2335.49a11.921 11.921 0 014.248 2.688 13.273 13.273 0 01-7.154 22.094c-7.064 1.075-11.872-4.671-12.1-4.951" stroke="#454545" stroke-width="3" stroke-miterlimit="10" fill="none"/><path class="u" d="M1807.831 2367.557h-10.573a2.138 2.138 0 01-1.48-3.684 9.927 9.927 0 0113.505-.029 2.142 2.142 0 01-1.452 3.713z"/><rect class="u" width="8" height="18" rx="2.237" transform="rotate(36.414 -2627.5 3909.196)"/><circle cx="3" cy="3" r="3" transform="translate(1805.413 2332.617)" stroke="#454545" stroke-width="3" stroke-miterlimit="10" fill="#29abe2"/><circle class="l" cx="3" cy="3" r="3" transform="translate(1809.413 2319.617)"/></g><path class="b" d="M221.37 49.18a5.808 5.808 0 011.05 3.35 5.933 5.933 0 01-3.03 5.17 7 7 0 01.05.8 9.018 9.018 0 01-16.35 5.94 10.528 10.528 0 01-16.36-5.94 7.009 7.009 0 01.05-.8 5.953 5.953 0 01-3.03-5.17 5.808 5.808 0 011.05-3.35 5.9 5.9 0 01.71-7.56 5.826 5.826 0 01-.27-1.76 5.922 5.922 0 014.79-5.8 4.456 4.456 0 012.37-5.72c2.63-2.09 5.5-3.34 7.71-3.34a3.67 3.67 0 012.98 1.53 3.656 3.656 0 012.98-1.53c2.2 0 5.07 1.25 7.7 3.34a4.422 4.422 0 012.37 5.72 5.912 5.912 0 014.79 5.8 5.826 5.826 0 01-.27 1.76 5.9 5.9 0 01.71 7.56z"/><path class="x" d="M210.563 45.727a3.033 3.033 0 002.958 2.382.7.7 0 110 1.4 4.433 4.433 0 01-4.375-3.764 5.856 5.856 0 01-3.577-1.74.7.7 0 011-.978 4.519 4.519 0 007.747-3.162.7.7 0 111.4 0 5.923 5.923 0 01-5.153 5.862zm-2.958 6.062a.7.7 0 01.7-.7 5.924 5.924 0 015.917 5.918v.1a5.881 5.881 0 01.792-.055.7.7 0 110 1.4 4.523 4.523 0 00-4.518 4.519.7.7 0 01-1.4 0 5.926 5.926 0 013.7-5.485 4.741 4.741 0 00.024-.478 4.524 4.524 0 00-4.518-4.519.7.7 0 01-.697-.7z"/><path class="x" d="M184.797 49.177a5.858 5.858 0 00-1.045 3.357 5.926 5.926 0 003.03 5.163 9.051 9.051 0 0016.3 6.747 10.526 10.526 0 0016.353-5.947 6.9 6.9 0 00-.048-.8 5.925 5.925 0 003.029-5.163 5.9 5.9 0 010-6.708 5.9 5.9 0 01-1.491-5.963 5.924 5.924 0 00-4.789-5.807 4.43 4.43 0 00-2.368-5.715c-2.627-2.092-5.5-3.339-7.7-3.339a3.679 3.679 0 00-2.982 1.526 3.675 3.675 0 00-2.98-1.526c-2.206 0-5.08 1.247-7.705 3.339a4.43 4.43 0 00-2.369 5.715 5.928 5.928 0 00-4.79 5.807 5.776 5.776 0 00.271 1.756 5.9 5.9 0 00-.716 7.558zm18.988 12.3a5.269 5.269 0 013.9-5.078.7.7 0 00-.361-1.35 6.641 6.641 0 00-3.536 2.354v-16.8a2.286 2.286 0 012.283-2.283.7.7 0 100-1.4 3.66 3.66 0 00-2.283.8v-9.043a2.285 2.285 0 012.283-2.282 10.139 10.139 0 014.941 1.7 4.454 4.454 0 00-2.96 2.372.7.7 0 001.257.612 3.03 3.03 0 013.8-1.511.626.626 0 00.122.048 3.038 3.038 0 011.833 2.783 2.979 2.979 0 01-.428 1.55 5.926 5.926 0 00-5.536 5.9.7.7 0 001.4 0 4.518 4.518 0 118.7 1.7.693.693 0 00.2.8 4.518 4.518 0 01-2.9 7.988.7.7 0 000 1.4 5.9 5.9 0 003.909-1.478 4.516 4.516 0 01-2.077 6.4.7.7 0 00-.4.78 5.409 5.409 0 01.1 1.055 5.269 5.269 0 01-3.894 5.078.7.7 0 00-.436.35 5.264 5.264 0 01-9.925-2.445zm-18.634-8.946a4.479 4.479 0 01.61-2.27 5.9 5.9 0 003.909 1.478.7.7 0 000-1.4 4.52 4.52 0 01-2.9-7.988.69.69 0 00.2-.8 4.519 4.519 0 118.707-1.7.7.7 0 001.4 0 5.927 5.927 0 00-5.538-5.9 2.986 2.986 0 01-.426-1.55 3.035 3.035 0 011.833-2.783.582.582 0 00.122-.048 3.03 3.03 0 013.8 1.511.7.7 0 001.257-.612 4.458 4.458 0 00-2.962-2.372 10.155 10.155 0 014.944-1.7 2.283 2.283 0 012.281 2.282v6.062a3.657 3.657 0 00-2.281-.8.7.7 0 100 1.4 2.284 2.284 0 012.281 2.283v23.082a.72.72 0 00.027.186 7.094 7.094 0 00-.027.585 5.262 5.262 0 01-9.923 2.445.7.7 0 00-.437-.35 5.257 5.257 0 01-3.789-6.133.7.7 0 00-.4-.78 4.521 4.521 0 01-2.688-4.125z"/><path class="x" d="M191.16 47.984a3.032 3.032 0 002.957-2.382 5.922 5.922 0 01-5.146-5.864.7.7 0 111.4 0 4.519 4.519 0 007.747 3.162.7.7 0 011 .979 5.865 5.865 0 01-3.578 1.739 4.434 4.434 0 01-4.376 3.764.7.7 0 110-1.4zm.996 8.199a5.962 5.962 0 01.794.055v-.1a5.924 5.924 0 015.918-5.915.7.7 0 110 1.4 4.523 4.523 0 00-4.518 4.519 4.787 4.787 0 00.023.481 5.924 5.924 0 013.7 5.484.7.7 0 01-1.4 0 4.524 4.524 0 00-4.518-4.519.7.7 0 110-1.4z"/></svg>