<svg xmlns="http://www.w3.org/2000/svg" width="64.587" height="228.413"><defs><style>.a{fill:#fff}.d{fill:#454545}</style></defs><g transform="translate(-282.978 -2547)"><path class="a" d="M283.728 2637v1.235a3 3 0 003 3h2.227a2 2 0 012 2v108.633a21.691 21.691 0 1043.382 0v-108.633a2 2 0 012-2h2.228a3 3 0 003-3V2637a3 3 0 00-3-3h-51.837a3 3 0 00-3 3zm43.379 10.906v29.17a6.671 6.671 0 01-6.671 6.671h-15.579a6.671 6.671 0 01-6.671-6.671v-29.17a6.671 6.671 0 016.671-6.671h15.579a6.671 6.671 0 016.671 6.671z"/><path d="M289.728 2631v1.235a3 3 0 003 3h2.227a2 2 0 012 2v108.633a21.691 21.691 0 1043.382 0v-108.633a2 2 0 012-2h2.228a3 3 0 003-3V2631a3 3 0 00-3-3h-51.837a3 3 0 00-3 3zm43.379 10.906v29.17a6.671 6.671 0 01-6.671 6.671h-15.579a6.671 6.671 0 01-6.671-6.671v-29.17a6.671 6.671 0 016.671-6.671h15.579a6.671 6.671 0 016.671 6.671z" fill="#29abe2"/><path d="M284.728 2637v1.235a3 3 0 003 3h2.227a2 2 0 012 2v108.633a21.691 21.691 0 1043.382 0h0v-108.633a2 2 0 012-2h2.228a3 3 0 003-3V2637a3 3 0 00-3-3h-51.837a3 3 0 00-3 3zm43.379 10.906v29.17a6.671 6.671 0 01-6.671 6.671h-15.579a6.671 6.671 0 01-6.671-6.671v-29.17a6.671 6.671 0 016.671-6.671h15.579a6.671 6.671 0 016.671 6.671z" fill="none" stroke="#454545" stroke-miterlimit="10" stroke-width="3.5"/><path class="d" d="M319.489 2620.433a4.515 4.515 0 113.356-.17 4.516 4.516 0 01-3.356.17zm-9.75 47.567a5.907 5.907 0 01-2.121-1.279 5.7 5.7 0 01-1.411-2.045 5.915 5.915 0 019.172-6.889 5.771 5.771 0 011.569 1.928 5.926 5.926 0 01-7.211 8.289z"/><path class="a" d="M319.144 2713.079a7.262 7.262 0 01-2.618-1.578 7.051 7.051 0 01-1.742-2.525 7.3 7.3 0 114.36 4.1z"/><path class="d" d="M324.213 2573.253a2.052 2.052 0 11.766-1.322 2.054 2.054 0 01-.766 1.322zm-17.753 24.368a3.482 3.482 0 01-1.311.638 3.388 3.388 0 01-1.462.041 3.485 3.485 0 01-1.522-6.172 3.433 3.433 0 011.06-.563 3.389 3.389 0 011.455-.157 3.489 3.489 0 011.783 6.221z"/><circle class="d" cx="1.5" cy="1.5" r="1.5" transform="translate(301.728 2547)"/><circle class="a" cx="4.5" cy="4.5" r="4.5" transform="translate(303.728 2732)"/></g></svg>