<svg xmlns="http://www.w3.org/2000/svg" width="95.493" height="63.146"><defs><style>.a{fill:#454545}.b{fill:#fff}.c{fill:#29abe2}.d{fill:none;stroke:#454545;stroke-miterlimit:10;stroke-width:2.794px}</style></defs><g transform="translate(-1246.812 -630)"><path class="a" d="M1323.61 637.237v2.8a8.672 8.672 0 018.662 8.654h2.794a11.471 11.471 0 00-11.456-11.454z"/><circle class="a" cx="2.464" cy="2.464" r="2.464" transform="translate(1323.609 643.758)"/><path class="a" d="M1323.61 630v2.794a15.918 15.918 0 0115.9 15.9h2.795A18.711 18.711 0 001323.61 630z"/><path class="b" d="M1250.942 643.701h59.353a3.112 3.112 0 012.937 3.262v36.511a3.114 3.114 0 01-2.937 3.264h-59.354a3.112 3.112 0 01-2.938-3.264v-36.511a3.112 3.112 0 012.939-3.262z"/><path class="b" d="M1250.495 686.65h60.249a2.49 2.49 0 012.49 2.49 2.49 2.49 0 01-2.49 2.49h-60.249a2.489 2.489 0 01-2.49-2.49 2.49 2.49 0 012.49-2.49z"/><path class="c" d="M1256.942 638.701h59.353a3.112 3.112 0 012.937 3.262v36.511a3.114 3.114 0 01-2.937 3.264h-59.354a3.112 3.112 0 01-2.938-3.264v-36.511a3.112 3.112 0 012.939-3.262z"/><path class="c" d="M1256.495 681.65h60.249a2.49 2.49 0 012.49 2.49 2.49 2.49 0 01-2.49 2.49h-60.249a2.489 2.489 0 01-2.49-2.49 2.49 2.49 0 012.49-2.49z"/><path class="d" d="M1251.151 643.819h59.354a3.114 3.114 0 012.938 3.264V683.6a3.114 3.114 0 01-2.938 3.264h-59.354a3.112 3.112 0 01-2.937-3.264v-36.515a3.113 3.113 0 012.937-3.266z"/><path class="d" d="M1250.704 686.769h60.249a2.49 2.49 0 012.49 2.49 2.49 2.49 0 01-2.49 2.49h-60.249a2.489 2.489 0 01-2.49-2.49 2.49 2.49 0 012.49-2.49z"/><path stroke-linecap="round" stroke-width="2.794" fill="none" stroke="#454545" stroke-miterlimit="10" d="M1255.322 648.799v9.418"/><path d="M1274.095 659.459l-4.933 4.933 5.023 5.023m13.373-9.956l4.933 4.933-5.023 5.023m-3.803-9.956l-4.289 9.956" stroke-linecap="round" stroke-width="2.395" fill="none" stroke="#454545" stroke-miterlimit="10"/></g></svg>