<svg xmlns="http://www.w3.org/2000/svg" width="577.525" height="345.874"><defs><style>.d{fill:#fff}.b{fill:#29abe2}.c{fill:none}.c,.i{stroke:#454545;stroke-miterlimit:10;stroke-width:3.5px}.e,.i{fill:#eaeaea}</style></defs><path d="M83.189 234.786l11.626-5a3.413 3.413 0 00.617-.342c2.312-1.628 3.417-3.2 3.417-3.507l-.059-83.245a3.716 3.716 0 00-3.714-3.708h-13.4a3.71 3.71 0 00-3.707 3.708l.5 88.809a3.71 3.71 0 001.428 2.928 3.263 3.263 0 003.292.357zm126.224 20.331l-12.128-30.122a3.363 3.363 0 00-4.931-1.581l-48.169 30.7a3.365 3.365 0 01-4.646-1.03 3.282 3.282 0 01-.291-.57l-10.71-26.991a3.364 3.364 0 00-4.9-1.622l-48.75 30.118a3.368 3.368 0 01-4.906-1.644L59.121 224.44a3.367 3.367 0 00-5.016-1.573l-50.754 34.14a3.367 3.367 0 00-1.487 2.793v62.841s0 3.241 3.863 3.241h200.33c.62-.156 3.713-.156 3.713-3.552l-.113-65.968a3.383 3.383 0 00-.245-1.245zM57.32 298.126a7.08 7.08 0 01-7.078 7.08h-20.45a7.083 7.083 0 01-7.082-7.083v-20.886a7.076 7.076 0 017.076-7.076h20.451a7.079 7.079 0 017.079 7.079zm69.455 0a7.084 7.084 0 01-7.082 7.083H99.03a7.076 7.076 0 01-7.076-7.076v-20.9a7.076 7.076 0 017.076-7.076h20.672a7.075 7.075 0 017.073 7.074zm69.12-.217a7.077 7.077 0 01-7.076 7.077h-20.452a7.077 7.077 0 01-7.076-7.077v-20.672a7.076 7.076 0 017.076-7.076h20.455a7.073 7.073 0 017.073 7.073zm-43.051-63.028l11.689-8.265a2.888 2.888 0 01.273-.173c2.123-1.2 3.565-2.231 3.565-3.627l-.276-45.107a3.713 3.713 0 00-3.711-3.71h-12.961a3.709 3.709 0 00-3.707 3.71l-.156 54.569a3.515 3.515 0 00.025.433 3.335 3.335 0 005.259 2.167z" fill-rule="evenodd" fill="#fff"/><path class="b" d="M293.948 46.754a17.005 17.005 0 013.923-30.875h.008a16.919 16.919 0 0112.6 1.182 21.708 21.708 0 0142.017-1.514 21.7 21.7 0 01-10.637 25.338 18.1 18.1 0 01-22.068 21.69 15.193 15.193 0 01-28.092-2.6 15.169 15.169 0 012.249-13.221z"/><path class="c" d="M288.259 55.554a17 17 0 013.923-30.874h.006a16.929 16.929 0 0112.6 1.181 21.709 21.709 0 0142.017-1.514 21.7 21.7 0 01-10.636 25.339 18.093 18.093 0 01-22.068 21.688 15.193 15.193 0 01-28.092-2.6 15.166 15.166 0 012.25-13.22z"/><path class="d" d="M565.57 228.331l-74.81-.39 9.39 101.84a7.415 7.415 0 01-6.7 8.068 7.718 7.718 0 01-.68.032H428.8a7.414 7.414 0 01-7.411-7.419c0-.227.01-.453.031-.68l14.37-155.9c-31.73-.03-23.42-.6-58.1-.63a2.954 2.954 0 01-1.22-5.64c19.45-8.91 42.24-19.32 62.54-28.62l7.98-86.58a7.412 7.412 0 017.38-6.73h12.83a7.412 7.412 0 017.38 6.73l1.03 11.13c20.45 6.85 44.76 15.12 64.52 21.72a2.95 2.95 0 011.872 3.728 2.952 2.952 0 01-2.8 2.021l-61.07-.11 9.6 104.07c25.46 8.91 53.57 18.78 78.81 27.62a2.952 2.952 0 01-.972 5.74z"/><path class="b" d="M574.57 220.331l-74.81-.39 9.39 101.84a7.415 7.415 0 01-6.7 8.068 7.718 7.718 0 01-.68.032H437.8a7.414 7.414 0 01-7.411-7.419c0-.227.01-.453.031-.68l14.37-155.9c-31.73-.03-23.42-.6-58.1-.63a2.954 2.954 0 01-1.22-5.64c19.45-8.91 42.24-19.32 62.54-28.62l7.98-86.58a7.412 7.412 0 017.38-6.73h12.83a7.412 7.412 0 017.38 6.73l1.03 11.13c20.45 6.85 44.76 15.12 64.52 21.72a2.95 2.95 0 011.872 3.728 2.952 2.952 0 01-2.8 2.021l-61.07-.11 9.6 104.07c25.46 8.91 53.57 18.78 78.81 27.62a2.952 2.952 0 01-.972 5.74z"/><path class="c" d="M492.771 337.881H428.8a7.415 7.415 0 01-7.414-7.416c0-.226.011-.453.031-.679L446.992 52.41a7.416 7.416 0 017.383-6.734h12.822a7.415 7.415 0 017.383 6.734l25.574 277.374a7.415 7.415 0 01-6.7 8.064 6.789 6.789 0 01-.683.033z"/><path class="c" d="M474.348 337.881h-27.125l6.791-292.2h13.61zM478.63 91.01h60.569a2.951 2.951 0 002.954-2.948 2.954 2.954 0 00-2.02-2.8l-64.177-21.391m32.734 11.171V91.01m4.79-14.371V91.01m-21.85 137.319h73.938a2.953 2.953 0 002.954-2.95 2.954 2.954 0 00-1.979-2.789l-79.406-27.793m21.553 7.184v26.347m9.58-22.354v22.355m20.76-15.169v15.169m5.582-14.375v14.371"/><path class="c" d="M449.13 47.381c9.847 9.846 16.534 17.99 26.38 27.837-11.443 11.443-21.29 22.886-32.733 34.33 13.572 13.572 25.548 27.144 39.12 40.716-16.766 16.766-30.338 33.532-47.1 50.3 20.226 20.225 37.258 41.249 57.483 61.474-23.951 23.951-45.2 49.394-69.146 73.345"/><path class="c" d="M472.13 47.381c-9.847 9.846-15.914 17.99-25.76 27.837 11.443 11.443 21.29 22.886 32.733 34.33-13.572 13.572-25.548 27.144-39.12 40.716 16.766 16.766 30.338 33.532 47.1 50.3-20.226 20.225-37.258 41.249-57.483 61.474 23.951 23.951 44.575 49.394 68.526 73.345M436.13 173.381c-35.441 0-22.658-.1-58.444-.134a2.952 2.952 0 01-1.217-5.638c20.94-9.587 40.911-18.713 62.316-28.522m-33.883 15.794v18.362m6.387-21.562v21.556"/><path class="e" d="M88.949 91.887a13.394 13.394 0 0112.547-23.651 17.1 17.1 0 0133.071-1.858 17.1 17.1 0 01-7.979 20.126 14.255 14.255 0 01-17.042 17.434 11.968 11.968 0 01-22.168-1.607 11.952 11.952 0 011.571-10.444z"/><path class="c" d="M82.194 99.716a13.394 13.394 0 0112.547-23.651 17.1 17.1 0 0133.071-1.855v.005a17.1 17.1 0 01-7.979 20.126 14.255 14.255 0 01-17.042 17.434 11.968 11.968 0 01-22.168-1.608 11.949 11.949 0 011.571-10.451z"/><path class="e" d="M174.025 129.738a12.62 12.62 0 012.455-22.968 12.559 12.559 0 019.365.689 16.111 16.111 0 0131.154-1.749 16.107 16.107 0 01-7.516 18.96 13.428 13.428 0 01-16.055 16.423 11.277 11.277 0 11-19.409-11.357z"/><path class="c" d="M164.854 135.21a12.619 12.619 0 012.456-22.968 12.552 12.552 0 019.366.689 16.113 16.113 0 0131.157-1.752v.006a16.107 16.107 0 01-7.516 18.959 13.43 13.43 0 01-16.055 16.424 11.274 11.274 0 01-20.882-1.514 11.255 11.255 0 011.474-9.844z"/><path d="M91.189 223.786l11.626-5a3.413 3.413 0 00.617-.342c2.312-1.628 3.417-3.2 3.417-3.507l-.059-83.245a3.716 3.716 0 00-3.714-3.708h-13.4a3.71 3.71 0 00-3.707 3.708l.5 88.809a3.71 3.71 0 001.428 2.928 3.263 3.263 0 003.292.357zm126.224 20.331l-12.128-30.122a3.363 3.363 0 00-4.931-1.581l-48.169 30.7a3.365 3.365 0 01-4.646-1.03 3.282 3.282 0 01-.291-.57l-10.71-26.991a3.364 3.364 0 00-4.9-1.622l-48.75 30.118a3.369 3.369 0 01-4.906-1.644L67.121 213.44a3.367 3.367 0 00-5.016-1.573l-50.754 34.14a3.367 3.367 0 00-1.487 2.793v62.841s0 3.241 3.863 3.241h200.33c.62-.156 3.713-.156 3.713-3.552l-.113-65.968a3.383 3.383 0 00-.245-1.245zM65.32 287.126a7.08 7.08 0 01-7.078 7.08h-20.45a7.083 7.083 0 01-7.082-7.083v-20.886a7.076 7.076 0 017.076-7.076h20.451a7.079 7.079 0 017.079 7.079zm69.455 0a7.084 7.084 0 01-7.082 7.083H107.03a7.076 7.076 0 01-7.076-7.076v-20.9a7.076 7.076 0 017.076-7.076h20.672a7.075 7.075 0 017.073 7.074zm69.12-.217a7.077 7.077 0 01-7.076 7.077h-20.452a7.077 7.077 0 01-7.076-7.077v-20.672a7.076 7.076 0 017.076-7.076h20.455a7.073 7.073 0 017.073 7.073zm-43.051-63.028l11.689-8.265a2.888 2.888 0 01.273-.173c2.123-1.2 3.565-2.231 3.565-3.627l-.276-45.107a3.713 3.713 0 00-3.711-3.71h-12.961a3.709 3.709 0 00-3.707 3.71l-.156 54.569a3.515 3.515 0 00.025.433 3.335 3.335 0 005.259 2.167z" fill="#eaeaea" fill-rule="evenodd"/><path class="c" d="M83.075 234.254l11.626-5a3.552 3.552 0 00.618-.342c2.311-1.628 3.416-3.2 3.416-3.508l-.059-83.245a3.716 3.716 0 00-3.714-3.7h-13.4a3.709 3.709 0 00-3.707 3.707l.5 88.81a3.711 3.711 0 001.428 2.928 3.266 3.266 0 003.292.35zm126.224 20.33l-12.127-30.121a3.366 3.366 0 00-4.38-1.866 3.313 3.313 0 00-.552.284l-48.168 30.7a3.364 3.364 0 01-4.938-1.6l-10.71-26.99a3.366 3.366 0 00-4.368-1.89 3.418 3.418 0 00-.532.268l-48.749 30.118a3.367 3.367 0 01-4.634-1.1 3.3 3.3 0 01-.273-.548l-10.861-27.935a3.367 3.367 0 00-4.359-1.917 3.312 3.312 0 00-.657.343L3.237 256.477a3.361 3.361 0 00-1.487 2.792v62.842s0 3.24 3.863 3.24H205.94c.62-.155 3.713-.155 3.713-3.551l-.113-65.968a3.4 3.4 0 00-.241-1.252zm-152.093 43.01a7.08 7.08 0 01-7.078 7.08H29.679a7.083 7.083 0 01-7.083-7.083v-20.886a7.076 7.076 0 017.077-7.076h20.454a7.079 7.079 0 017.079 7.079zm69.455 0a7.083 7.083 0 01-7.081 7.083H98.912a7.077 7.077 0 01-7.076-7.077v-20.9a7.076 7.076 0 017.076-7.076h20.672a7.074 7.074 0 017.073 7.073zm69.12-.217a7.077 7.077 0 01-7.075 7.077h-20.452a7.075 7.075 0 01-7.077-7.075v-20.673a7.076 7.076 0 017.076-7.076h20.459a7.073 7.073 0 017.073 7.073zm-43.051-63.028l11.689-8.265a3.25 3.25 0 01.274-.174c2.122-1.2 3.564-2.23 3.564-3.627l-.276-45.106a3.712 3.712 0 00-3.71-3.71h-12.959a3.709 3.709 0 00-3.707 3.71l-.156 54.569a3.515 3.515 0 00.025.433 3.335 3.335 0 005.259 2.167z"/><path class="d" d="M328.22 325.124h-49.719a5.762 5.762 0 01-5.762-5.762c0-.176.008-.353.024-.529l19.874-215.579a5.763 5.763 0 015.739-5.234h9.965a5.763 5.763 0 015.738 5.234l19.877 215.578a5.762 5.762 0 01-5.209 6.267c-.174.017-.35.025-.527.025z"/><path class="e" d="M338.22 317.124h-49.719a5.762 5.762 0 01-5.762-5.762c0-.176.008-.353.024-.529l19.874-215.579a5.763 5.763 0 015.739-5.234h9.965a5.763 5.763 0 015.738 5.234l19.877 215.578a5.762 5.762 0 01-5.209 6.267c-.174.017-.35.025-.527.025z"/><path class="c" d="M328.682 325.454h-49.719a5.763 5.763 0 01-5.762-5.764q0-.264.024-.528l19.877-215.577a5.765 5.765 0 015.735-5.231h9.965a5.765 5.765 0 015.739 5.234l19.876 215.577a5.762 5.762 0 01-5.207 6.268q-.264.021-.528.021z"/><path d="M291.442 114.623h24.337v12.049h-24.337zm-2.875 30.904h30.086v12.049h-30.086zm-2.875 30.903h35.835v12.049h-35.835zm-2.874 30.903h41.585v12.049h-41.585zm-2.875 30.904h47.334v12.049h-47.334zm-2.875 30.903h53.084v12.049h-53.084zm-2.874 30.903h58.833v12.049h-58.833z" fill="#454545"/><path class="d" d="M279.612 338.144a4.51 4.51 0 01-4.016 4.955 4.24 4.24 0 01-.464.025h-85.09a4.51 4.51 0 01-4.505-4.515 4.275 4.275 0 01.025-.465c2.75-15.9 5.13-32.93 6.9-51.02 1.23-12.58 2.07-24.72 2.59-36.34h-.91a3.819 3.819 0 01-3.76-3.82v-11.9a3.82 3.82 0 013.82-3.82h76.78a3.82 3.82 0 013.82 3.82v11.9a3.819 3.819 0 01-3.75 3.82h-.93c.52 11.62 1.36 23.76 2.59 36.34a704.078 704.078 0 006.9 51.02z"/><path class="b" d="M287.612 332.144a4.51 4.51 0 01-4.016 4.955 4.24 4.24 0 01-.464.025h-85.09a4.51 4.51 0 01-4.505-4.515 4.275 4.275 0 01.025-.465c2.75-15.9 5.13-32.93 6.9-51.02 1.23-12.58 2.07-24.72 2.59-36.34h-.91a3.82 3.82 0 01-3.76-3.82v-11.9a3.82 3.82 0 013.82-3.82h76.78a3.82 3.82 0 013.82 3.82v11.9a3.819 3.819 0 01-3.75 3.82h-.93c.52 11.62 1.36 23.76 2.59 36.34a704.078 704.078 0 006.9 51.02z"/><path class="i" d="M271.937 284.454h-78.683l.683-7h77z"/><path class="c" d="M279.62 339.144a4.511 4.511 0 01-4.016 4.955 4.24 4.24 0 01-.464.025h-85.09a4.51 4.51 0 01-4.505-4.515 4.215 4.215 0 01.025-.465c2.75-15.9 5.13-32.93 6.9-51.02 1.23-12.58 2.07-24.72 2.59-36.34h75.07c.52 11.62 1.36 23.76 2.59 36.34a698.563 698.563 0 006.9 51.02zm-4.815-103.08v11.9a3.819 3.819 0 01-3.75 3.82h-76.91a3.82 3.82 0 01-3.76-3.82v-11.9a3.82 3.82 0 013.82-3.82h76.78a3.82 3.82 0 013.82 3.82z"/><path class="d" d="M409.612 338.144a4.51 4.51 0 01-4.016 4.955 4.24 4.24 0 01-.464.025h-85.09a4.51 4.51 0 01-4.505-4.515 4.275 4.275 0 01.025-.465c2.75-15.9 5.13-32.93 6.9-51.02 1.23-12.58 2.07-24.72 2.59-36.34h-.91a3.819 3.819 0 01-3.76-3.82v-11.9a3.82 3.82 0 013.82-3.82h76.78a3.82 3.82 0 013.82 3.82v11.9a3.819 3.819 0 01-3.75 3.82h-.93c.52 11.62 1.36 23.76 2.59 36.34a704.078 704.078 0 006.9 51.02z"/><path class="b" d="M417.612 332.144a4.51 4.51 0 01-4.016 4.955 4.24 4.24 0 01-.464.025h-85.09a4.51 4.51 0 01-4.505-4.515 4.275 4.275 0 01.025-.465c2.75-15.9 5.13-32.93 6.9-51.02 1.23-12.58 2.07-24.72 2.59-36.34h-.91a3.82 3.82 0 01-3.76-3.82v-11.9a3.82 3.82 0 013.82-3.82h76.78a3.82 3.82 0 013.82 3.82v11.9a3.819 3.819 0 01-3.75 3.82h-.93c.52 11.62 1.36 23.76 2.59 36.34a704.078 704.078 0 006.9 51.02z"/><path class="i" d="M401.937 284.454h-78.683l.683-7h77z"/><path class="c" d="M409.62 339.144a4.511 4.511 0 01-4.016 4.955 4.24 4.24 0 01-.464.025h-85.09a4.51 4.51 0 01-4.505-4.515 4.215 4.215 0 01.025-.465c2.75-15.9 5.13-32.93 6.9-51.02 1.23-12.58 2.07-24.72 2.59-36.34h75.07c.52 11.62 1.36 23.76 2.59 36.34a698.563 698.563 0 006.9 51.02zm-4.815-103.08v11.9a3.819 3.819 0 01-3.75 3.82h-76.91a3.82 3.82 0 01-3.76-3.82v-11.9a3.82 3.82 0 013.82-3.82h76.78a3.82 3.82 0 013.82 3.82z"/></svg>