<svg xmlns="http://www.w3.org/2000/svg" width="213.082" height="198.504"><defs><clipPath id="a"><circle class="a" cx="74.039" cy="74.039" r="74.039" transform="translate(432.849 2272.757)"/></clipPath><style>.a,.j,.k,.l{fill:none}.c{fill:#fff}.d{fill:#29abe2}.f,.j,.k,.l{stroke:#454545}.j{stroke-miterlimit:10.005}.f{fill:#f2f2f2;stroke-miterlimit:10.01;stroke-width:4.062px}.g{fill:#454545}.j{stroke-width:3.5px}.k,.l{stroke-width:3.502px;stroke-miterlimit:4.002}</style></defs><g transform="translate(-409.624 -2245.279)"><g clip-path="url(#a)"><circle class="c" cx="1.947" cy="1.947" r="1.947" transform="translate(538.875 2310.488)"/><circle class="c" cx="3.067" cy="3.067" r="3.067" transform="translate(541.939 2315.093)"/><path class="c" d="M517.528 2436.825l-79.874-35.3c3.478-7.7 24.529-18.861 41.531-13.66a11.206 11.206 0 0020.1 8.877c15.283 9.07 21.599 32.329 18.243 40.083z"/><path class="d" d="M526.744 2316.945a11.746 11.746 0 00.7 4.122c1.671 4.519 5.341 5.349 8.24 10.013a13.4 13.4 0 012.348 6.126c.53 6.777-6.508 8.373-6.6 14.835-.058 4.049 2.717 4.621 5.293 13.78a58.29 58.29 0 011.293 5.653 37.738 37.738 0 01-6.009 4.944 37.149 37.149 0 01-9.654 4.588 35.845 35.845 0 01-10.835 1.526l-4.715 10.6a26.862 26.862 0 014.827 3.417c1.989 1.772 3.3 3.513 7.18 9.541a485.795 485.795 0 014.472 7.068c15.853-8.707 19.271-15.715 19.324-20.6.042-3.8-1.936-9.515 1.419-14.6a14.237 14.237 0 013.6-3.773c3.158-2.427 5.952-2.568 9.945-6.7 0 0 8.972-9.293 9.079-28.965a49.486 49.486 0 00-1.527-10.835c-.815-2.64-3.217-10.688-10.592-16.137-10.575-7.817-22.769-5.053-24.61-4.6a29.13 29.13 0 00-7.179-9.542c-8.88-7.7-22.5-9.576-33.442-4.723a32.133 32.133 0 00-17.318 18.952c-3.2 10.194 1.789 16.382-3.66 22.491-3.867 4.335-7.1 5.244-8.494 10.559-1.145 4.391.834 6.33-.94 10.636-1.6 3.884-3.721 3.548-5.891 7.534-.5.92-4.116 7.562-.947 13.542 2.209 4.163 6.994 6.647 12.244 6.717 2.718-.393 5.009-.646 6.713-.822a39.539 39.539 0 017.772-.35 23.028 23.028 0 017.889 2.241l4.243-9.537a28.306 28.306 0 01-7.179-9.542 29.872 29.872 0 01-2.586-11.306 35.282 35.282 0 01.238-6.241c.618-4.93.936-7.486 2.712-8.948 1.471-1.211 2.943-.85 11.423 0 8.183.823 9.738.786 11.422 0a11.136 11.136 0 005.892-7.535c.64-3.179-.9-4.547.238-6.241 1.463-2.19 4.922-.535 8.715-2.469a11.557 11.557 0 004.957-5.419z"/><path class="d" d="M527.434 2436.577l-79.874-35.3c3.478-7.7 24.53-18.861 41.532-13.659a11.206 11.206 0 0020.094 8.877c15.289 9.07 21.604 32.329 18.248 40.082z"/><path d="M517.113 2436.958l-79.875-35.3c3.477-7.7 24.53-18.861 41.532-13.659a11.206 11.206 0 0020.094 8.877c15.288 9.066 21.602 32.324 18.249 40.082z" stroke-width="4.059" stroke-miterlimit="10.005" stroke="#454545" fill="none"/><path class="f" d="M503.385 2387.216l-3.4 7.706a10.968 10.968 0 01-1.121 1.953 11.206 11.206 0 01-20.099-8.875 10.944 10.944 0 01.7-2.139l3.409-7.717a30 30 0 0020.512 9.076z"/><path class="f" d="M538.05 2363.786a41.664 41.664 0 01-5.74 9.427c-7.133 8.824-17.375 13.967-27.657 14.014-.42 0-.847-.007-1.274-.018a30 30 0 01-20.512-9.077c-.3-.3-.584-.6-.868-.912-6.907-7.656-9.994-18.729-8.241-29.979a42.006 42.006 0 013.09-10.5 41.555 41.555 0 015.691-9.347c10.03-12.48 26.276-17.633 40.1-11.519 13.81 6.1 20.933 21.53 18.507 37.33a41.6 41.6 0 01-3.096 10.581z"/><path class="g" d="M518.618 2320.945a11.74 11.74 0 00.7 4.122c1.671 4.519 5.341 5.349 8.24 10.013a13.4 13.4 0 012.348 6.127c.53 6.776-6.508 8.372-6.6 14.835-.057 4.048 2.718 4.62 5.294 13.78a58.157 58.157 0 011.293 5.653 37.737 37.737 0 01-6.009 4.943 37.149 37.149 0 01-9.654 4.588 35.88 35.88 0 01-10.835 1.527l-4.715 10.6a26.863 26.863 0 014.827 3.417c1.989 1.772 3.295 3.513 7.18 9.541a485.795 485.795 0 014.472 7.068c15.853-8.707 19.271-15.715 19.324-20.6.042-3.8-1.936-9.515 1.419-14.6a14.226 14.226 0 013.6-3.774c3.157-2.427 5.952-2.568 9.945-6.7 0 0 8.972-9.292 9.079-28.965a49.489 49.489 0 00-1.527-10.835c-.816-2.64-3.217-10.688-10.592-16.137-10.575-7.817-22.769-5.053-24.61-4.6a29.13 29.13 0 00-7.179-9.541c-8.88-7.7-22.5-9.577-33.442-4.724a32.133 32.133 0 00-17.318 18.952c-3.2 10.194 1.789 16.382-3.66 22.491-3.867 4.335-7.1 5.244-8.495 10.559-1.144 4.391.835 6.33-.939 10.636-1.6 3.884-3.721 3.549-5.891 7.534-.5.92-4.116 7.562-.947 13.542 2.209 4.164 6.994 6.647 12.244 6.717 2.718-.393 5.009-.646 6.713-.822a39.539 39.539 0 017.772-.35 23.071 23.071 0 017.889 2.241l4.243-9.537a28.28 28.28 0 01-7.179-9.541 29.862 29.862 0 01-2.586-11.306 35.29 35.29 0 01.238-6.242c.618-4.93.936-7.486 2.712-8.948 1.471-1.211 2.943-.85 11.423 0 8.183.824 9.738.786 11.422 0a11.134 11.134 0 005.892-7.534c.64-3.179-.9-4.548.238-6.242 1.463-2.19 4.922-.535 8.715-2.469a11.556 11.556 0 004.956-5.419z"/><circle cx="5.98" cy="5.98" r="5.98" transform="translate(493.283 2363.257)" stroke-width="1.161" fill="#454545" stroke-miterlimit="10.01" stroke="#454545"/><path d="M547.974 2354l-8.292 18.769a3.619 3.619 0 01-4.792 1.793h0l-15.072-6.66a2.079 2.079 0 01-1.216-1.547l-1.202-7.255a3.945 3.945 0 00-2.3-2.947l-14.182-6.267a3.941 3.941 0 00-3.731.282l-6.186 3.991a2.078 2.078 0 01-1.96.143l-15.072-6.66a2.68 2.68 0 01-.282-.145l-.031-.013a3.61 3.61 0 01-1.586-4.593l8.293-18.767a5.654 5.654 0 017.487-2.808h0l57.155 25.257a5.658 5.658 0 012.98 7.427h0z" fill="#c4c4c4" stroke-width="4.062" stroke-miterlimit="10.01" stroke="#454545"/><circle class="c" cx="1.947" cy="1.947" r="1.947" transform="translate(528.169 2350.534)"/><circle class="c" cx="3.068" cy="3.068" r="3.068" transform="translate(529.608 2356.026)"/></g><circle class="j" cx="74.039" cy="74.039" r="74.039" transform="translate(432.849 2272.757)"/><circle class="j" cx="95.049" cy="95.049" r="95.049" transform="translate(411.374 2251.934)"/><path class="c" d="M435.8 2304.269l4.319 21.538-20.846-7.068z"/><path class="d" d="M444.637 2301.831l4.319 21.538-20.847-7.068z"/><path class="a" d="M435.685 2304.3l4.315 21.539-20.845-7.069z"/><path class="g" d="M433.44 2310.919l-7.406 6.485 9.341 3.169-1.936-9.652m2.245-6.619l4.316 21.537-20.846-7.068z"/><path class="c" d="M536.703 2285.064l12.422-10.101 10.101 12.422-12.422 10.101z"/><path class="c" d="M539.165 2285.316l9.705-7.892 7.892 9.706-9.705 7.891z"/><path class="d" d="M545.703 2285.064l12.422-10.101 10.101 12.422-12.422 10.101z"/><path class="d" d="M548.165 2285.316l9.705-7.892 7.892 9.706-9.705 7.891z"/><path class="a" d="M536.624 2285.225l12.422-10.101 10.101 12.422-12.422 10.101z"/><path class="k" d="M539.086 2285.477l9.705-7.892 7.892 9.706-9.705 7.891z"/><circle class="c" cx="8.004" cy="8.004" r="8.004" transform="translate(579.227 2381.304)"/><circle class="c" cx="6.253" cy="6.253" r="6.253" transform="translate(580.978 2383.055)"/><circle class="d" cx="8.004" cy="8.004" r="8.004" transform="translate(587.227 2379.304)"/><circle class="d" cx="6.253" cy="6.253" r="6.253" transform="translate(588.978 2381.055)"/><circle class="a" cx="8.004" cy="8.004" r="8.004" transform="translate(579.214 2381.31)"/><circle class="l" cx="6.253" cy="6.253" r="6.253" transform="translate(580.965 2383.061)"/></g><path class="c" d="M199.926 70.965l4.319 21.538-20.846-7.068z"/><path class="d" d="M208.763 68.527l4.319 21.538-20.847-7.068z"/><path class="a" d="M199.811 70.996l4.315 21.539-20.845-7.069z"/><path class="g" d="M197.566 77.615L190.16 84.1l9.341 3.169-1.936-9.652m2.245-6.619l4.316 21.537-20.846-7.068z"/><path class="c" d="M116.829 185.76l12.422-10.101 10.101 12.422-12.422 10.101z"/><path class="c" d="M119.291 186.012l9.705-7.892 7.892 9.706-9.705 7.891z"/><path class="d" d="M125.829 185.76l12.422-10.101 10.101 12.422-12.422 10.101z"/><path class="d" d="M128.291 186.012l9.705-7.892 7.892 9.706-9.705 7.891z"/><path class="a" d="M116.75 185.921l12.422-10.101 10.101 12.422-12.422 10.101z"/><path class="k" d="M119.212 186.173l9.705-7.892 7.892 9.706-9.705 7.891z"/><g transform="translate(-289.874 -2433.304)"><circle class="c" cx="8.004" cy="8.004" r="8.004" transform="translate(342.227 2435.304)"/><circle class="c" cx="6.253" cy="6.253" r="6.253" transform="translate(343.978 2437.055)"/><circle class="d" cx="8.004" cy="8.004" r="8.004" transform="translate(350.227 2433.304)"/><circle class="d" cx="6.253" cy="6.253" r="6.253" transform="translate(351.978 2435.055)"/><circle class="a" cx="8.004" cy="8.004" r="8.004" transform="translate(342.214 2435.31)"/><circle class="l" cx="6.253" cy="6.253" r="6.253" transform="translate(343.965 2437.061)"/></g></svg>