<svg xmlns="http://www.w3.org/2000/svg" width="244.86" height="114.418"><defs><style>.a{fill:#585858}</style></defs><path class="a" d="M68.503 42.575v.74c0 5.76-.021 11.521.011 17.281a10 10 0 01-2.9 7.209 24.345 24.345 0 01-6.059 4.463 77.806 77.806 0 01-11.131 4.849c-5.712 2.068-11.451 4.061-17.162 6.132a81.014 81.014 0 00-11.97 5.309 32.335 32.335 0 00-9.168 7.2 5.054 5.054 0 01-.962.952c.083-.272.158-.547.246-.818l7.261-22.265c.331-1.016.613-2.05.979-3.054a15.275 15.275 0 015.791-7.3 34.71 34.71 0 019.849-4.655c5.245-1.636 10.527-3.155 15.795-4.718a97.688 97.688 0 0010.756-3.648 21.3 21.3 0 005.3-3.1 10.054 10.054 0 002.965-4c.082-.2.17-.4.257-.6z"/><path class="a" d="M54.039 25.034c1.391-.149 2.826-.308 4.263-.457q5.613-.583 11.227-1.159c1.756-.182 3.509-.4 5.268-.547a10.644 10.644 0 015.315 1.013 20.139 20.139 0 016.209 4.668 47.458 47.458 0 015.944 7.9 71.38 71.38 0 004.777 7.036 31.626 31.626 0 0011.551 9.52 29.189 29.189 0 005.272 1.724H84.19a15.257 15.257 0 01-4.46-.586 11.756 11.756 0 01-6.706-5.6 57.254 57.254 0 01-3.366-7.138 41.371 41.371 0 00-5.269-9.352 18.392 18.392 0 00-6.547-5.59c-1.216-.577-2.527-.96-3.803-1.432zM68.505 0v5.633c0 1.852-.032 3.7 0 5.555a7.1 7.1 0 01-2 5.115 20.429 20.429 0 01-5.122 3.833 89.683 89.683 0 01-10.152 4.7c-3.716 1.534-7.45 3.027-11.034 4.858a44.617 44.617 0 00-8.53 5.467 22.809 22.809 0 00-3.316 3.422.753.753 0 01-.418.3c.176-.542.35-1.084.527-1.626 1.479-4.533 2.966-9.062 4.432-13.6a12.052 12.052 0 014.051-5.724 32.168 32.168 0 017.794-4.493c4.071-1.729 8.185-3.359 12.271-5.053a39.827 39.827 0 007.02-3.589A12.538 12.538 0 0068.505 0zM0 30.741c1.416-.158 2.644-.3 3.873-.43 3.165-.336 6.329-.677 9.5-1a18.94 18.94 0 012.68-.151 6.9 6.9 0 014.52 2.159 25.907 25.907 0 014.194 5.725c1.588 2.691 3.123 5.414 4.777 8.063a25.02 25.02 0 005.979 6.708 18.951 18.951 0 005.568 2.881c-.084.009-.168.021-.252.026s-.174 0-.261 0H21.902a10.973 10.973 0 01-6.918-2.14 13.029 13.029 0 01-3.484-4.063c-1.3-2.351-2.509-4.756-3.7-7.168a62.136 62.136 0 00-3.566-6.844 9.681 9.681 0 00-2.682-2.923c-.44-.278-.909-.495-1.552-.843zm158.33 34.881c.324-.015.607-.039.891-.039h12.766a34.543 34.543 0 015.7.446c4.552.762 6.8 4.437 6.379 8.671a15.5 15.5 0 01-.283 1.71 6.92 6.92 0 01-4.146 5.115c-.237.106-.477.209-.711.322-.044.021-.069.083-.141.174a3 3 0 00.5.294c2.7.951 3.886 3.056 4.3 5.7.283 1.8.462 3.612.693 5.418.032.254.1.5.166.864-2.228.092-4.407.025-6.626.044a15.174 15.174 0 01-.58-3.178c-.165-1.086-.274-2.184-.506-3.255a5.213 5.213 0 00-4.365-4.273 7.938 7.938 0 00-1.457-.217c-2.112-.034-4.225-.032-6.337-.04a1.858 1.858 0 00-.366.1c-.083 1.752-.025 3.538-.035 5.322s0 3.584 0 5.351a26.716 26.716 0 01-5.814.081c-.199-.651-.243-27.557-.028-28.61zm10.972 4.876v.058c-1.417 0-2.833-.008-4.25 0-.821.006-.874.06-.878.9-.009 1.937 0 3.873 0 5.81 0 .2 0 .4.008.607a.461.461 0 00.484.5c.2.011.4.014.607.014 2.428 0 4.856.012 7.284-.006a15.414 15.414 0 002.073-.156 2.9 2.9 0 002.625-2.4 7.968 7.968 0 00.158-2.06 2.974 2.974 0 00-2.916-3.07c-1.726-.142-3.463-.137-5.195-.197zm56.136 3.005v20.784h-5.616c-.03-.312-.086-.616-.086-.92q-.007-13.421 0-26.841c0-.28.043-.56.068-.876.294-.027.518-.066.742-.066 2.085 0 4.171.016 6.255-.016a1.048 1.048 0 011.059.681q4.683 8.814 9.4 17.613c.53.99 1.067 1.977 1.634 3.026.352-.356.229-.717.23-1.032q.013-8.382.007-16.764v-3.348a27.981 27.981 0 015.577-.055c.189.666.225 27.614.021 28.594-.229.02-.479.059-.73.06-1.969 0-3.938-.015-5.907.014a1.07 1.07 0 01-1.08-.65q-5.358-9.683-10.749-19.347c-.177-.317-.372-.623-.558-.934zM187.17 80.52a26.494 26.494 0 01.82-6.743 10.3 10.3 0 017.51-7.584 20.732 20.732 0 0112.4.237 9.957 9.957 0 016.584 6.538 22.335 22.335 0 01.5 12.668 10.9 10.9 0 01-4.418 6.648 12.646 12.646 0 01-5.326 1.979 21.188 21.188 0 01-9.122-.5 11.133 11.133 0 01-6.339-4.151 13.072 13.072 0 01-2.221-5.507c-.234-1.366-.304-2.759-.388-3.585zm6.686-.708c0 .492-.025.986 0 1.476a13.807 13.807 0 001.021 4.81 5.71 5.71 0 003.845 3.369 10.167 10.167 0 004.727.169 5.989 5.989 0 004.673-3.957 13.986 13.986 0 00.837-4.326 17.729 17.729 0 00-.772-6.937 5.877 5.877 0 00-4.311-4.012 10.267 10.267 0 00-4.053-.179 6.185 6.185 0 00-5.491 4.943 17.563 17.563 0 00-.476 4.644zm-89.403 14.495h-7.026l11.883-28.683h7.028l11.817 28.526a36.555 36.555 0 01-6.992.11c-.236-.542-.5-1.117-.74-1.7-.593-1.414-1.2-2.822-1.757-4.249a.885.885 0 00-.978-.634c-3.243.017-6.486.022-9.729 0a.944.944 0 00-1.008.719c-.68 1.69-1.4 3.366-2.1 5.046-.121.287-.262.57-.398.865zm4.131-11.642h2.943c.9 0 1.792.025 2.687-.006a13.593 13.593 0 002.721-.094 93.042 93.042 0 00-4.2-10.065zm39.14-17.03h5.948c.017.355.044.665.044.974v16.5a19.082 19.082 0 01-.489 4.3 8.227 8.227 0 01-5.049 5.892 21.1 21.1 0 01-13.281.379 8.548 8.548 0 01-6.137-7.824 39.348 39.348 0 01-.148-3.382c-.015-5.241-.006-10.482-.006-15.723v-.995a29.656 29.656 0 015.944-.085c.016.314.045.65.045.986q0 7.948.007 15.9c0 .694.051 1.388.1 2.081a5.169 5.169 0 004.311 4.987 9.147 9.147 0 005.552-.291 4.176 4.176 0 002.993-3.683c.09-.949.158-1.9.161-2.857.015-5.356.008-10.714.009-16.07zm-44.52 0c.1 1.626.067 3.2.022 4.884-3.165.1-6.277-.024-9.481.073-.031.434-.082.825-.083 1.216q-.007 10.6 0 21.189v1.322c-2 .056-3.894.015-5.9.025-.026-.437-.072-.827-.072-1.217q-.006-10.6 0-21.19c0-1.47.051-1.38-1.363-1.38h-7.824c-.107-1.685-.051-3.278-.038-4.923zm76.377 38.96v9.556h-1.763v-12.269a18 18 0 011.968.025c.223.025.467.308.61.531 1.566 2.431 3.112 4.874 4.667 7.312.4.627.81 1.247 1.216 1.87l.193-.039c.02-.3.056-.594.057-.891q.01-3.819.009-7.637v-1.106h1.614a116.32 116.32 0 01.027 12.251 12.563 12.563 0 01-1.841-.03c-.244-.036-.483-.375-.648-.627-1.6-2.445-3.177-4.9-4.764-7.354-.358-.554-.726-1.1-1.089-1.654zm33.593 9.537a8.043 8.043 0 01-.851.091c-.7 0-1.031.125-1.064-.926a10.979 10.979 0 00-.3-1.968 2.72 2.72 0 00-2.349-2.241 16.647 16.647 0 00-3.825-.115v5.186h-1.783v-12.21a3.651 3.651 0 01.512-.072c1.968 0 3.937-.017 5.9.028a6.5 6.5 0 011.868.323 2.9 2.9 0 012.006 2.771 2.958 2.958 0 01-1.529 3.068c-.272.151-.554.286-.9.461a2.591 2.591 0 00.372.313 2.906 2.906 0 011.628 2.405c.112.937.209 1.876.315 2.886zm-8.35-6.74c1.687 0 3.274.042 4.856-.029a1.883 1.883 0 001.185-.617 2.227 2.227 0 00.266-2.376 1.628 1.628 0 00-1.675-1c-1.128-.026-2.257-.031-3.385-.043h-1.247zm-93.788.699c-.073.659-.1 1.328-.228 1.977a4.9 4.9 0 01-4.258 4.205 9.165 9.165 0 01-3.282-.006 4.575 4.575 0 01-3.843-3.435 9.528 9.528 0 01-.157-4.886 4.989 4.989 0 014.6-4.177 8.42 8.42 0 013.694.255 4.343 4.343 0 012.893 2.659 9.671 9.671 0 01.581 3.408zm-1.971.16c-.062-.743-.07-1.383-.175-2.008a3.24 3.24 0 00-2.036-2.8 5.19 5.19 0 00-3.65.011 2.741 2.741 0 00-1.731 1.718 8.43 8.43 0 00.056 5.851 2.773 2.773 0 001.859 1.69 5.4 5.4 0 003.242.027 2.911 2.911 0 002.137-2.284c.162-.754.212-1.537.298-2.205zm116.578-6.245v1.259c-.311.021-.614.059-.918.061-1.361.01-2.722.032-4.082.008a3.2 3.2 0 00-3.458 2.96 9.911 9.911 0 00-.013 3.458 3.22 3.22 0 003.108 2.959c.688.078 1.386.076 2.08.086.455.007.911-.028 1.425-.046v-4.021c-1.226-.245-2.476.026-3.732-.174v-1.279h5.47a38.643 38.643 0 01.09 6.827 3.272 3.272 0 01-.624.114c-1.679-.007-3.36.015-5.038-.058a4.5 4.5 0 01-4.719-4.088 10.8 10.8 0 01.121-4.571 4.314 4.314 0 014.186-3.539c1.958-.149 3.934-.051 5.9-.059.05 0 .104.05.204.103zm-102.794 12.209v-1.36c.335-.019.617-.048.9-.049 1.36-.005 2.72.01 4.081-.011a8.681 8.681 0 001.55-.154 1.767 1.767 0 001.427-1.906 1.711 1.711 0 00-1.427-1.889 11.655 11.655 0 00-1.555-.1c-.895-.043-1.8-.005-2.683-.133a3.19 3.19 0 01-2.158-5.222 3.1 3.1 0 012.056-1.33 11.656 11.656 0 011.723-.178c1.533-.025 3.067-.012 4.6-.009.226 0 .453.026.74.044v1.358c-.3.018-.581.048-.861.05-1.5.008-3.008 0-4.511.014a4.623 4.623 0 00-.949.074 1.865 1.865 0 00-1.363 2.543 1.415 1.415 0 001.075.921 12.706 12.706 0 001.716.2c.98.066 1.964.068 2.941.156a2.8 2.8 0 012.485 2.421 6.682 6.682 0 01.008 2.062 2.9 2.9 0 01-2.576 2.364 62.678 62.678 0 01-7.219.134zm32.73-3.237c-1.892 0-3.711.005-5.529 0a.677.677 0 00-.693.524c-.261.673-.586 1.324-.807 2.009a.918.918 0 01-1.092.728c-.335-.03-.675-.005-1.18-.005l5.1-12.319h2.569c1.6 4 3.2 8.043 4.84 12.152a2.784 2.784 0 01-1.654.111c-.167-.025-.351-.278-.435-.467-.26-.579-.471-1.179-.708-1.769-.117-.298-.248-.585-.411-.964zm-5.434-1.51a34.85 34.85 0 004.748-.036 34.118 34.118 0 00-2.361-6.074zm82.099 4.759l5.12-12.355c.637 0 1.24.026 1.84-.008a.838.838 0 01.958.636c1.153 2.962 2.345 5.908 3.522 8.86q.4 1.006.791 2.018c.089.235.155.479.24.747a3.248 3.248 0 01-.4.091c-1.428.117-1.426.115-1.942-1.216-.208-.539-.437-1.07-.639-1.612a.559.559 0 00-.585-.41h-5.208c-.359 0-.5.224-.616.507-.279.7-.583 1.386-.834 2.093a.846.846 0 01-.968.656c-.363-.032-.733-.007-1.279-.007zm6.5-10.778l-.275-.009-2.368 6.069c1.686.007 3.19.029 4.872-.023-.786-2.118-1.509-4.078-2.233-6.042zm-150.975-1.526c.242-.02.438-.05.635-.05 1.708 0 3.416-.025 5.123.017a5.915 5.915 0 011.867.307 3.286 3.286 0 012.112 3.283 5.694 5.694 0 01-.291 1.954 3.086 3.086 0 01-3.033 2.176c-1.155.065-2.314.039-3.473.058-.341.005-.683.029-1.1.048-.193 1.473.026 2.917-.142 4.37a2.753 2.753 0 01-1.609.064 119.362 119.362 0 01-.089-12.227zm1.812 6.271a18.39 18.39 0 004.6-.146 1.367 1.367 0 001.089-1.016 5.559 5.559 0 00.2-1.866 1.855 1.855 0 00-1.965-1.805c-.72-.05-1.445-.029-2.168-.035h-1.753zm85.461 4.607v1.32a4.049 4.049 0 01-.629.1c-1.5-.015-3.009-.009-4.511-.074a3.9 3.9 0 01-3.618-2.421 8.41 8.41 0 01.087-7.221 4.273 4.273 0 013.435-2.489 48.423 48.423 0 015.233-.152v1.379a6.489 6.489 0 01-.711.081c-1.069.012-2.141-.009-3.21.017-2.072.049-3.03.9-3.38 2.975a5.4 5.4 0 00-.076.6 1.287 1.287 0 00.113.342h7.267v1.472h-7.27a3.259 3.259 0 002.576 3.938c1.2.145 2.423.1 3.636.132.338.01.676.001 1.058.001zm25.168-9.476h-1.793c-.9.008-1.8-.014-2.69.044a2.744 2.744 0 00-2.615 2.054c-.169.54-.237 1.112-.376 1.8 2.557.106 4.977.008 7.467.065v1.393c-.286.016-.59.047-.9.048-1.824 0-3.648 0-5.472.006-.31 0-.618.03-.907.045a3.209 3.209 0 002.7 3.9c1.174.13 2.367.091 3.552.123.337.009.676 0 1.057 0v1.3a3.3 3.3 0 01-.637.116c-1.506-.01-3.012 0-4.516-.067a3.926 3.926 0 01-3.668-2.489 8.556 8.556 0 01.036-6.993 4.321 4.321 0 013.593-2.664 45.894 45.894 0 015.168-.132zm-87.136-1.41h1.693c.024.374.06.71.064 1.046.025 2.313.043 4.627.066 6.941 0 .145.012.289.023.434a2.209 2.209 0 002.121 2.325 24.685 24.685 0 002.507.141c.4.016.795 0 1.243 0v1.26a13.943 13.943 0 01-5.514-.213 3.445 3.445 0 01-2.163-2.82 7.853 7.853 0 01-.128-1.206c-.009-2.542 0-5.084.006-7.627a1.194 1.194 0 01.082-.281zm31.644.146l-6.039 5.754 6.385 6.209a2.531 2.531 0 01-2.923-.5l-4.965-5.109c-.138-.142-.265-.294-.427-.475.171-.191.316-.365.475-.526 1.583-1.61 3.191-3.2 4.743-4.838a1.9 1.9 0 011.739-.715 7.285 7.285 0 00.936.007zm85.586 12.095h-1.749v-12.227h1.749zm-93.838-.008h-1.753v-12.2h1.753z"/></svg>