<svg xmlns="http://www.w3.org/2000/svg" width="223.715" height="81.114"><defs><style>.a{fill:#585858}</style></defs><path class="a" d="M97.209 40.775c1.594-1.438 2.934-2.8 4.425-3.964a57.8 57.8 0 0122.11-10.264 63.364 63.364 0 0122.541-1.719c2.773.316 5.506.992 8.257 1.508a2.231 2.231 0 001.315-.008c-.525-.274-1.042-.563-1.576-.82a176.04 176.04 0 00-38.415-13.19A145.259 145.259 0 0080.93 8.726c-27.371.656-51.4 9.71-71.424 28.645-2.479 2.343-4.775 4.878-7.158 7.323-.305.313-.572.727-.946.89a1.392 1.392 0 01-1.188-.022 1.262 1.262 0 01-.147-1.138 9.367 9.367 0 01.99-1.7C14.293 22.361 32.8 9.38 56.288 3.403A114.276 114.276 0 0195.788.58a140.323 140.323 0 0173.868 29.174 6.95 6.95 0 011.572 1.376 2.175 2.175 0 01.407 1.725 1.9 1.9 0 01-1.564.82c-1.516-.163-3-.573-4.5-.88a117.664 117.664 0 00-41.274-1.466c-8.057 1.2-15.854 3.32-22.956 7.492-1.167.685-2.29 1.449-3.438 2.166-.051.033-.16-.04-.694-.212z"/><path class="a" d="M48.914 52.718h17.611c2.21 0 2.99.962 2.605 3.15-.174.991-.324 1.986-.518 2.973-.549 2.8-1.441 3.529-4.27 3.529-5.214 0-10.428.033-15.64-.025-1.2-.013-1.718.331-1.863 1.559a49.288 49.288 0 01-.946 5.161c-.249 1.091-.008 1.5 1.176 1.464 2.32-.072 4.643-.019 6.965-.019h25.76c2.65 0 3.308.775 2.834 3.336-.231 1.247-.447 2.5-.7 3.74a3.235 3.235 0 01-3.588 2.9q-8.149.015-16.3 0h-27.6c-2.5 0-3.219-.894-2.768-3.349q3.588-19.552 7.157-39.107c.451-2.472 1.462-3.355 4.011-3.356q21.817-.005 43.635 0c2.526 0 3.238.884 2.742 3.324-.235 1.157-.411 2.327-.653 3.483-.5 2.383-1.486 3.182-3.889 3.182q-16.034 0-32.069.009c-2.306 0-2.167-.51-2.6 2.142-.305 1.894-.693 3.77-1.092 5.904zm157.68 23.716c-1.286.668-2.461 1.318-3.668 1.9a24.266 24.266 0 01-17.113 1.9c-2.934-.764-5.478-2.193-6.152-5.42a8.821 8.821 0 013.077-8.736c2.742-2.456 6.16-3.444 9.687-4.049 4.357-.747 8.736-1.36 13.1-2.1a14.912 14.912 0 002.995-.932 2.5 2.5 0 001.483-2.8c-.082-1.153-.959-1.649-1.93-1.867-3.413-.763-6.715-.693-9.6 1.627a6.7 6.7 0 01-4.615 1.538c-2.319-.08-4.645.04-6.963-.059a2.5 2.5 0 01-1.859-.839 2.441 2.441 0 01.315-2.006c2.348-3.775 6.011-5.693 10.18-6.617a47.693 47.693 0 0120.459-.1 12.316 12.316 0 011.877.578c4.834 1.878 6.495 4.711 5.645 9.843-.765 4.616-1.612 9.22-2.479 13.818a11.852 11.852 0 00.058 5.572 1.861 1.861 0 01-1.837 2.641c-3.28.119-6.572.148-9.847-.028-.75-.04-1.568-.963-2.127-1.661a6.921 6.921 0 01-.686-2.203zm1.588-10.489c-2.2.217-4.331.339-6.435.663a35.036 35.036 0 00-5.727 1.275 3.187 3.187 0 00-2.445 3.578 3.256 3.256 0 003.159 2.665 14.707 14.707 0 004.032-.063c4.551-.753 7.408-3.947 7.417-8.118zm-44.999.827c-4.336 0-8.671.034-13.006-.022-1.136-.015-1.434.441-1.425 1.468.026 3.064 2.447 5.253 6.091 5.393a13.685 13.685 0 008.591-2.763 6.341 6.341 0 014.041-1.229c2.319.065 4.644-.038 6.961.053.66.026 1.722.347 1.853.765a2.567 2.567 0 01-.6 2.054 24.215 24.215 0 01-12.852 7.455 34.463 34.463 0 01-18.788-.279c-8.938-2.824-11.362-9.916-8.711-17.951a18.579 18.579 0 0110.588-11.4 33.422 33.422 0 0124.343-1.288c4.754 1.5 8.157 4.611 9.046 9.775a22.233 22.233 0 01.12 4.968c-.113 2.023-1.208 2.978-3.247 2.988-4.334.027-8.672.013-13.005.013zm-13.479-6.041c.227.142.3.227.371.227 5.075.02 10.15.047 15.225.008.285 0 .775-.522.815-.844a4.733 4.733 0 00-4.263-5.354 17.042 17.042 0 00-5.7.028 8.271 8.271 0 00-6.447 5.935zm-47.081-7.228c1.079-.754 1.811-1.282 2.559-1.786a25.7 25.7 0 0113.537-4.865c8.65-.316 14.313 5.554 13.29 14.166-.679 5.724-1.9 11.385-2.926 17.065a2.926 2.926 0 01-2.812 2.366c-2.626.074-5.258.083-7.884.009-1.6-.045-2.231-1.132-1.887-3.036.505-2.8 1.094-5.583 1.543-8.39a37.772 37.772 0 00.881-7.388c-.206-5-4.2-7.765-9.055-6.484a12.218 12.218 0 00-9.367 9.93c-.89 4.192-1.583 8.425-2.381 12.636a3.042 3.042 0 01-3.281 2.756c-2.366.03-4.732.035-7.1 0a2.081 2.081 0 01-2.257-2.743q2.441-13.293 4.9-26.583c.479-2.587 1.365-3.293 4.015-3.293 2.146 0 4.293-.014 6.44.005 1.868.017 2.6.936 2.279 2.79-.143.805-.281 1.612-.494 2.845z"/></svg>