<svg xmlns="http://www.w3.org/2000/svg" width="237.927" height="70.655"><path d="M.941 27.028c1.539.887 3.035 1.819 4.594 2.631a15.664 15.664 0 0010.458 1.809 5.191 5.191 0 001.946-.79 2.768 2.768 0 00.245-4.425 10.771 10.771 0 00-2.795-1.677c-2.9-1.237-5.892-2.264-8.752-3.583a10.458 10.458 0 01-6.169-6.8C-.942 8.94.803 4.217 6.032 1.715A20.372 20.372 0 0117.09.147a32.628 32.628 0 019.3 2.464 1.119 1.119 0 01.817 1.221c-.04 2.088-.015 4.177-.015 6.42-.385-.09-.653-.128-.9-.214-2.583-.892-5.123-1.95-7.758-2.643a9.837 9.837 0 00-7.177.413c-2.189 1.126-2.292 3.377-.129 4.593a45.014 45.014 0 005.371 2.375c2.9 1.162 5.852 2.2 8.337 4.191a10.162 10.162 0 013.813 9.693c-.547 4.739-3.434 7.657-7.8 9A24.261 24.261 0 011.36 35.341a1.161 1.161 0 01-.564-.789c-.044-2.416-.028-4.834-.021-7.251.002-.077.094-.156.166-.273zm58.975 25.026c.467-.952.822-1.773 1.274-2.537a1.115 1.115 0 01.823-.314q2.079-.049 4.161-.008a.888.888 0 001.045-.735c.187-.7.478-1.376.8-2.262h-4.678c.377-.571.571-.924.821-1.233a28.941 28.941 0 0114.386-9.984c3.921-1.169 7.862-1.433 11.687.451a9.1 9.1 0 015.245 7.087 39.064 39.064 0 01.053 5.466c0 .719-.348.929-1.027.919-1.967-.029-3.936.025-5.9-.025-.772-.02-1.217.167-1.348.983-.1.624-.313 1.23-.53 2.048h7.808c-.562 1.142-.954 2.037-1.449 2.87-.106.179-.586.185-.894.188-1.742.017-3.484.03-5.225 0-.719-.014-1.148.179-1.277.958a18.974 18.974 0 01-.593 2.061h5.867l.195.393c-1.567 1.685-3.053 3.457-4.719 5.038a26.677 26.677 0 01-11.967 6.615 15.152 15.152 0 01-9.223-.189 9.816 9.816 0 01-6.768-9.574c-.019-1.282.156-2.567.236-3.851.049-.783.4-1.105 1.236-1.066 1.513.071 3.032 0 4.547.033.72.018 1.162-.2 1.324-.946a8.291 8.291 0 01.475-1.366c.279-.678.089-.94-.658-.925-1.645.035-3.29.019-4.935.016a7.328 7.328 0 01-.792-.111zm8.293 11.147l.028.234a46.8 46.8 0 006.478-.849 8.752 8.752 0 006.78-6.93c.625-2.86 1.5-5.667 2.2-8.511a1.217 1.217 0 011.42-1.083c1.192.039 2.39.049 3.58-.02a1.239 1.239 0 00.949-.556c.308-1.012.468-2.07.684-3.11.107-.517-.039-.791-.629-.786-2.774.024-5.554-.072-8.322.061a9.394 9.394 0 00-8.028 6.6c-.684 2.848-1.325 5.707-1.982 8.561a1.633 1.633 0 01-1.758 1.445c-1.291.013-2.583-.03-3.871.037a1.211 1.211 0 00-.925.556c-.386 1.156-.647 2.354-.954 3.536-.151.582.052.837.674.824 1.223-.027 2.449-.009 3.676-.009zm106.627-49.572v-1.2c0-3.61.017-7.219-.024-10.829-.009-.815.174-1.146 1.063-1.117 1.9.062 3.807.066 5.706-.012.995-.041 1.253.285 1.25 1.256q-.047 16.872-.021 33.744a16.27 16.27 0 01-.029 2.123.983.983 0 01-.665.671c-2.191.049-4.384.017-6.576.029-.554 0-.751-.246-.724-.765.018-.336 0-.675 0-1.161a6.338 6.338 0 00-.726.381 11.308 11.308 0 01-16.288-3.837 14.831 14.831 0 01.094-15.132c2.092-3.677 5.519-5.36 9.69-5.574a14.17 14.17 0 016.4 1.18 8.483 8.483 0 00.85.243zm0 11.575v-4.35c0-1.931 0-1.931-1.765-2.66-.03-.012-.058-.03-.087-.042-3.7-1.479-7.249.054-8.423 3.689a11.654 11.654 0 00-.186 6.663c1.254 4.765 6.125 6.323 9.874 3.128a1.841 1.841 0 00.559-1.209c.058-1.738.022-3.48.024-5.22zm-109.272-8.87a9.287 9.287 0 0114.7-1.353c1.856 1.852 2.365 4.256 2.456 6.743.092 2.512.009 5.03.034 7.545.006.592-.2.783-.781.959-2.272.688-4.514 1.479-6.768 2.228-.115.038-.239.05-.479.1-.025-.462-.065-.864-.065-1.267 0-2.547.018-5.1-.01-7.642a10.882 10.882 0 00-.244-2.2 3.907 3.907 0 00-6.431-2.385 15.821 15.821 0 00-2.483 2.68 2.185 2.185 0 00-.275 1.275c-.019 4.676-.029 9.352 0 14.027.006.86-.205 1.2-1.133 1.169-1.934-.069-3.871-.048-5.806-.011-.731.014-1.038-.186-1.037-.973q.032-17.9.011-35.794c0-.729.274-.954.969-.944 2 .029 4 .04 6 0 .771-.016 1 .259.994 1.01-.026 4.547-.012 9.094-.012 13.641v.951zm57.896 10.579a7.143 7.143 0 006.643 6.844 13.793 13.793 0 009.516-2.484c.439-.3.895-.579 1.548-1 0 1.763.047 3.295-.041 4.819-.018.3-.524.62-.864.841a16.961 16.961 0 01-8.364 2.7 20.392 20.392 0 01-8.761-1.081c-6.189-2.4-8.917-8.022-7.849-14.6 1.257-7.753 8.271-11.6 15.349-10.6 6.463.913 10.685 6.032 10.934 12.435.082 2.1.1 2.089-2 2.084q-7.549-.016-15.1-.015c-.316.003-.635.036-1.011.057zm5.591-4.355c1.548 0 3.1-.009 4.645.005.515 0 .825-.135.711-.722a5.6 5.6 0 00-2.719-4.134 5.4 5.4 0 00-8.038 4.079c-.1.641.2.785.757.778 1.548-.017 3.097-.006 4.648-.006zm83.231 7.978c0 1.5.017 3.031-.022 4.559 0 .186-.29.4-.488.54a16.037 16.037 0 01-7.793 2.9 19.985 19.985 0 01-10.432-1.265 12.314 12.314 0 01-7.439-11.95c.188-4.738 1.969-8.654 6.127-11.185a13.884 13.884 0 019.685-1.725 12.022 12.022 0 019.407 6.894 15.634 15.634 0 011.407 6.849c.01.76-.433.712-.941.712q-7.98-.011-15.96-.009c-1.429 0-1.429 0-1.14 1.38a7.2 7.2 0 006.635 5.546 14.519 14.519 0 0010.063-2.944 6.585 6.585 0 01.566-.353c.044-.023.121.016.325.051zm-12.16-7.984h4.632c.431 0 .889.01.766-.656a5.441 5.441 0 00-5.266-4.839 5.321 5.321 0 00-5.507 4.734c-.12.665.206.775.744.771 1.543-.017 3.087-.006 4.631-.006zM94.484 33.743a13.356 13.356 0 00-7.538-3.65c-.217-.037-.5-.537-.505-.828-.044-1.837-.02-3.675-.019-5.514 0-3.386.02-6.772-.013-10.157-.007-.757.212-1.007.99-.988q3.047.074 6.1-.009c.794-.021 1.026.3 1 1.018-.028.752-.006 1.506-.006 2.5a11.818 11.818 0 015-3.455c5.41-1.611 12.233.828 12.4 8.427.12 5.382.014 10.77.034 16.155 0 .7-.194.967-.936.951-2-.044-4-.046-6 .009-.837.023-1.031-.3-1.027-1.072.025-4.514.041-9.029-.015-13.543a13.231 13.231 0 00-.482-3.512c-.739-2.532-3.463-2.944-5.387-2.034a8.6 8.6 0 00-3.436 3.579 1.9 1.9 0 00-.132.934q-.021 5.03-.021 10.06zM53.572 19.728c-1.3-.434-2.429-.878-3.595-1.186a10.691 10.691 0 00-6.01.081 6.935 6.935 0 00-4.726 7.086c.19 5.363 4.43 8.048 9.846 6.946 1.6-.325 3.142-.9 4.884-1.409v4.161c0 1.609 0 1.625-1.527 2.1a20.894 20.894 0 01-13.391.156c-5.946-2.048-8.964-7.422-8.356-13.58.605-6.135 4.8-10.243 10.6-11.529a19.445 19.445 0 019.19.355c.84.219 1.676.459 2.494.745.232.081.561.354.565.546.044 1.824.026 3.645.026 5.528zm171.125.012c.3-.513.462-.835.659-1.134a32.535 32.535 0 012.854-4.219c2.381-2.6 4.946-2.889 8.008-1.188 1.979 1.1 1.974 1.1 1.307 3.243-.523 1.686-1.032 3.377-1.572 5.148-.911-.46-1.719-.9-2.549-1.284a4.257 4.257 0 00-5.578 1.112c-1.966 2.327-3.379 4.891-3.223 8.122.122 2.508 0 5.027.04 7.541.013.815-.205 1.15-1.088 1.122-2-.062-4-.047-6-.01-.737.014-1.025-.195-1.023-.978q.034-11.748 0-23.5c0-.829.25-1.142 1.111-1.118q3 .083 6 .008c.8-.02 1 .286.981 1.013-.046 1.835-.043 3.672-.054 5.508a4.439 4.439 0 00.127.614zm-72.024 5.729c0 3.934-.02 7.869.016 11.8.007.8-.237 1.067-1.044 1.044a165.35 165.35 0 00-6.1-.035c-.7.006-.977-.23-.975-.951q.025-11.948 0-23.9c0-.574.2-.819.783-.815 2.194.014 4.388.021 6.582 0 .819-.009.733.533.733 1.049v11.8zm-36.632 26.707c0 .673-.026 1.34.007 2 .038.751-.406.817-.989.813-2.289-.016-4.578.024-6.866-.029-.873-.02-1.112.3-1.082 1.125.056 1.545.053 3.094.008 4.639-.021.723.233.966.94.958 2.514-.03 5.029.01 7.543-.041.849-.017 1.133.253 1.1 1.1-.085 2.028.252 1.819-1.8 1.82-3.289 0-6.577-.02-9.865.01-.752.007-1.082-.143-1.078-1q.045-10.005 0-20.011c0-.718.219-.947.943-.941q5.271.05 10.542 0c.774-.007 1.01.253.975 1.01-.1 2.136.2 1.838-1.881 1.852s-4.191.025-6.287-.012c-.8-.014-1.167.2-1.129 1.085.064 1.512.034 3.029-.006 4.542-.019.713.25.968.955.962 2.417-.021 4.835 0 7.253 0a6.364 6.364 0 01.717.118zm21.049 5.604a4.209 4.209 0 003.91 4.221c2.042.058 2.486-.029 5.588-1.514.7 1.706.289 2.813-1.33 3.522a8.577 8.577 0 01-7.3.184 6.892 6.892 0 01-3.729-5.017c-.854-3.506.454-7.142 3.249-8.593 3.464-1.8 8.4-.811 9.287 4.436.1.6.13 1.221.264 1.816.161.717-.12.9-.795.9-2.742-.021-5.483-.007-8.226 0-.29-.001-.574.027-.918.045zm7.047-2.058a11.634 11.634 0 00-.322-1.415 3.112 3.112 0 00-3.589-1.918 3.6 3.6 0 00-3.125 2.847c-.076.644.361.561.741.561 1.607 0 3.214.005 4.821 0 .465-.005.928-.046 1.475-.074zm86.549-1.997a18.513 18.513 0 00-3.206-1.154c-2.885-.463-5.048 1.491-5.152 4.472-.142 4.055 3.023 5.7 6.594 4.833.312-.076.621-.175.924-.28 1.2-.415 1.2-.418 1.2.827 0 1.8-.083 1.827-1.9 2.176a9.69 9.69 0 01-5.243-.188 6.62 6.62 0 01-4.443-5.383c-.514-2.7.366-7.021 3.688-8.53a8.406 8.406 0 017.022.082 1.015 1.015 0 01.494.725c.063.792.022 1.593.022 2.42zm-65.071.122c-.729-.349-1.239-.606-1.76-.839a4.366 4.366 0 00-5.135.589 4.965 4.965 0 00-1.287 5.265c.762 2.715 3.49 3.893 6.587 2.964.575-.173 1.14-.38 1.869-.624 0 .946.023 1.765-.021 2.579-.008.149-.271.351-.455.412-2.98.989-5.892 1.128-8.561-.868a6.071 6.071 0 01-2.417-4.051 8.851 8.851 0 011.482-7.075 6.162 6.162 0 014-2.307 9.122 9.122 0 014.665.461 1.287 1.287 0 011.041 1.489c-.059.598-.008 1.207-.008 2.005zm7.442-1.264l5.462-5.279c0 .617.023 1.292-.007 1.965-.028.616.2.872.84.853 1.187-.035 2.375-.01 3.729-.01a18.576 18.576 0 01-.032 2.117c-.021.175-.436.422-.679.433a43.723 43.723 0 01-3.094.007c-.537-.014-.766.2-.762.732.015 2.32-.023 4.641.045 6.959a1.958 1.958 0 002.539 1.821 23.417 23.417 0 002.687-.843c0 .747.024 1.471-.017 2.192a.734.734 0 01-.356.523c-1.849.851-3.735 1.24-5.656.229a3.988 3.988 0 01-2.115-3.757c-.038-2.222-.043-4.447.019-6.669.026-.945-.292-1.292-1.22-1.186a8.593 8.593 0 01-1.383-.087zm-49.153 1c0-3.316.028-6.633-.02-9.948-.012-.841.274-1.052 1.055-1.006 2.017.119 1.854-.386 1.855 1.854 0 6.343-.018 12.685.017 19.027 0 .877-.3 1.114-1.114 1.08-1.972-.082-1.791.269-1.792-1.831q-.003-4.587-.001-9.176zm76.15.407a4.773 4.773 0 01-.473-.316c-2.529-2.351-4.859-.414-5.424 1.908a11.411 11.411 0 00-.229 2.487c-.032 1.9-.025 3.8 0 5.7.006.571-.186.783-.775.809-2.149.094-2.152.114-2.157-2.021-.007-3.8.012-7.6-.029-11.4-.009-.834.21-1.129 1.085-1.09 1.852.083 1.853.038 1.868 1.926 0 .305.03.61.06 1.178.572-.755.969-1.315 1.4-1.844 1.826-2.224 3.858-1.8 5.735-.3a.675.675 0 01.159 1.069c-.427.586-.792 1.22-1.22 1.894zM150.135.086c2.488 0 3.828 2.2 2.787 4.759a6.416 6.416 0 01-5.385 4.154 3.035 3.035 0 01-3.432-3.584 6.552 6.552 0 016.03-5.329zm61.824 57.163c0 2.125-.027 4.25.015 6.374.014.721-.225.959-.937.948-2.453-.037-1.974.163-1.98-1.9-.012-3.9.024-7.79-.007-11.685-.006-.7.216-.921.874-.894 2.347.1 2.016-.391 2.028 1.945.009 1.738 0 3.477 0 5.215zm-2-9.823c-.627-.073-1.1-.348-1.1-1.135a2.214 2.214 0 012.027-2.074 1.125 1.125 0 011.243 1.162 2.4 2.4 0 01-2.17 2.047z" fill="#585858"/></svg>