<svg xmlns="http://www.w3.org/2000/svg" width="161" height="108.029"><defs><style>.a{fill:#585858}</style></defs><path class="a" d="M109.044 47.616a18.61 18.61 0 01-6.28 8.718c-4.88 3.872-10.568 5.739-16.641 6.575-5.506.758-11 .761-16.329-1.063-6.493-2.223-11.328-6.171-12.765-13.242-1.125-5.532.36-10.575 3.4-15.194 4.469-6.776 10.927-11.033 18.334-13.906 7.257-2.815 14.642-5.3 21.906-8.093 5.748-2.212 11.236-4.954 15.715-9.338a24 24 0 012.212-2.072c-.161.412-.308.831-.485 1.236-2.424 5.531-6.505 9.571-11.5 12.8-4.362 2.818-9.185 4.62-13.989 6.489-5.467 2.127-10.928 4.3-15.6 7.985a23.328 23.328 0 00-6.3 7.255c-4.614 8.6-.651 18.014 8.866 20.183 10.5 2.393 19.976-.146 28.2-7.16.433-.373.838-.782 1.256-1.173zM83.8 84.724l-3.828 22.67H71.41a10.511 10.511 0 01.09-1.086c2.038-10.638 4.1-21.273 6.1-31.917.172-.915.532-1.173 1.4-1.156 2.286.044 4.573.057 6.858-.006a1.571 1.571 0 011.773 1.184c2.893 7.456 5.842 14.891 8.711 22.175l3.895-23.251h8.7c-.255 1.411-.486 2.754-.743 4.092-1.811 9.455-3.649 18.9-5.414 28.366-.24 1.288-.693 1.8-2.064 1.721-2.234-.123-4.481-.062-6.722-.019a1.444 1.444 0 01-1.6-1.044c-2.507-6.23-5.075-12.437-7.6-18.66-.365-.904-.606-1.857-.994-3.069zM58.208 95.808h-5.149c.363-1.818.667-3.488 1.055-5.139a1.1 1.1 0 01.746-.707c4.338-.044 8.678-.031 13.289-.031-1.1 5.795-2.172 11.428-3.264 17.173-5.846-.575-11.5 1.839-17.292.529a27.608 27.608 0 01-5-1.49c-6-2.635-8.884-8.323-7.666-15 1.6-8.791 7.141-14.131 15.338-16.884a32.572 32.572 0 0119.475-.249c.876.244 1.163.591.94 1.5-.381 1.549-.66 3.123-.975 4.654-2.13-.423-4.08-.939-6.062-1.176a20.64 20.64 0 00-11.308 1.494 13.85 13.85 0 00-8.128 13.916 7.626 7.626 0 005.788 6.966 26 26 0 006.109.289c.408-.006 1.037-.664 1.165-1.131.397-1.456.606-2.965.939-4.714zM160.07 79.689c-3.336-.294-6.471-.727-9.615-.8a15.773 15.773 0 00-8.1 2.1 13.5 13.5 0 00-7.2 11.957c-.2 5.03 2.811 8.308 8.079 8.89a10.509 10.509 0 004.122-.237c1.678-.513.934-2.372 1.415-3.582a12 12 0 00.409-2.147h-5.163c.385-1.908.7-3.606 1.095-5.288a.986.986 0 01.707-.608c4.292-.037 8.585-.027 12.974-.027a6.641 6.641 0 01-.006 1.018c-.885 4.981-1.8 9.956-2.657 14.942-.173 1.01-.589 1.183-1.595 1.214-2.631.081-5.264.323-7.878.647a26.213 26.213 0 01-10.779-.723c-7.611-2.249-11.406-8.418-9.917-16.221 1.543-8.088 6.606-13.245 14.078-16.121a32.187 32.187 0 0119.823-.913c1.012.254 1.294.692 1.056 1.685-.356 1.479-.602 2.978-.848 4.214zM11.145 95.749c-.649 3.31-1.265 6.547-1.923 9.776-.463 2.272-.013 1.922-2.31 1.949-2.106.024-4.214-.01-6.32-.026a3 3 0 01-.592-.187c.292-1.546.583-3.1.882-4.662 1.789-9.323 3.6-18.641 5.341-27.972.212-1.135.652-1.433 1.749-1.4 5.06.154 10.125.163 15.182.378a16.383 16.383 0 014.576.984c4.79 1.661 6.922 5.826 5.479 10.69-1.541 5.19-5.341 8.114-10.365 9.333a71.229 71.229 0 01-9.306 1.126c-.749.078-1.512.011-2.393.011zm1.059-5.523c3.071.125 5.919.093 8.631-1.045a5.976 5.976 0 003.765-4.714c.45-2.511-.453-4.175-2.761-4.978-2.417-.842-4.916-.707-7.45-.605l-2.184 11.342zm101.002-5.899h8.62c-.535 2.754-1.049 5.418-1.57 8.08-.894 4.562-1.826 9.117-2.664 13.689-.2 1.108-.655 1.451-1.762 1.41-2.313-.084-4.632-.025-7.179-.025l4.555-23.154z"/><path class="a" d="M81.999 35.736c.771-.666 1.51-1.374 2.318-1.992a36.69 36.69 0 019.577-5.049c3.8-1.426 7.607-2.89 11.3-4.581A28.228 28.228 0 00115.63 16.1a20.143 20.143 0 01-5.311 9.009c-5.188 5.309-11.681 8.2-18.78 9.829-2.647.607-5.39.8-8.092 1.169a9.8 9.8 0 01-1.3.008zm30.506-3.368a18.923 18.923 0 01-4.415 7.893 25.993 25.993 0 01-19.589 8.518 8.981 8.981 0 01-6.14-1.956 11.1 11.1 0 01-2.031-2.638c12.416.613 23.272-2.654 32.175-11.817zm11.554 40.947c-.425 2.087-.8 4-1.225 5.9a.868.868 0 01-.627.532c-2.623.037-5.246.023-8.043.023.415-2.076.772-3.983 1.2-5.873a.983.983 0 01.744-.556c2.581-.042 5.161-.026 7.951-.026z"/></svg>