<svg xmlns="http://www.w3.org/2000/svg" width="207.086" height="86.856"><path d="M202.626 54.425c-23.386-23.53-57.566-35.38-88.987-37.259l3.489-9.885c33.044 2.236 68.581 20.7 89.959 47.145zM117.016.003l-6.435 17.164-3.434-.038 2.043-5.886C70.051 10.665 30.096 24.266 4.881 54.422H0C27.24 16.922 70.017.17 117.016 0zm15.688 47.816h31.013l-2.307 7.7h-22.134l-1.973 6.835 18.951-.015L154 69.992l-18.961-.007-2.684 9.294h22.193l-2.2 7.514h-31.056l11.412-38.974zm-22.922 7.7l14.426.015 2.255-7.695-12.939-.015c-13.422-.068-26.959 3.474-31.388 18.64-3.1 10.626 2.172 18.875 13.419 20.346l19.467-.022 5.873-20.019c-7.422-.265-9.134 2.469-10.564 7.015l-1.636 5.635-9.145-.007a8.89 8.89 0 01-8.9-10.991c1.89-8.383 9.758-12.9 19.133-12.889zm-46.374 11.2c9.854.113 13.529-11.16 4.941-11.16l-20.073-.075 2.241-7.606 18.046-.007c21.765-.007 12.766 26.467-5.771 26.483l-8.7-.015a5.554 5.554 0 00-5.553 3.706l-2.561 8.808-8.626.007 2.792-9.593c1.817-6.243 6.329-10.416 14.778-10.523.314 0 8.172-.03 8.487-.03z" fill="#585858"/></svg>