<svg xmlns="http://www.w3.org/2000/svg" width="166.926" height="86.626"><defs><style>.a{fill:#585858}</style></defs><path class="a" d="M112.919 33.249a7.327 7.327 0 00-4.292-1.228 7.571 7.571 0 00-4.544 1.5V22.578h-5.415v35.678h5.415V39.639a3 3 0 013.111-2.814 3.3 3.3 0 012.771 1.291c.674 1 .632 2.329.632 3.786l-.006 16.357h5.412V41.69c0-4.882-.636-6.622-3.084-8.44M68.886 45.496c0 3.5-.11 4.478-.137 4.782-.185 1.935-1.011 3.989-3.268 3.989s-3.17-2.191-3.266-4.084c0-.011-.14-1.19-.14-4.686s.137-4.952.14-4.965c.028-1.969 1.048-3.94 3.266-3.94s3.242 1.971 3.265 3.922c0 .031.14 1.487.14 4.982m5.236-4.209c-.767-7.627-5.1-9.261-8.65-9.261-5.036 0-8.108 3.2-8.659 9.253-.042.483-.122 1.372-.15 4.217-.018 2.078.114 3.782.14 4.211.35 5.648 3.588 9.128 8.669 9.128s8.313-3.543 8.666-9.131c.023-.4.14-2.131.14-4.209-.001-.936-.084-3.484-.156-4.208zm50.917 1c.039-1.182.039-1.429.062-1.773.155-2.137 1.107-3.9 3.3-3.922 2.6-.02 3.207 2.525 3.3 3.935.052.74.1 1.236.1 1.761h-6.757m6.682 7.146a7.055 7.055 0 01-.047.883c-.149 1.259-.652 3.949-3.287 3.949-2.244 0-3.1-2.043-3.252-4.072a33.661 33.661 0 01-.132-3.415h12.069s.021-1.794-.012-2.875c-.017-.424-.039-1.132-.141-2.621a12.1 12.1 0 00-2.327-6.4 7.7 7.7 0 00-6.2-2.856c-4.873 0-7.922 3.169-8.521 9.256a37.337 37.337 0 00-.143 4.214c0 2.078.114 3.811.137 4.211.331 5.555 3.615 9.128 8.527 9.128s8.191-3.48 8.531-9.4z"/><path class="a" d="M39.544 4.37h87.967l33.637 39.35-33.627 38.813H39.542L5.776 43.59 39.545 4.372m90.094-4.37H37.421L.002 43.453l37.419 43.173h92.213l37.291-43.03z"/><path class="a" d="M40.63 27.425h2.561c2.786 0 4.3 1.477 4.365 4.113.005.195.029.415.029.828a6.966 6.966 0 01-.029.832c-.153 1.565-.842 4.3-4.1 4.3h-2.823V27.425m12.824 28.626l-.558-8.762c-.241-3.919-1.262-6.223-3.287-7.408 1.464-.88 3.355-3.059 3.341-7.609-.028-6.926-4.328-9.354-9.394-9.411h-8.271v35.395h5.336v-16.19h2.973c1.719 0 3.66 1.5 3.952 5.726l.558 8.288a13.5 13.5 0 00.265 2.179h5.352a12.567 12.567 0 01-.27-2.207zm36.476-6.863c-.021.394-.045.747-.065.994-.153 1.979-.852 4.084-3.269 4.084-2.253 0-3.146-2.282-3.31-3.959-.1-1.016-.075-1.805-.1-4.811a43.37 43.37 0 01.138-4.965c.19-2.208 1.05-3.922 3.268-3.94 2.282-.015 3.242 1.971 3.269 3.922 0 .018.044.49.083 1.526h5.352a25.641 25.641 0 00-.045-.83c-.61-7.394-5.114-9.184-8.669-9.184-5.035 0-8.1 3.2-8.659 9.253-.042.483-.12 1.372-.147 4.217-.018 2.078.114 3.782.14 4.211.348 5.648 3.586 9.113 8.666 9.128 5.262.018 8.163-3.19 8.669-9.131a2.739 2.739 0 00.029-.517h-5.355"/></svg>