<svg xmlns="http://www.w3.org/2000/svg" width="156.536" height="86.397"><path d="M59.825.225h.321l-.321.642zm96.711 65.416a30.987 30.987 0 00-3.47-10.86q-8.966-14.506-17.897-28.98c-6.876-10.635.675-13.3 10.057-12.691 1.349.064 2.281.129 3.631.193-1.671-4.435-2.957-8.869-4.627-13.302h-13.269a24.635 24.635 0 00-10.443 2.057c-10.538 4.464-11.534 12.336-5.076 24.543q6.94 10.94 13.88 21.944c4.4 8.386 1.542 16.515-8.418 16.515H59.825v21.341h71.617a36.748 36.748 0 008.8-.675c9.671-2.153 15.422-7.9 16.29-15.711v-4.374zM59.825 43.793c1.414 9.253 7.293 16.8 22.105 17.832 8.1.579 16.29-.129 24.451-.192V.225L91.088.418V48.13c-3.727-.129-7.454 0-11.021-1.414-6.233-2.474-5.88-7.968-3.406-17.511C79.681 19.471 82.67 9.736 85.69.001h-16.1l-7.034 21.366a68.923 68.923 0 00-2.731 12.016v10.41zM36.018.225h23.807v.642L36.917 48.13h21.816l-5.2 13.3H36.018zm23.807 33.158a40.311 40.311 0 000 10.41zm0 31.68v21.338H36.018V65.063zM20.177.225h15.84v61.207H11.856L34.989 13.72l-21.3.193zm15.84 64.838v21.338H0l10.249-21.338z" fill="#585858" fill-rule="evenodd"/></svg>