<svg xmlns="http://www.w3.org/2000/svg" width="207.19" height="79.273"><path d="M113.119 79.274v-37.95c.792-.06 1.451-.151 2.111-.153 7.32-.01 14.639.033 21.957-.037a2.694 2.694 0 012.946 1.9c6.088 14.685-1.308 32.587-19.031 35.766-.6.108-1.178.311-1.767.471zm65.055-.001c-.06-.682-.172-1.364-.172-2.044-.012-11.212.025-22.423-.041-33.635-.01-1.808.4-2.509 2.391-2.478 7.243.12 14.49.1 21.735.006a2.794 2.794 0 013.05 2.051c6.042 14.732-1.524 32.426-18.993 35.617-.593.11-1.169.319-1.752.483zM0 79.273c4.311-12.095 8.663-24.175 12.885-36.3.587-1.69 1.4-2.125 3.087-2.1 6.621.093 13.246.039 19.866.039h2.378v21.423c-3.469 0-6.89.089-10.3-.037-1.711-.062-2.559.419-3.087 2.138-1.534 4.981-3.278 9.9-4.939 14.838zm59.253 0c-1.777-5.333-3.515-10.681-5.4-15.977-.172-.489-1.269-.9-1.947-.919-3.566-.091-7.139-.041-10.842-.041V40.909h3.933c6.279 0 12.557-.035 18.836.048a2.571 2.571 0 012.011 1.07c4.493 12.393 8.887 24.824 13.3 37.247zm27.348 0V41.025h23.924v35.99c0 .753.068 1.505.1 2.26zm65.054.001q-.034-18.656-.06-37.313a6.147 6.147 0 01.149-.921h23.446a11.174 11.174 0 01.209 1.547q.016 17.732 0 35.461a11.165 11.165 0 01-.129 1.225zm-41.242-41.048H86.805V.156h23.608zm64.851-.002H151.71V.156h23.553zM128.7 30.303l8.792 7.278-.319.57h-23.919V.351c8.875-1.34 15.908 1.093 20.007 8.07 4.27 7.265 2.686 14.554-4.561 21.882zm64.992.023l8.769 7.3-.321.547h-23.968V.347c8.79-1.271 15.655.964 19.835 7.757 4.469 7.261 3.09 13.996-4.315 22.222zM38.234.048v38.178h-23.6c.158-.578.274-1.149.469-1.692 4.118-11.57 8.263-23.132 12.35-34.715.446-1.263.972-1.9 2.461-1.812 2.678.145 5.369.041 8.32.041zm2.818.003c3.177 0 6.073-.108 8.949.083.624.041 1.451 1.055 1.717 1.789 3.519 9.674 6.953 19.374 10.401 29.074.846 2.372 1.684 4.748 2.559 7.226H41.052z" fill="#585858"/></svg>