<svg width="531" height="557" viewBox="0 0 531 557" fill="none" xmlns="http://www.w3.org/2000/svg">
<g clip-path="url(#clip0)">
<path d="M98.7443 288.953C74.0328 187.473 122.755 85.461 207.57 61.1021C292.385 36.7432 381.172 99.2634 405.883 200.742C430.595 302.22 474.974 492.249 390.161 516.607C305.348 540.966 123.456 390.433 98.7443 288.953Z" fill="white"/>
<path d="M283.209 148.039V352.595C283.208 357.109 281.472 361.439 278.383 364.631C275.293 367.823 271.104 369.617 266.735 369.619H165.637C163.474 369.618 161.333 369.177 159.335 368.321C157.338 367.465 155.523 366.21 153.994 364.629C152.466 363.049 151.253 361.172 150.427 359.107C149.6 357.042 149.175 354.829 149.176 352.595V148.039C149.175 145.804 149.6 143.591 150.427 141.526C151.253 139.461 152.466 137.585 153.994 136.004C155.523 134.423 157.338 133.169 159.335 132.313C161.333 131.457 163.474 131.016 165.637 131.015H194.021C193.651 131.014 193.285 130.938 192.943 130.791C192.601 130.644 192.291 130.429 192.03 130.158C191.769 129.887 191.562 129.565 191.422 129.211C191.281 128.857 191.209 128.478 191.211 128.096V114.904C191.211 114.134 191.507 113.396 192.034 112.851C192.561 112.307 193.276 112.001 194.021 112H238.366C239.111 112.001 239.826 112.307 240.353 112.851C240.88 113.396 241.176 114.134 241.177 114.904V128.096C241.178 128.478 241.106 128.857 240.966 129.211C240.825 129.565 240.618 129.887 240.357 130.158C240.096 130.429 239.786 130.644 239.444 130.791C239.103 130.938 238.736 131.014 238.366 131.015H266.735C271.104 131.016 275.293 132.81 278.383 136.002C281.472 139.195 283.208 143.524 283.209 148.039V148.039Z" fill="#DBDB35"/>
<path d="M237.173 152.386H158.498C143.21 152.386 130.817 165.192 130.817 180.991V362.387C130.817 378.185 143.21 390.992 158.498 390.992H237.173C252.461 390.992 264.855 378.185 264.855 362.387V180.991C264.855 165.192 252.461 152.386 237.173 152.386Z" stroke="#454545" stroke-width="5" stroke-miterlimit="10"/>
<path d="M218.09 133.376H177.584C174.97 133.376 172.851 135.565 172.851 138.266V147.495C172.851 150.196 174.97 152.386 177.584 152.386H218.09C220.703 152.386 222.822 150.196 222.822 147.495V138.266C222.822 135.565 220.703 133.376 218.09 133.376Z" stroke="#454545" stroke-width="5" stroke-miterlimit="10"/>
<path d="M197.834 192.495V234.784M177.372 348.315H218.297H177.372ZM177.372 213.64H218.297H177.372Z" stroke="#454545" stroke-width="5" stroke-miterlimit="10" stroke-linecap="round"/>
<path d="M389 344.435L344.741 390.131L300.659 344.579L309.321 335.628L338.606 365.887V152.876H350.879V365.887L380.303 335.446L389 344.435Z" fill="#454545"/>
</g>
<defs>
<clipPath id="clip0">
<rect width="531" height="557" fill="white"/>
</clipPath>
</defs>
</svg>
