<svg width="531" height="557" viewBox="0 0 531 557" fill="none" xmlns="http://www.w3.org/2000/svg">
<g clip-path="url(#clip0)">
<path d="M98.7443 288.953C74.0328 187.473 122.755 85.461 207.57 61.1021C292.385 36.7432 381.172 99.2634 405.883 200.742C430.595 302.22 474.974 492.249 390.161 516.607C305.348 540.966 123.456 390.433 98.7443 288.953Z" fill="white"/>
<path d="M263.797 208.369C266.247 210.814 268.191 213.718 269.518 216.916C270.845 220.113 271.528 223.54 271.53 227.002V349.289C271.603 356.214 269 362.899 264.265 367.951C259.53 373.004 253.029 376.033 246.115 376.409C241.102 372.068 234.692 369.68 228.061 369.683C221.429 369.686 215.022 372.081 210.013 376.427C205.004 372.081 198.596 369.686 191.965 369.683C185.334 369.68 178.924 372.068 173.911 376.409C166.998 376.033 160.496 373.003 155.762 367.951C151.028 362.898 148.425 356.213 148.498 349.289V227.002C148.512 221.221 150.42 215.605 153.929 211.012C157.438 206.419 162.355 203.103 167.928 201.571C160.037 194.165 154.238 184.808 151.115 174.445C147.993 164.082 147.657 153.078 150.143 142.544C152.628 132.01 157.847 122.317 165.272 114.444C172.698 106.57 182.067 100.794 192.437 97.6977V67.8126C192.445 65.7426 193.271 63.7597 194.734 62.2962C196.198 60.8327 198.181 60.0073 200.25 60H219.78C221.849 60.0079 223.831 60.8335 225.295 62.297C226.758 63.7604 227.583 65.743 227.591 67.8126V97.6977C237.961 100.794 247.33 106.57 254.756 114.444C262.181 122.317 267.4 132.01 269.885 142.544C272.371 153.078 272.035 164.082 268.913 174.445C265.79 184.808 259.991 194.165 252.1 201.571C256.522 202.786 260.552 205.128 263.797 208.369V208.369Z" fill="#DBDB35"/>
<path d="M166.074 147.895C164.181 149.496 150.804 161.204 151.286 179.792C151.587 188.283 154.582 196.459 159.838 203.135M166.074 253.372V358.846V253.372Z" stroke="#454545" stroke-width="5" stroke-miterlimit="10" stroke-linecap="round"/>
<path d="M243.292 225.948C245.742 228.393 247.686 231.297 249.013 234.495C250.34 237.692 251.023 241.119 251.025 244.581V366.868C251.098 373.793 248.495 380.478 243.76 385.53C239.026 390.583 232.524 393.612 225.61 393.988C220.597 389.647 214.187 387.259 207.556 387.262C200.924 387.265 194.517 389.66 189.508 394.006C184.499 389.66 178.091 387.265 171.46 387.262C164.829 387.259 158.419 389.647 153.406 393.988C146.492 393.612 139.99 390.583 135.255 385.53C130.521 380.478 127.918 373.793 127.991 366.868V244.581C128.005 238.8 129.913 233.184 133.422 228.591C136.931 223.998 141.848 220.682 147.421 219.15C139.53 211.744 133.73 202.387 130.608 192.024C127.485 181.661 127.15 170.657 129.635 160.123C132.121 149.589 137.339 139.896 144.765 132.023C152.19 124.149 161.56 118.373 171.93 115.277V85.3916C171.938 83.3212 172.764 81.3379 174.228 79.8744C175.692 78.4108 177.675 77.5857 179.746 77.579H199.275C201.344 77.5869 203.326 78.4125 204.79 79.876C206.253 81.3394 207.078 83.322 207.086 85.3916V115.277C217.456 118.373 226.825 124.149 234.251 132.023C241.676 139.896 246.895 149.589 249.38 160.123C251.866 170.657 251.531 181.661 248.408 192.024C245.285 202.387 239.486 211.744 231.595 219.15C236.017 220.365 240.047 222.707 243.292 225.948V225.948Z" stroke="#454545" stroke-width="4.33" stroke-miterlimit="10" stroke-linecap="round"/>
<path d="M377 349.437L333.128 393.28L289.431 349.575L298.017 340.988L327.046 370.019V165.649H339.212V370.019L368.379 340.812L377 349.437Z" fill="#454545"/>
</g>
<defs>
<clipPath id="clip0">
<rect width="531" height="557" fill="white"/>
</clipPath>
</defs>
</svg>
