<svg width="531" height="557" viewBox="0 0 531 557" fill="none" xmlns="http://www.w3.org/2000/svg">
<g clip-path="url(#clip0)">
<path d="M98.7443 288.953C74.0328 187.473 122.755 85.461 207.57 61.1021C292.385 36.7432 381.172 99.2634 405.883 200.742C430.595 302.22 474.974 492.249 390.161 516.607C305.348 540.966 123.456 390.433 98.7443 288.953Z" fill="white"/>
<path d="M383.292 270.871C387.556 252.951 387.556 234.28 383.292 216.36C380.353 203.558 372.159 167.863 342.449 150.247C332.152 144.142 323.753 142.62 307.774 140.391C291.269 138.089 246.711 132.454 199.605 154.287C195.376 156.255 184.219 162.871 161.902 176.117C159.789 177.371 141.069 188.847 115.87 205.066C89.4818 222.049 84.8287 225.962 80.598 233.4C78.781 236.595 67.4442 256.518 76.4128 275.284C79.9373 282.368 85.5784 288.18 92.5541 291.914H375.347C378.739 285.204 381.402 278.149 383.292 270.871V270.871Z" fill="#DBDB35"/>
<path d="M400.071 278.286C404.465 260.382 404.465 241.68 400.071 223.775C397.042 210.973 388.602 175.278 357.991 157.662C347.384 151.558 338.727 150.035 322.266 147.808C305.26 145.505 259.353 139.869 210.821 161.702C206.463 163.67 194.969 170.286 171.977 183.532C169.8 184.786 150.512 196.262 124.549 212.482C97.3618 229.465 92.5678 233.378 88.2084 240.815C86.3354 244.01 74.6563 263.935 83.896 282.699C87.5825 289.832 93.3938 295.644 100.526 299.331H391.885C395.373 292.636 398.118 285.579 400.071 278.286V278.286Z" stroke="#454545" stroke-width="5" stroke-miterlimit="10"/>
<path d="M285.193 166.897L287.49 213.102M362.836 213.535L150.969 221.667C164.916 207.173 190.417 185.024 228.066 173.062C249.105 166.378 265.826 165.451 284.117 164.43C313.752 162.789 328.835 162.167 341.939 171.87C357.652 183.513 361.648 203.232 362.836 213.535V213.535Z" stroke="#454545" stroke-width="5" stroke-miterlimit="10"/>
<path d="M152.921 234.691H163.84C170.644 234.691 176.159 229.176 176.159 222.372C176.159 215.569 170.644 210.053 163.84 210.053H152.921C146.117 210.053 140.601 215.569 140.601 222.372C140.601 229.176 146.117 234.691 152.921 234.691Z" fill="white" stroke="#454545" stroke-width="5" stroke-miterlimit="10"/>
<path d="M362.836 331.974C380.865 331.974 395.481 317.359 395.481 299.329C395.481 281.3 380.865 266.685 362.836 266.685C344.807 266.685 330.192 281.3 330.192 299.329C330.192 317.359 344.807 331.974 362.836 331.974Z" fill="white" stroke="#454545" stroke-width="5" stroke-miterlimit="10"/>
<path d="M362.836 308.505C367.903 308.505 372.011 304.398 372.011 299.331C372.011 294.264 367.903 290.156 362.836 290.156C357.769 290.156 353.662 294.264 353.662 299.331C353.662 304.398 357.769 308.505 362.836 308.505Z" fill="white" stroke="#454545" stroke-width="5" stroke-miterlimit="10"/>
<path d="M131.929 332.798C149.959 332.798 164.574 318.182 164.574 300.153C164.574 282.124 149.959 267.509 131.929 267.509C113.9 267.509 99.2848 282.124 99.2848 300.153C99.2848 318.182 113.9 332.798 131.929 332.798Z" fill="white" stroke="#454545" stroke-width="5" stroke-miterlimit="10"/>
<path d="M131.931 309.328C136.998 309.328 141.106 305.22 141.106 300.153C141.106 295.086 136.998 290.979 131.931 290.979C126.864 290.979 122.756 295.086 122.756 300.153C122.756 305.22 126.864 309.328 131.931 309.328Z" fill="white" stroke="#454545" stroke-width="5" stroke-miterlimit="10"/>
<path d="M291.048 400.937H348.103C369.112 400.937 389.261 392.591 404.117 377.735C418.973 362.88 427.319 342.731 427.319 321.721C427.319 300.712 418.973 280.563 404.117 265.708C389.261 250.852 369.112 242.506 348.103 242.506H343.606V247.624C345.226 247.912 346.846 248.245 348.421 248.669C349.84 249.057 351.219 249.579 352.54 250.228C371.097 251.412 388.467 259.764 400.979 273.52C413.49 287.276 420.163 305.358 419.587 323.944C419.011 342.53 411.231 360.164 397.891 373.119C384.552 386.073 366.698 393.334 348.103 393.366H291.048V400.937Z" fill="#454545"/>
<path d="M334.159 263.567C342.133 263.567 348.597 257.103 348.597 249.129C348.597 241.155 342.133 234.691 334.159 234.691C326.185 234.691 319.721 241.155 319.721 249.129C319.721 257.103 326.185 263.567 334.159 263.567Z" fill="#DBDB35" stroke="#454545" stroke-width="4.268" stroke-miterlimit="10"/>
<path d="M274.001 414.315V379.207H296.791C300.059 379.207 303.192 380.505 305.503 382.815C307.813 385.125 309.111 388.259 309.111 391.526V401.995C309.111 405.263 307.813 408.396 305.503 410.707C303.192 413.017 300.059 414.315 296.791 414.315H274.001ZM274.001 419V374.522Z" fill="white"/>
<path d="M274.001 419V374.522M274.001 414.315V379.207H296.791C300.059 379.207 303.192 380.505 305.503 382.815C307.813 385.125 309.111 388.259 309.111 391.526V401.995C309.111 405.263 307.813 408.396 305.503 410.707C303.192 413.017 300.059 414.315 296.791 414.315H274.001Z" stroke="#454545" stroke-width="5" stroke-miterlimit="10" stroke-linecap="round"/>
<path d="M274.648 388.094H262.952M274.648 405.427H262.952H274.648Z" stroke="#454545" stroke-width="3.606" stroke-miterlimit="10" stroke-linecap="round"/>
</g>
<defs>
<clipPath id="clip0">
<rect width="531" height="557" fill="white"/>
</clipPath>
</defs>
</svg>
