<svg xmlns="http://www.w3.org/2000/svg" width="234" height="188.075"><defs><style>.b,.c{fill:none;stroke:#454545;stroke-miterlimit:10;stroke-width:5px}.c{fill:#fff}</style></defs><g transform="translate(-702 -1800)"><path d="M906.919 1887.75a77.752 77.752 0 000-36c-1.941-8.455-7.352-32.028-26.973-43.662-6.8-4.032-12.347-5.037-22.9-6.509-10.9-1.52-40.327-5.242-71.436 9.177-2.793 1.3-10.161 5.669-24.9 14.417-1.395.828-13.758 8.407-30.4 19.118-17.427 11.216-20.5 13.8-23.294 18.712-1.2 2.11-8.687 15.268-2.764 27.661a25.18 25.18 0 0010.66 10.983h186.76a69.533 69.533 0 005.247-13.897z" fill="#dbdb35"/><path class="b" d="M918 1892.647a75.509 75.509 0 000-36c-2-8.455-7.574-32.028-27.79-43.662-7.005-4.031-12.722-5.037-23.593-6.508-11.231-1.521-41.549-5.243-73.6 9.176-2.878 1.3-10.469 5.669-25.653 14.417-1.438.828-14.176 8.407-31.322 19.119-17.955 11.216-21.121 13.8-24 18.711-1.237 2.11-8.95 15.269-2.848 27.661a25.592 25.592 0 0010.983 10.984h192.417a68.3 68.3 0 005.406-13.898z"/><path class="b" d="M893.41 1849.884l-139.92 5.371c9.211-9.572 26.052-24.2 50.916-32.1 13.894-4.414 24.937-5.026 37.017-5.7 19.571-1.084 29.532-1.495 38.186 4.913 10.377 7.689 13.016 20.712 13.801 27.516zm-51.277-30.8l1.517 30.514"/><rect class="c" width="23.483" height="16.271" rx="8.136" transform="rotate(180 385.063 931.928)"/><circle class="c" cx="21.559" cy="21.559" r="21.559" transform="translate(871.851 1884.985)"/><circle class="c" cx="6.059" cy="6.059" r="6.059" transform="translate(887.351 1900.486)"/><circle class="c" cx="21.559" cy="21.559" r="21.559" transform="translate(719.357 1885.529)"/><circle class="c" cx="6.059" cy="6.059" r="6.059" transform="translate(734.858 1901.029)"/><path d="M846 1973.647h37.68a52.315 52.315 0 100-104.63h-2.97v3.38c1.07.19 2.14.41 3.18.69a15.383 15.383 0 012.72 1.03 47.313 47.313 0 01-2.93 94.53H846z" fill="#454545"/><circle cx="9.535" cy="9.535" r="9.535" transform="translate(864.936 1863.856)" stroke-width="4.268" stroke="#454545" stroke-miterlimit="10" fill="#dbdb35"/><path d="M834.742 1982.482v-23.186h15.051a8.136 8.136 0 018.136 8.136v6.914a8.136 8.136 0 01-8.136 8.136h-15.051zm0 3.094v-29.374" stroke-linecap="round" fill="#fff" stroke-width="5" stroke="#454545" stroke-miterlimit="10"/><path d="M835.169 1976.612h-7.724m7.724-11.447h-7.724" stroke-width="3.606" stroke-linecap="round" stroke="#454545" stroke-miterlimit="10" fill="none"/><path fill="none" d="M846 1973.647v-5"/></g></svg>