<svg xmlns="http://www.w3.org/2000/svg" width="110.135" height="146.966"><path d="M61.05 64.322a11.421 11.421 0 013.353 8.078v53.015a11.652 11.652 0 01-11.02 11.757 11.951 11.951 0 00-15.654.008 11.951 11.951 0 00-15.654-.008 11.652 11.652 0 01-11.019-11.757V72.4a11.463 11.463 0 018.425-11.025 26.687 26.687 0 0110.627-45.032V3.387A3.4 3.4 0 0133.496 0h8.468a3.4 3.4 0 013.387 3.387v12.956a26.687 26.687 0 0110.627 45.032 11.48 11.48 0 015.072 2.947z" fill="#dbdb35"/><path d="M18.677 83.832v45.726m0-91.453c-.821.694-6.621 5.77-6.412 13.828a17.351 17.351 0 003.708 10.12" fill="none" stroke="#454545" stroke-linecap="round" stroke-miterlimit="10" stroke-width="5"/><path d="M52.159 71.943a11.421 11.421 0 013.353 8.078v53.015a11.652 11.652 0 01-11.02 11.757 11.951 11.951 0 00-15.654.008 11.951 11.951 0 00-15.654-.008 11.652 11.652 0 01-11.02-11.757V80.021a11.463 11.463 0 018.425-11.025 26.687 26.687 0 0110.627-45.032V11.008a3.4 3.4 0 013.389-3.387h8.468a3.4 3.4 0 013.387 3.387v12.956a26.687 26.687 0 0110.627 45.032 11.48 11.48 0 015.072 2.947z" stroke-width="4.33" fill="none" stroke="#454545" stroke-linecap="round" stroke-miterlimit="10"/><path d="M110.135 125.479l-19.023 19.007-18.947-18.947 3.723-3.723 12.587 12.586v-88.6h5.275v88.6l12.647-12.662z" fill="#454545"/></svg>