<svg xmlns="http://www.w3.org/2000/svg" width="20.308" height="20.43" viewBox="0 0 26.308 24.43"><defs><style>.a{fill:#83b783;}.b{fill:#454545;}</style></defs><g transform="translate(-530.714 -1498.775)"><path class="a" d="M557.022,1499.284a10.245,10.245,0,0,1-4.567,7.877,10.44,10.44,0,0,1-6.585,1.8,46.815,46.815,0,0,1-.233,14.243l-2.024-.345a44.732,44.732,0,0,0,.189-13.827c.255-.073.5-.158.751-.253-.276-.057-.548-.126-.817-.208.025.153.048.308.066.461a10.4,10.4,0,0,1-7.29-.564,5.056,5.056,0,1,1,3.307-7.2,10.482,10.482,0,0,1,4.439,3.812,10.506,10.506,0,0,1,3.755-4.483A10.265,10.265,0,0,1,557.022,1499.284Z" transform="translate(0 0)"/><path class="b" d="M549.883,1512.79c-.246.1-.5.18-.751.253-.018-.153-.041-.308-.066-.461C549.335,1512.664,549.607,1512.732,549.883,1512.79Z" transform="translate(-5.33 -4.01)"/></g></svg>