<svg xmlns="http://www.w3.org/2000/svg" xmlns:xlink="http://www.w3.org/1999/xlink" width="1065" height="332" viewBox="0 0 1065 332"><defs><style>.a{fill:none;}.b{clip-path:url(#a);}.c{fill:#44c1c1;}</style><clipPath id="a"><rect class="a" width="1065" height="332"/></clipPath></defs><g class="b"><g transform="translate(-20073 5238)"><circle class="c" cx="5.5" cy="5.5" r="5.5" transform="translate(20073 -5238)"/></g><g transform="translate(-20042 5238)"><circle class="c" cx="5.5" cy="5.5" r="5.5" transform="translate(20073 -5238)"/></g><g transform="translate(-20011 5238)"><circle class="c" cx="5.5" cy="5.5" r="5.5" transform="translate(20073 -5238)"/></g><g transform="translate(-19980 5238)"><circle class="c" cx="5.5" cy="5.5" r="5.5" transform="translate(20073 -5238)"/></g><g transform="translate(-19949 5238)"><circle class="c" cx="5.5" cy="5.5" r="5.5" transform="translate(20073 -5238)"/></g><g transform="translate(-19918 5238)"><circle class="c" cx="5.5" cy="5.5" r="5.5" transform="translate(20073 -5238)"/></g><g transform="translate(-19887 5238)"><circle class="c" cx="5.5" cy="5.5" r="5.5" transform="translate(20073 -5238)"/></g><g transform="translate(-19856 5238)"><circle class="c" cx="5.5" cy="5.5" r="5.5" transform="translate(20073 -5238)"/></g><g transform="translate(-19825 5238)"><circle class="c" cx="5.5" cy="5.5" r="5.5" transform="translate(20073 -5238)"/></g><g transform="translate(-19794 5238)"><circle class="c" cx="5.5" cy="5.5" r="5.5" transform="translate(20073 -5238)"/></g><g transform="translate(-19763 5238)"><circle class="c" cx="5.5" cy="5.5" r="5.5" transform="translate(20073 -5238)"/></g><g transform="translate(-19732 5238)"><circle class="c" cx="5.5" cy="5.5" r="5.5" transform="translate(20073 -5238)"/></g><g transform="translate(-19701 5238)"><circle class="c" cx="5.5" cy="5.5" r="5.5" transform="translate(20073 -5238)"/></g><g transform="translate(-19670 5238)"><circle class="c" cx="5.5" cy="5.5" r="5.5" transform="translate(20073 -5238)"/></g><g transform="translate(-19639 5238)"><circle class="c" cx="5.5" cy="5.5" r="5.5" transform="translate(20073 -5238)"/></g><g transform="translate(-19608 5238)"><circle class="c" cx="5.5" cy="5.5" r="5.5" transform="translate(20073 -5238)"/></g><g transform="translate(-19577 5238)"><circle class="c" cx="5.5" cy="5.5" r="5.5" transform="translate(20073 -5238)"/></g><g transform="translate(-19546 5238)"><circle class="c" cx="5.5" cy="5.5" r="5.5" transform="translate(20073 -5238)"/></g><g transform="translate(-19515 5238)"><circle class="c" cx="5.5" cy="5.5" r="5.5" transform="translate(20073 -5238)"/></g><g transform="translate(-19484 5238)"><circle class="c" cx="5.5" cy="5.5" r="5.5" transform="translate(20073 -5238)"/></g><g transform="translate(-19453 5238)"><circle class="c" cx="5.5" cy="5.5" r="5.5" transform="translate(20073 -5238)"/></g><g transform="translate(-19422 5238)"><circle class="c" cx="5.5" cy="5.5" r="5.5" transform="translate(20073 -5238)"/></g><g transform="translate(-19391 5238)"><circle class="c" cx="5.5" cy="5.5" r="5.5" transform="translate(20073 -5238)"/></g><g transform="translate(-19360 5238)"><circle class="c" cx="5.5" cy="5.5" r="5.5" transform="translate(20073 -5238)"/></g><g transform="translate(-19329 5238)"><circle class="c" cx="5.5" cy="5.5" r="5.5" transform="translate(20073 -5238)"/></g><g transform="translate(-19298 5238)"><circle class="c" cx="5.5" cy="5.5" r="5.5" transform="translate(20073 -5238)"/></g><g transform="translate(-19267 5238)"><circle class="c" cx="5.5" cy="5.5" r="5.5" transform="translate(20073 -5238)"/></g><g transform="translate(-19236 5238)"><circle class="c" cx="5.5" cy="5.5" r="5.5" transform="translate(20073 -5238)"/></g><g transform="translate(-19205 5238)"><circle class="c" cx="5.5" cy="5.5" r="5.5" transform="translate(20073 -5238)"/></g><g transform="translate(-19174 5238)"><circle class="c" cx="5.5" cy="5.5" r="5.5" transform="translate(20073 -5238)"/></g><g transform="translate(-19143 5238)"><circle class="c" cx="5.5" cy="5.5" r="5.5" transform="translate(20073 -5238)"/></g><g transform="translate(-19112 5238)"><circle class="c" cx="5.5" cy="5.5" r="5.5" transform="translate(20073 -5238)"/></g><g transform="translate(-19081 5238)"><circle class="c" cx="5.5" cy="5.5" r="5.5" transform="translate(20073 -5238)"/></g><g transform="translate(-19050 5238)"><circle class="c" cx="5.5" cy="5.5" r="5.5" transform="translate(20073 -5238)"/></g><g transform="translate(-19019 5238)"><circle class="c" cx="5.5" cy="5.5" r="5.5" transform="translate(20073 -5238)"/></g><g transform="translate(-20073 5269)"><circle class="c" cx="5.5" cy="5.5" r="5.5" transform="translate(20073 -5238)"/></g><g transform="translate(-20042 5269)"><circle class="c" cx="5.5" cy="5.5" r="5.5" transform="translate(20073 -5238)"/></g><g transform="translate(-20011 5269)"><circle class="c" cx="5.5" cy="5.5" r="5.5" transform="translate(20073 -5238)"/></g><g transform="translate(-19980 5269)"><circle class="c" cx="5.5" cy="5.5" r="5.5" transform="translate(20073 -5238)"/></g><g transform="translate(-19949 5269)"><circle class="c" cx="5.5" cy="5.5" r="5.5" transform="translate(20073 -5238)"/></g><g transform="translate(-19918 5269)"><circle class="c" cx="5.5" cy="5.5" r="5.5" transform="translate(20073 -5238)"/></g><g transform="translate(-19887 5269)"><circle class="c" cx="5.5" cy="5.5" r="5.5" transform="translate(20073 -5238)"/></g><g transform="translate(-19856 5269)"><circle class="c" cx="5.5" cy="5.5" r="5.5" transform="translate(20073 -5238)"/></g><g transform="translate(-19825 5269)"><circle class="c" cx="5.5" cy="5.5" r="5.5" transform="translate(20073 -5238)"/></g><g transform="translate(-19794 5269)"><circle class="c" cx="5.5" cy="5.5" r="5.5" transform="translate(20073 -5238)"/></g><g transform="translate(-19763 5269)"><circle class="c" cx="5.5" cy="5.5" r="5.5" transform="translate(20073 -5238)"/></g><g transform="translate(-19732 5269)"><circle class="c" cx="5.5" cy="5.5" r="5.5" transform="translate(20073 -5238)"/></g><g transform="translate(-19701 5269)"><circle class="c" cx="5.5" cy="5.5" r="5.5" transform="translate(20073 -5238)"/></g><g transform="translate(-19670 5269)"><circle class="c" cx="5.5" cy="5.5" r="5.5" transform="translate(20073 -5238)"/></g><g transform="translate(-19639 5269)"><circle class="c" cx="5.5" cy="5.5" r="5.5" transform="translate(20073 -5238)"/></g><g transform="translate(-19608 5269)"><circle class="c" cx="5.5" cy="5.5" r="5.5" transform="translate(20073 -5238)"/></g><g transform="translate(-19577 5269)"><circle class="c" cx="5.5" cy="5.5" r="5.5" transform="translate(20073 -5238)"/></g><g transform="translate(-19546 5269)"><circle class="c" cx="5.5" cy="5.5" r="5.5" transform="translate(20073 -5238)"/></g><g transform="translate(-19515 5269)"><circle class="c" cx="5.5" cy="5.5" r="5.5" transform="translate(20073 -5238)"/></g><g transform="translate(-19484 5269)"><circle class="c" cx="5.5" cy="5.5" r="5.5" transform="translate(20073 -5238)"/></g><g transform="translate(-19453 5269)"><circle class="c" cx="5.5" cy="5.5" r="5.5" transform="translate(20073 -5238)"/></g><g transform="translate(-19422 5269)"><circle class="c" cx="5.5" cy="5.5" r="5.5" transform="translate(20073 -5238)"/></g><g transform="translate(-19391 5269)"><circle class="c" cx="5.5" cy="5.5" r="5.5" transform="translate(20073 -5238)"/></g><g transform="translate(-19360 5269)"><circle class="c" cx="5.5" cy="5.5" r="5.5" transform="translate(20073 -5238)"/></g><g transform="translate(-19329 5269)"><circle class="c" cx="5.5" cy="5.5" r="5.5" transform="translate(20073 -5238)"/></g><g transform="translate(-19298 5269)"><circle class="c" cx="5.5" cy="5.5" r="5.5" transform="translate(20073 -5238)"/></g><g transform="translate(-19267 5269)"><circle class="c" cx="5.5" cy="5.5" r="5.5" transform="translate(20073 -5238)"/></g><g transform="translate(-19236 5269)"><circle class="c" cx="5.5" cy="5.5" r="5.5" transform="translate(20073 -5238)"/></g><g transform="translate(-19205 5269)"><circle class="c" cx="5.5" cy="5.5" r="5.5" transform="translate(20073 -5238)"/></g><g transform="translate(-19174 5269)"><circle class="c" cx="5.5" cy="5.5" r="5.5" transform="translate(20073 -5238)"/></g><g transform="translate(-19143 5269)"><circle class="c" cx="5.5" cy="5.5" r="5.5" transform="translate(20073 -5238)"/></g><g transform="translate(-19112 5269)"><circle class="c" cx="5.5" cy="5.5" r="5.5" transform="translate(20073 -5238)"/></g><g transform="translate(-19081 5269)"><circle class="c" cx="5.5" cy="5.5" r="5.5" transform="translate(20073 -5238)"/></g><g transform="translate(-19050 5269)"><circle class="c" cx="5.5" cy="5.5" r="5.5" transform="translate(20073 -5238)"/></g><g transform="translate(-19019 5269)"><circle class="c" cx="5.5" cy="5.5" r="5.5" transform="translate(20073 -5238)"/></g><g transform="translate(-20073 5300)"><circle class="c" cx="5.5" cy="5.5" r="5.5" transform="translate(20073 -5238)"/></g><g transform="translate(-20042 5300)"><circle class="c" cx="5.5" cy="5.5" r="5.5" transform="translate(20073 -5238)"/></g><g transform="translate(-20011 5300)"><circle class="c" cx="5.5" cy="5.5" r="5.5" transform="translate(20073 -5238)"/></g><g transform="translate(-19980 5300)"><circle class="c" cx="5.5" cy="5.5" r="5.5" transform="translate(20073 -5238)"/></g><g transform="translate(-19949 5300)"><circle class="c" cx="5.5" cy="5.5" r="5.5" transform="translate(20073 -5238)"/></g><g transform="translate(-19918 5300)"><circle class="c" cx="5.5" cy="5.5" r="5.5" transform="translate(20073 -5238)"/></g><g transform="translate(-19887 5300)"><circle class="c" cx="5.5" cy="5.5" r="5.5" transform="translate(20073 -5238)"/></g><g transform="translate(-19856 5300)"><circle class="c" cx="5.5" cy="5.5" r="5.5" transform="translate(20073 -5238)"/></g><g transform="translate(-19825 5300)"><circle class="c" cx="5.5" cy="5.5" r="5.5" transform="translate(20073 -5238)"/></g><g transform="translate(-19794 5300)"><circle class="c" cx="5.5" cy="5.5" r="5.5" transform="translate(20073 -5238)"/></g><g transform="translate(-19763 5300)"><circle class="c" cx="5.5" cy="5.5" r="5.5" transform="translate(20073 -5238)"/></g><g transform="translate(-19732 5300)"><circle class="c" cx="5.5" cy="5.5" r="5.5" transform="translate(20073 -5238)"/></g><g transform="translate(-19701 5300)"><circle class="c" cx="5.5" cy="5.5" r="5.5" transform="translate(20073 -5238)"/></g><g transform="translate(-19670 5300)"><circle class="c" cx="5.5" cy="5.5" r="5.5" transform="translate(20073 -5238)"/></g><g transform="translate(-19639 5300)"><circle class="c" cx="5.5" cy="5.5" r="5.5" transform="translate(20073 -5238)"/></g><g transform="translate(-19608 5300)"><circle class="c" cx="5.5" cy="5.5" r="5.5" transform="translate(20073 -5238)"/></g><g transform="translate(-19577 5300)"><circle class="c" cx="5.5" cy="5.5" r="5.5" transform="translate(20073 -5238)"/></g><g transform="translate(-19546 5300)"><circle class="c" cx="5.5" cy="5.5" r="5.5" transform="translate(20073 -5238)"/></g><g transform="translate(-19515 5300)"><circle class="c" cx="5.5" cy="5.5" r="5.5" transform="translate(20073 -5238)"/></g><g transform="translate(-19484 5300)"><circle class="c" cx="5.5" cy="5.5" r="5.5" transform="translate(20073 -5238)"/></g><g transform="translate(-19453 5300)"><circle class="c" cx="5.5" cy="5.5" r="5.5" transform="translate(20073 -5238)"/></g><g transform="translate(-19422 5300)"><circle class="c" cx="5.5" cy="5.5" r="5.5" transform="translate(20073 -5238)"/></g><g transform="translate(-19391 5300)"><circle class="c" cx="5.5" cy="5.5" r="5.5" transform="translate(20073 -5238)"/></g><g transform="translate(-19360 5300)"><circle class="c" cx="5.5" cy="5.5" r="5.5" transform="translate(20073 -5238)"/></g><g transform="translate(-19329 5300)"><circle class="c" cx="5.5" cy="5.5" r="5.5" transform="translate(20073 -5238)"/></g><g transform="translate(-19298 5300)"><circle class="c" cx="5.5" cy="5.5" r="5.5" transform="translate(20073 -5238)"/></g><g transform="translate(-19267 5300)"><circle class="c" cx="5.5" cy="5.5" r="5.5" transform="translate(20073 -5238)"/></g><g transform="translate(-19236 5300)"><circle class="c" cx="5.5" cy="5.5" r="5.5" transform="translate(20073 -5238)"/></g><g transform="translate(-19205 5300)"><circle class="c" cx="5.5" cy="5.5" r="5.5" transform="translate(20073 -5238)"/></g><g transform="translate(-19174 5300)"><circle class="c" cx="5.5" cy="5.5" r="5.5" transform="translate(20073 -5238)"/></g><g transform="translate(-19143 5300)"><circle class="c" cx="5.5" cy="5.5" r="5.5" transform="translate(20073 -5238)"/></g><g transform="translate(-19112 5300)"><circle class="c" cx="5.5" cy="5.5" r="5.5" transform="translate(20073 -5238)"/></g><g transform="translate(-19081 5300)"><circle class="c" cx="5.5" cy="5.5" r="5.5" transform="translate(20073 -5238)"/></g><g transform="translate(-19050 5300)"><circle class="c" cx="5.5" cy="5.5" r="5.5" transform="translate(20073 -5238)"/></g><g transform="translate(-19019 5300)"><circle class="c" cx="5.5" cy="5.5" r="5.5" transform="translate(20073 -5238)"/></g><g transform="translate(-20073 5331)"><circle class="c" cx="5.5" cy="5.5" r="5.5" transform="translate(20073 -5238)"/></g><g transform="translate(-20042 5331)"><circle class="c" cx="5.5" cy="5.5" r="5.5" transform="translate(20073 -5238)"/></g><g transform="translate(-20011 5331)"><circle class="c" cx="5.5" cy="5.5" r="5.5" transform="translate(20073 -5238)"/></g><g transform="translate(-19980 5331)"><circle class="c" cx="5.5" cy="5.5" r="5.5" transform="translate(20073 -5238)"/></g><g transform="translate(-19949 5331)"><circle class="c" cx="5.5" cy="5.5" r="5.5" transform="translate(20073 -5238)"/></g><g transform="translate(-19918 5331)"><circle class="c" cx="5.5" cy="5.5" r="5.5" transform="translate(20073 -5238)"/></g><g transform="translate(-19887 5331)"><circle class="c" cx="5.5" cy="5.5" r="5.5" transform="translate(20073 -5238)"/></g><g transform="translate(-19856 5331)"><circle class="c" cx="5.5" cy="5.5" r="5.5" transform="translate(20073 -5238)"/></g><g transform="translate(-19825 5331)"><circle class="c" cx="5.5" cy="5.5" r="5.5" transform="translate(20073 -5238)"/></g><g transform="translate(-19794 5331)"><circle class="c" cx="5.5" cy="5.5" r="5.5" transform="translate(20073 -5238)"/></g><g transform="translate(-19763 5331)"><circle class="c" cx="5.5" cy="5.5" r="5.5" transform="translate(20073 -5238)"/></g><g transform="translate(-19732 5331)"><circle class="c" cx="5.5" cy="5.5" r="5.5" transform="translate(20073 -5238)"/></g><g transform="translate(-19701 5331)"><circle class="c" cx="5.5" cy="5.5" r="5.5" transform="translate(20073 -5238)"/></g><g transform="translate(-19670 5331)"><circle class="c" cx="5.5" cy="5.5" r="5.5" transform="translate(20073 -5238)"/></g><g transform="translate(-19639 5331)"><circle class="c" cx="5.5" cy="5.5" r="5.5" transform="translate(20073 -5238)"/></g><g transform="translate(-19608 5331)"><circle class="c" cx="5.5" cy="5.5" r="5.5" transform="translate(20073 -5238)"/></g><g transform="translate(-19577 5331)"><circle class="c" cx="5.5" cy="5.5" r="5.5" transform="translate(20073 -5238)"/></g><g transform="translate(-19546 5331)"><circle class="c" cx="5.5" cy="5.5" r="5.5" transform="translate(20073 -5238)"/></g><g transform="translate(-19515 5331)"><circle class="c" cx="5.5" cy="5.5" r="5.5" transform="translate(20073 -5238)"/></g><g transform="translate(-19484 5331)"><circle class="c" cx="5.5" cy="5.5" r="5.5" transform="translate(20073 -5238)"/></g><g transform="translate(-19453 5331)"><circle class="c" cx="5.5" cy="5.5" r="5.5" transform="translate(20073 -5238)"/></g><g transform="translate(-19422 5331)"><circle class="c" cx="5.5" cy="5.5" r="5.5" transform="translate(20073 -5238)"/></g><g transform="translate(-19391 5331)"><circle class="c" cx="5.5" cy="5.5" r="5.5" transform="translate(20073 -5238)"/></g><g transform="translate(-19360 5331)"><circle class="c" cx="5.5" cy="5.5" r="5.5" transform="translate(20073 -5238)"/></g><g transform="translate(-19329 5331)"><circle class="c" cx="5.5" cy="5.5" r="5.5" transform="translate(20073 -5238)"/></g><g transform="translate(-19298 5331)"><circle class="c" cx="5.5" cy="5.5" r="5.5" transform="translate(20073 -5238)"/></g><g transform="translate(-19267 5331)"><circle class="c" cx="5.5" cy="5.5" r="5.5" transform="translate(20073 -5238)"/></g><g transform="translate(-19236 5331)"><circle class="c" cx="5.5" cy="5.5" r="5.5" transform="translate(20073 -5238)"/></g><g transform="translate(-19205 5331)"><circle class="c" cx="5.5" cy="5.5" r="5.5" transform="translate(20073 -5238)"/></g><g transform="translate(-19174 5331)"><circle class="c" cx="5.5" cy="5.5" r="5.5" transform="translate(20073 -5238)"/></g><g transform="translate(-19143 5331)"><circle class="c" cx="5.5" cy="5.5" r="5.5" transform="translate(20073 -5238)"/></g><g transform="translate(-19112 5331)"><circle class="c" cx="5.5" cy="5.5" r="5.5" transform="translate(20073 -5238)"/></g><g transform="translate(-19081 5331)"><circle class="c" cx="5.5" cy="5.5" r="5.5" transform="translate(20073 -5238)"/></g><g transform="translate(-19050 5331)"><circle class="c" cx="5.5" cy="5.5" r="5.5" transform="translate(20073 -5238)"/></g><g transform="translate(-19019 5331)"><circle class="c" cx="5.5" cy="5.5" r="5.5" transform="translate(20073 -5238)"/></g><g transform="translate(-20073 5362)"><circle class="c" cx="5.5" cy="5.5" r="5.5" transform="translate(20073 -5238)"/></g><g transform="translate(-20042 5362)"><circle class="c" cx="5.5" cy="5.5" r="5.5" transform="translate(20073 -5238)"/></g><g transform="translate(-20011 5362)"><circle class="c" cx="5.5" cy="5.5" r="5.5" transform="translate(20073 -5238)"/></g><g transform="translate(-19980 5362)"><circle class="c" cx="5.5" cy="5.5" r="5.5" transform="translate(20073 -5238)"/></g><g transform="translate(-19949 5362)"><circle class="c" cx="5.5" cy="5.5" r="5.5" transform="translate(20073 -5238)"/></g><g transform="translate(-19918 5362)"><circle class="c" cx="5.5" cy="5.5" r="5.5" transform="translate(20073 -5238)"/></g><g transform="translate(-19887 5362)"><circle class="c" cx="5.5" cy="5.5" r="5.5" transform="translate(20073 -5238)"/></g><g transform="translate(-19856 5362)"><circle class="c" cx="5.5" cy="5.5" r="5.5" transform="translate(20073 -5238)"/></g><g transform="translate(-19825 5362)"><circle class="c" cx="5.5" cy="5.5" r="5.5" transform="translate(20073 -5238)"/></g><g transform="translate(-19794 5362)"><circle class="c" cx="5.5" cy="5.5" r="5.5" transform="translate(20073 -5238)"/></g><g transform="translate(-19763 5362)"><circle class="c" cx="5.5" cy="5.5" r="5.5" transform="translate(20073 -5238)"/></g><g transform="translate(-19732 5362)"><circle class="c" cx="5.5" cy="5.5" r="5.5" transform="translate(20073 -5238)"/></g><g transform="translate(-19701 5362)"><circle class="c" cx="5.5" cy="5.5" r="5.5" transform="translate(20073 -5238)"/></g><g transform="translate(-19670 5362)"><circle class="c" cx="5.5" cy="5.5" r="5.5" transform="translate(20073 -5238)"/></g><g transform="translate(-19639 5362)"><circle class="c" cx="5.5" cy="5.5" r="5.5" transform="translate(20073 -5238)"/></g><g transform="translate(-19608 5362)"><circle class="c" cx="5.5" cy="5.5" r="5.5" transform="translate(20073 -5238)"/></g><g transform="translate(-19577 5362)"><circle class="c" cx="5.5" cy="5.5" r="5.5" transform="translate(20073 -5238)"/></g><g transform="translate(-19546 5362)"><circle class="c" cx="5.5" cy="5.5" r="5.5" transform="translate(20073 -5238)"/></g><g transform="translate(-19515 5362)"><circle class="c" cx="5.5" cy="5.5" r="5.5" transform="translate(20073 -5238)"/></g><g transform="translate(-19484 5362)"><circle class="c" cx="5.5" cy="5.5" r="5.5" transform="translate(20073 -5238)"/></g><g transform="translate(-19453 5362)"><circle class="c" cx="5.5" cy="5.5" r="5.5" transform="translate(20073 -5238)"/></g><g transform="translate(-19422 5362)"><circle class="c" cx="5.5" cy="5.5" r="5.5" transform="translate(20073 -5238)"/></g><g transform="translate(-19391 5362)"><circle class="c" cx="5.5" cy="5.5" r="5.5" transform="translate(20073 -5238)"/></g><g transform="translate(-19360 5362)"><circle class="c" cx="5.5" cy="5.5" r="5.5" transform="translate(20073 -5238)"/></g><g transform="translate(-19329 5362)"><circle class="c" cx="5.5" cy="5.5" r="5.5" transform="translate(20073 -5238)"/></g><g transform="translate(-19298 5362)"><circle class="c" cx="5.5" cy="5.5" r="5.5" transform="translate(20073 -5238)"/></g><g transform="translate(-19267 5362)"><circle class="c" cx="5.5" cy="5.5" r="5.5" transform="translate(20073 -5238)"/></g><g transform="translate(-19236 5362)"><circle class="c" cx="5.5" cy="5.5" r="5.5" transform="translate(20073 -5238)"/></g><g transform="translate(-19205 5362)"><circle class="c" cx="5.5" cy="5.5" r="5.5" transform="translate(20073 -5238)"/></g><g transform="translate(-19174 5362)"><circle class="c" cx="5.5" cy="5.5" r="5.5" transform="translate(20073 -5238)"/></g><g transform="translate(-19143 5362)"><circle class="c" cx="5.5" cy="5.5" r="5.5" transform="translate(20073 -5238)"/></g><g transform="translate(-19112 5362)"><circle class="c" cx="5.5" cy="5.5" r="5.5" transform="translate(20073 -5238)"/></g><g transform="translate(-19081 5362)"><circle class="c" cx="5.5" cy="5.5" r="5.5" transform="translate(20073 -5238)"/></g><g transform="translate(-19050 5362)"><circle class="c" cx="5.5" cy="5.5" r="5.5" transform="translate(20073 -5238)"/></g><g transform="translate(-19019 5362)"><circle class="c" cx="5.5" cy="5.5" r="5.5" transform="translate(20073 -5238)"/></g><g transform="translate(-20073 5393)"><circle class="c" cx="5.5" cy="5.5" r="5.5" transform="translate(20073 -5238)"/></g><g transform="translate(-20042 5393)"><circle class="c" cx="5.5" cy="5.5" r="5.5" transform="translate(20073 -5238)"/></g><g transform="translate(-20011 5393)"><circle class="c" cx="5.5" cy="5.5" r="5.5" transform="translate(20073 -5238)"/></g><g transform="translate(-19980 5393)"><circle class="c" cx="5.5" cy="5.5" r="5.5" transform="translate(20073 -5238)"/></g><g transform="translate(-19949 5393)"><circle class="c" cx="5.5" cy="5.5" r="5.5" transform="translate(20073 -5238)"/></g><g transform="translate(-19918 5393)"><circle class="c" cx="5.5" cy="5.5" r="5.5" transform="translate(20073 -5238)"/></g><g transform="translate(-19887 5393)"><circle class="c" cx="5.5" cy="5.5" r="5.5" transform="translate(20073 -5238)"/></g><g transform="translate(-19856 5393)"><circle class="c" cx="5.5" cy="5.5" r="5.5" transform="translate(20073 -5238)"/></g><g transform="translate(-19825 5393)"><circle class="c" cx="5.5" cy="5.5" r="5.5" transform="translate(20073 -5238)"/></g><g transform="translate(-19794 5393)"><circle class="c" cx="5.5" cy="5.5" r="5.5" transform="translate(20073 -5238)"/></g><g transform="translate(-19763 5393)"><circle class="c" cx="5.5" cy="5.5" r="5.5" transform="translate(20073 -5238)"/></g><g transform="translate(-19732 5393)"><circle class="c" cx="5.5" cy="5.5" r="5.5" transform="translate(20073 -5238)"/></g><g transform="translate(-19701 5393)"><circle class="c" cx="5.5" cy="5.5" r="5.5" transform="translate(20073 -5238)"/></g><g transform="translate(-19670 5393)"><circle class="c" cx="5.5" cy="5.5" r="5.5" transform="translate(20073 -5238)"/></g><g transform="translate(-19639 5393)"><circle class="c" cx="5.5" cy="5.5" r="5.5" transform="translate(20073 -5238)"/></g><g transform="translate(-19608 5393)"><circle class="c" cx="5.5" cy="5.5" r="5.5" transform="translate(20073 -5238)"/></g><g transform="translate(-19577 5393)"><circle class="c" cx="5.5" cy="5.5" r="5.5" transform="translate(20073 -5238)"/></g><g transform="translate(-19546 5393)"><circle class="c" cx="5.5" cy="5.5" r="5.5" transform="translate(20073 -5238)"/></g><g transform="translate(-19515 5393)"><circle class="c" cx="5.5" cy="5.5" r="5.5" transform="translate(20073 -5238)"/></g><g transform="translate(-19484 5393)"><circle class="c" cx="5.5" cy="5.5" r="5.5" transform="translate(20073 -5238)"/></g><g transform="translate(-19453 5393)"><circle class="c" cx="5.5" cy="5.5" r="5.5" transform="translate(20073 -5238)"/></g><g transform="translate(-19422 5393)"><circle class="c" cx="5.5" cy="5.5" r="5.5" transform="translate(20073 -5238)"/></g><g transform="translate(-19391 5393)"><circle class="c" cx="5.5" cy="5.5" r="5.5" transform="translate(20073 -5238)"/></g><g transform="translate(-19360 5393)"><circle class="c" cx="5.5" cy="5.5" r="5.5" transform="translate(20073 -5238)"/></g><g transform="translate(-19329 5393)"><circle class="c" cx="5.5" cy="5.5" r="5.5" transform="translate(20073 -5238)"/></g><g transform="translate(-19298 5393)"><circle class="c" cx="5.5" cy="5.5" r="5.5" transform="translate(20073 -5238)"/></g><g transform="translate(-19267 5393)"><circle class="c" cx="5.5" cy="5.5" r="5.5" transform="translate(20073 -5238)"/></g><g transform="translate(-19236 5393)"><circle class="c" cx="5.5" cy="5.5" r="5.5" transform="translate(20073 -5238)"/></g><g transform="translate(-19205 5393)"><circle class="c" cx="5.5" cy="5.5" r="5.5" transform="translate(20073 -5238)"/></g><g transform="translate(-19174 5393)"><circle class="c" cx="5.5" cy="5.5" r="5.5" transform="translate(20073 -5238)"/></g><g transform="translate(-19143 5393)"><circle class="c" cx="5.5" cy="5.5" r="5.5" transform="translate(20073 -5238)"/></g><g transform="translate(-19112 5393)"><circle class="c" cx="5.5" cy="5.5" r="5.5" transform="translate(20073 -5238)"/></g><g transform="translate(-19081 5393)"><circle class="c" cx="5.5" cy="5.5" r="5.5" transform="translate(20073 -5238)"/></g><g transform="translate(-19050 5393)"><circle class="c" cx="5.5" cy="5.5" r="5.5" transform="translate(20073 -5238)"/></g><g transform="translate(-19019 5393)"><circle class="c" cx="5.5" cy="5.5" r="5.5" transform="translate(20073 -5238)"/></g><g transform="translate(-20073 5424)"><circle class="c" cx="5.5" cy="5.5" r="5.5" transform="translate(20073 -5238)"/></g><g transform="translate(-20042 5424)"><circle class="c" cx="5.5" cy="5.5" r="5.5" transform="translate(20073 -5238)"/></g><g transform="translate(-20011 5424)"><circle class="c" cx="5.5" cy="5.5" r="5.5" transform="translate(20073 -5238)"/></g><g transform="translate(-19980 5424)"><circle class="c" cx="5.5" cy="5.5" r="5.5" transform="translate(20073 -5238)"/></g><g transform="translate(-19949 5424)"><circle class="c" cx="5.5" cy="5.5" r="5.5" transform="translate(20073 -5238)"/></g><g transform="translate(-19918 5424)"><circle class="c" cx="5.5" cy="5.5" r="5.5" transform="translate(20073 -5238)"/></g><g transform="translate(-19887 5424)"><circle class="c" cx="5.5" cy="5.5" r="5.5" transform="translate(20073 -5238)"/></g><g transform="translate(-19856 5424)"><circle class="c" cx="5.5" cy="5.5" r="5.5" transform="translate(20073 -5238)"/></g><g transform="translate(-19825 5424)"><circle class="c" cx="5.5" cy="5.5" r="5.5" transform="translate(20073 -5238)"/></g><g transform="translate(-19794 5424)"><circle class="c" cx="5.5" cy="5.5" r="5.5" transform="translate(20073 -5238)"/></g><g transform="translate(-19763 5424)"><circle class="c" cx="5.5" cy="5.5" r="5.5" transform="translate(20073 -5238)"/></g><g transform="translate(-19732 5424)"><circle class="c" cx="5.5" cy="5.5" r="5.5" transform="translate(20073 -5238)"/></g><g transform="translate(-19701 5424)"><circle class="c" cx="5.5" cy="5.5" r="5.5" transform="translate(20073 -5238)"/></g><g transform="translate(-19670 5424)"><circle class="c" cx="5.5" cy="5.5" r="5.5" transform="translate(20073 -5238)"/></g><g transform="translate(-19639 5424)"><circle class="c" cx="5.5" cy="5.5" r="5.5" transform="translate(20073 -5238)"/></g><g transform="translate(-19608 5424)"><circle class="c" cx="5.5" cy="5.5" r="5.5" transform="translate(20073 -5238)"/></g><g transform="translate(-19577 5424)"><circle class="c" cx="5.5" cy="5.5" r="5.5" transform="translate(20073 -5238)"/></g><g transform="translate(-19546 5424)"><circle class="c" cx="5.5" cy="5.5" r="5.5" transform="translate(20073 -5238)"/></g><g transform="translate(-19515 5424)"><circle class="c" cx="5.5" cy="5.5" r="5.5" transform="translate(20073 -5238)"/></g><g transform="translate(-19484 5424)"><circle class="c" cx="5.5" cy="5.5" r="5.5" transform="translate(20073 -5238)"/></g><g transform="translate(-19453 5424)"><circle class="c" cx="5.5" cy="5.5" r="5.5" transform="translate(20073 -5238)"/></g><g transform="translate(-19422 5424)"><circle class="c" cx="5.5" cy="5.5" r="5.5" transform="translate(20073 -5238)"/></g><g transform="translate(-19391 5424)"><circle class="c" cx="5.5" cy="5.5" r="5.5" transform="translate(20073 -5238)"/></g><g transform="translate(-19360 5424)"><circle class="c" cx="5.5" cy="5.5" r="5.5" transform="translate(20073 -5238)"/></g><g transform="translate(-19329 5424)"><circle class="c" cx="5.5" cy="5.5" r="5.5" transform="translate(20073 -5238)"/></g><g transform="translate(-19298 5424)"><circle class="c" cx="5.5" cy="5.5" r="5.5" transform="translate(20073 -5238)"/></g><g transform="translate(-19267 5424)"><circle class="c" cx="5.5" cy="5.5" r="5.5" transform="translate(20073 -5238)"/></g><g transform="translate(-19236 5424)"><circle class="c" cx="5.5" cy="5.5" r="5.5" transform="translate(20073 -5238)"/></g><g transform="translate(-19205 5424)"><circle class="c" cx="5.5" cy="5.5" r="5.5" transform="translate(20073 -5238)"/></g><g transform="translate(-19174 5424)"><circle class="c" cx="5.5" cy="5.5" r="5.5" transform="translate(20073 -5238)"/></g><g transform="translate(-19143 5424)"><circle class="c" cx="5.5" cy="5.5" r="5.5" transform="translate(20073 -5238)"/></g><g transform="translate(-19112 5424)"><circle class="c" cx="5.5" cy="5.5" r="5.5" transform="translate(20073 -5238)"/></g><g transform="translate(-19081 5424)"><circle class="c" cx="5.5" cy="5.5" r="5.5" transform="translate(20073 -5238)"/></g><g transform="translate(-19050 5424)"><circle class="c" cx="5.5" cy="5.5" r="5.5" transform="translate(20073 -5238)"/></g><g transform="translate(-19019 5424)"><circle class="c" cx="5.5" cy="5.5" r="5.5" transform="translate(20073 -5238)"/></g><g transform="translate(-20073 5455)"><circle class="c" cx="5.5" cy="5.5" r="5.5" transform="translate(20073 -5238)"/></g><g transform="translate(-20042 5455)"><circle class="c" cx="5.5" cy="5.5" r="5.5" transform="translate(20073 -5238)"/></g><g transform="translate(-20011 5455)"><circle class="c" cx="5.5" cy="5.5" r="5.5" transform="translate(20073 -5238)"/></g><g transform="translate(-19980 5455)"><circle class="c" cx="5.5" cy="5.5" r="5.5" transform="translate(20073 -5238)"/></g><g transform="translate(-19949 5455)"><circle class="c" cx="5.5" cy="5.5" r="5.5" transform="translate(20073 -5238)"/></g><g transform="translate(-19918 5455)"><circle class="c" cx="5.5" cy="5.5" r="5.5" transform="translate(20073 -5238)"/></g><g transform="translate(-19887 5455)"><circle class="c" cx="5.5" cy="5.5" r="5.5" transform="translate(20073 -5238)"/></g><g transform="translate(-19856 5455)"><circle class="c" cx="5.5" cy="5.5" r="5.5" transform="translate(20073 -5238)"/></g><g transform="translate(-19825 5455)"><circle class="c" cx="5.5" cy="5.5" r="5.5" transform="translate(20073 -5238)"/></g><g transform="translate(-19794 5455)"><circle class="c" cx="5.5" cy="5.5" r="5.5" transform="translate(20073 -5238)"/></g><g transform="translate(-19763 5455)"><circle class="c" cx="5.5" cy="5.5" r="5.5" transform="translate(20073 -5238)"/></g><g transform="translate(-19732 5455)"><circle class="c" cx="5.5" cy="5.5" r="5.5" transform="translate(20073 -5238)"/></g><g transform="translate(-19701 5455)"><circle class="c" cx="5.5" cy="5.5" r="5.5" transform="translate(20073 -5238)"/></g><g transform="translate(-19670 5455)"><circle class="c" cx="5.5" cy="5.5" r="5.5" transform="translate(20073 -5238)"/></g><g transform="translate(-19639 5455)"><circle class="c" cx="5.5" cy="5.5" r="5.5" transform="translate(20073 -5238)"/></g><g transform="translate(-19608 5455)"><circle class="c" cx="5.5" cy="5.5" r="5.5" transform="translate(20073 -5238)"/></g><g transform="translate(-19577 5455)"><circle class="c" cx="5.5" cy="5.5" r="5.5" transform="translate(20073 -5238)"/></g><g transform="translate(-19546 5455)"><circle class="c" cx="5.5" cy="5.5" r="5.5" transform="translate(20073 -5238)"/></g><g transform="translate(-19515 5455)"><circle class="c" cx="5.5" cy="5.5" r="5.5" transform="translate(20073 -5238)"/></g><g transform="translate(-19484 5455)"><circle class="c" cx="5.5" cy="5.5" r="5.5" transform="translate(20073 -5238)"/></g><g transform="translate(-19453 5455)"><circle class="c" cx="5.5" cy="5.5" r="5.5" transform="translate(20073 -5238)"/></g><g transform="translate(-19422 5455)"><circle class="c" cx="5.5" cy="5.5" r="5.5" transform="translate(20073 -5238)"/></g><g transform="translate(-19391 5455)"><circle class="c" cx="5.5" cy="5.5" r="5.5" transform="translate(20073 -5238)"/></g><g transform="translate(-19360 5455)"><circle class="c" cx="5.5" cy="5.5" r="5.5" transform="translate(20073 -5238)"/></g><g transform="translate(-19329 5455)"><circle class="c" cx="5.5" cy="5.5" r="5.5" transform="translate(20073 -5238)"/></g><g transform="translate(-19298 5455)"><circle class="c" cx="5.5" cy="5.5" r="5.5" transform="translate(20073 -5238)"/></g><g transform="translate(-19267 5455)"><circle class="c" cx="5.5" cy="5.5" r="5.5" transform="translate(20073 -5238)"/></g><g transform="translate(-19236 5455)"><circle class="c" cx="5.5" cy="5.5" r="5.5" transform="translate(20073 -5238)"/></g><g transform="translate(-19205 5455)"><circle class="c" cx="5.5" cy="5.5" r="5.5" transform="translate(20073 -5238)"/></g><g transform="translate(-19174 5455)"><circle class="c" cx="5.5" cy="5.5" r="5.5" transform="translate(20073 -5238)"/></g><g transform="translate(-19143 5455)"><circle class="c" cx="5.5" cy="5.5" r="5.5" transform="translate(20073 -5238)"/></g><g transform="translate(-19112 5455)"><circle class="c" cx="5.5" cy="5.5" r="5.5" transform="translate(20073 -5238)"/></g><g transform="translate(-19081 5455)"><circle class="c" cx="5.5" cy="5.5" r="5.5" transform="translate(20073 -5238)"/></g><g transform="translate(-19050 5455)"><circle class="c" cx="5.5" cy="5.5" r="5.5" transform="translate(20073 -5238)"/></g><g transform="translate(-19019 5455)"><circle class="c" cx="5.5" cy="5.5" r="5.5" transform="translate(20073 -5238)"/></g><g transform="translate(-20073 5486)"><circle class="c" cx="5.5" cy="5.5" r="5.5" transform="translate(20073 -5238)"/></g><g transform="translate(-20042 5486)"><circle class="c" cx="5.5" cy="5.5" r="5.5" transform="translate(20073 -5238)"/></g><g transform="translate(-20011 5486)"><circle class="c" cx="5.5" cy="5.5" r="5.5" transform="translate(20073 -5238)"/></g><g transform="translate(-19980 5486)"><circle class="c" cx="5.5" cy="5.5" r="5.5" transform="translate(20073 -5238)"/></g><g transform="translate(-19949 5486)"><circle class="c" cx="5.5" cy="5.5" r="5.5" transform="translate(20073 -5238)"/></g><g transform="translate(-19918 5486)"><circle class="c" cx="5.5" cy="5.5" r="5.5" transform="translate(20073 -5238)"/></g><g transform="translate(-19887 5486)"><circle class="c" cx="5.5" cy="5.5" r="5.5" transform="translate(20073 -5238)"/></g><g transform="translate(-19856 5486)"><circle class="c" cx="5.5" cy="5.5" r="5.5" transform="translate(20073 -5238)"/></g><g transform="translate(-19825 5486)"><circle class="c" cx="5.5" cy="5.5" r="5.5" transform="translate(20073 -5238)"/></g><g transform="translate(-19794 5486)"><circle class="c" cx="5.5" cy="5.5" r="5.5" transform="translate(20073 -5238)"/></g><g transform="translate(-19763 5486)"><circle class="c" cx="5.5" cy="5.5" r="5.5" transform="translate(20073 -5238)"/></g><g transform="translate(-19732 5486)"><circle class="c" cx="5.5" cy="5.5" r="5.5" transform="translate(20073 -5238)"/></g><g transform="translate(-19701 5486)"><circle class="c" cx="5.5" cy="5.5" r="5.5" transform="translate(20073 -5238)"/></g><g transform="translate(-19670 5486)"><circle class="c" cx="5.5" cy="5.5" r="5.5" transform="translate(20073 -5238)"/></g><g transform="translate(-19639 5486)"><circle class="c" cx="5.5" cy="5.5" r="5.5" transform="translate(20073 -5238)"/></g><g transform="translate(-19608 5486)"><circle class="c" cx="5.5" cy="5.5" r="5.5" transform="translate(20073 -5238)"/></g><g transform="translate(-19577 5486)"><circle class="c" cx="5.5" cy="5.5" r="5.5" transform="translate(20073 -5238)"/></g><g transform="translate(-19546 5486)"><circle class="c" cx="5.5" cy="5.5" r="5.5" transform="translate(20073 -5238)"/></g><g transform="translate(-19515 5486)"><circle class="c" cx="5.5" cy="5.5" r="5.5" transform="translate(20073 -5238)"/></g><g transform="translate(-19484 5486)"><circle class="c" cx="5.5" cy="5.5" r="5.5" transform="translate(20073 -5238)"/></g><g transform="translate(-19453 5486)"><circle class="c" cx="5.5" cy="5.5" r="5.5" transform="translate(20073 -5238)"/></g><g transform="translate(-19422 5486)"><circle class="c" cx="5.5" cy="5.5" r="5.5" transform="translate(20073 -5238)"/></g><g transform="translate(-19391 5486)"><circle class="c" cx="5.5" cy="5.5" r="5.5" transform="translate(20073 -5238)"/></g><g transform="translate(-19360 5486)"><circle class="c" cx="5.5" cy="5.5" r="5.5" transform="translate(20073 -5238)"/></g><g transform="translate(-19329 5486)"><circle class="c" cx="5.5" cy="5.5" r="5.5" transform="translate(20073 -5238)"/></g><g transform="translate(-19298 5486)"><circle class="c" cx="5.5" cy="5.5" r="5.5" transform="translate(20073 -5238)"/></g><g transform="translate(-19267 5486)"><circle class="c" cx="5.5" cy="5.5" r="5.5" transform="translate(20073 -5238)"/></g><g transform="translate(-19236 5486)"><circle class="c" cx="5.5" cy="5.5" r="5.5" transform="translate(20073 -5238)"/></g><g transform="translate(-19205 5486)"><circle class="c" cx="5.5" cy="5.5" r="5.5" transform="translate(20073 -5238)"/></g><g transform="translate(-19174 5486)"><circle class="c" cx="5.5" cy="5.5" r="5.5" transform="translate(20073 -5238)"/></g><g transform="translate(-19143 5486)"><circle class="c" cx="5.5" cy="5.5" r="5.5" transform="translate(20073 -5238)"/></g><g transform="translate(-19112 5486)"><circle class="c" cx="5.5" cy="5.5" r="5.5" transform="translate(20073 -5238)"/></g><g transform="translate(-19081 5486)"><circle class="c" cx="5.5" cy="5.5" r="5.5" transform="translate(20073 -5238)"/></g><g transform="translate(-19050 5486)"><circle class="c" cx="5.5" cy="5.5" r="5.5" transform="translate(20073 -5238)"/></g><g transform="translate(-19019 5486)"><circle class="c" cx="5.5" cy="5.5" r="5.5" transform="translate(20073 -5238)"/></g><g transform="translate(-20073 5517)"><circle class="c" cx="5.5" cy="5.5" r="5.5" transform="translate(20073 -5238)"/></g><g transform="translate(-20042 5517)"><circle class="c" cx="5.5" cy="5.5" r="5.5" transform="translate(20073 -5238)"/></g><g transform="translate(-20011 5517)"><circle class="c" cx="5.5" cy="5.5" r="5.5" transform="translate(20073 -5238)"/></g><g transform="translate(-19980 5517)"><circle class="c" cx="5.5" cy="5.5" r="5.5" transform="translate(20073 -5238)"/></g><g transform="translate(-19949 5517)"><circle class="c" cx="5.5" cy="5.5" r="5.5" transform="translate(20073 -5238)"/></g><g transform="translate(-19918 5517)"><circle class="c" cx="5.5" cy="5.5" r="5.5" transform="translate(20073 -5238)"/></g><g transform="translate(-19887 5517)"><circle class="c" cx="5.5" cy="5.5" r="5.5" transform="translate(20073 -5238)"/></g><g transform="translate(-19856 5517)"><circle class="c" cx="5.5" cy="5.5" r="5.5" transform="translate(20073 -5238)"/></g><g transform="translate(-19825 5517)"><circle class="c" cx="5.5" cy="5.5" r="5.5" transform="translate(20073 -5238)"/></g><g transform="translate(-19794 5517)"><circle class="c" cx="5.5" cy="5.5" r="5.5" transform="translate(20073 -5238)"/></g><g transform="translate(-19763 5517)"><circle class="c" cx="5.5" cy="5.5" r="5.5" transform="translate(20073 -5238)"/></g><g transform="translate(-19732 5517)"><circle class="c" cx="5.5" cy="5.5" r="5.5" transform="translate(20073 -5238)"/></g><g transform="translate(-19701 5517)"><circle class="c" cx="5.5" cy="5.5" r="5.5" transform="translate(20073 -5238)"/></g><g transform="translate(-19670 5517)"><circle class="c" cx="5.5" cy="5.5" r="5.5" transform="translate(20073 -5238)"/></g><g transform="translate(-19639 5517)"><circle class="c" cx="5.5" cy="5.5" r="5.5" transform="translate(20073 -5238)"/></g><g transform="translate(-19608 5517)"><circle class="c" cx="5.5" cy="5.5" r="5.5" transform="translate(20073 -5238)"/></g><g transform="translate(-19577 5517)"><circle class="c" cx="5.5" cy="5.5" r="5.5" transform="translate(20073 -5238)"/></g><g transform="translate(-19546 5517)"><circle class="c" cx="5.5" cy="5.5" r="5.5" transform="translate(20073 -5238)"/></g><g transform="translate(-19515 5517)"><circle class="c" cx="5.5" cy="5.5" r="5.5" transform="translate(20073 -5238)"/></g><g transform="translate(-19484 5517)"><circle class="c" cx="5.5" cy="5.5" r="5.5" transform="translate(20073 -5238)"/></g><g transform="translate(-19453 5517)"><circle class="c" cx="5.5" cy="5.5" r="5.5" transform="translate(20073 -5238)"/></g><g transform="translate(-19422 5517)"><circle class="c" cx="5.5" cy="5.5" r="5.5" transform="translate(20073 -5238)"/></g><g transform="translate(-19391 5517)"><circle class="c" cx="5.5" cy="5.5" r="5.5" transform="translate(20073 -5238)"/></g><g transform="translate(-19360 5517)"><circle class="c" cx="5.5" cy="5.5" r="5.5" transform="translate(20073 -5238)"/></g><g transform="translate(-19329 5517)"><circle class="c" cx="5.5" cy="5.5" r="5.5" transform="translate(20073 -5238)"/></g><g transform="translate(-19298 5517)"><circle class="c" cx="5.5" cy="5.5" r="5.5" transform="translate(20073 -5238)"/></g><g transform="translate(-19267 5517)"><circle class="c" cx="5.5" cy="5.5" r="5.5" transform="translate(20073 -5238)"/></g><g transform="translate(-19236 5517)"><circle class="c" cx="5.5" cy="5.5" r="5.5" transform="translate(20073 -5238)"/></g><g transform="translate(-19205 5517)"><circle class="c" cx="5.5" cy="5.5" r="5.5" transform="translate(20073 -5238)"/></g><g transform="translate(-19174 5517)"><circle class="c" cx="5.5" cy="5.5" r="5.5" transform="translate(20073 -5238)"/></g><g transform="translate(-19143 5517)"><circle class="c" cx="5.5" cy="5.5" r="5.5" transform="translate(20073 -5238)"/></g><g transform="translate(-19112 5517)"><circle class="c" cx="5.5" cy="5.5" r="5.5" transform="translate(20073 -5238)"/></g><g transform="translate(-19081 5517)"><circle class="c" cx="5.5" cy="5.5" r="5.5" transform="translate(20073 -5238)"/></g><g transform="translate(-19050 5517)"><circle class="c" cx="5.5" cy="5.5" r="5.5" transform="translate(20073 -5238)"/></g><g transform="translate(-19019 5517)"><circle class="c" cx="5.5" cy="5.5" r="5.5" transform="translate(20073 -5238)"/></g><g transform="translate(-20073 5548)"><circle class="c" cx="5.5" cy="5.5" r="5.5" transform="translate(20073 -5238)"/></g><g transform="translate(-20042 5548)"><circle class="c" cx="5.5" cy="5.5" r="5.5" transform="translate(20073 -5238)"/></g><g transform="translate(-20011 5548)"><circle class="c" cx="5.5" cy="5.5" r="5.5" transform="translate(20073 -5238)"/></g><g transform="translate(-19980 5548)"><circle class="c" cx="5.5" cy="5.5" r="5.5" transform="translate(20073 -5238)"/></g><g transform="translate(-19949 5548)"><circle class="c" cx="5.5" cy="5.5" r="5.5" transform="translate(20073 -5238)"/></g><g transform="translate(-19918 5548)"><circle class="c" cx="5.5" cy="5.5" r="5.5" transform="translate(20073 -5238)"/></g><g transform="translate(-19887 5548)"><circle class="c" cx="5.5" cy="5.5" r="5.5" transform="translate(20073 -5238)"/></g><g transform="translate(-19856 5548)"><circle class="c" cx="5.5" cy="5.5" r="5.5" transform="translate(20073 -5238)"/></g><g transform="translate(-19825 5548)"><circle class="c" cx="5.5" cy="5.5" r="5.5" transform="translate(20073 -5238)"/></g><g transform="translate(-19794 5548)"><circle class="c" cx="5.5" cy="5.5" r="5.5" transform="translate(20073 -5238)"/></g><g transform="translate(-19763 5548)"><circle class="c" cx="5.5" cy="5.5" r="5.5" transform="translate(20073 -5238)"/></g><g transform="translate(-19732 5548)"><circle class="c" cx="5.5" cy="5.5" r="5.5" transform="translate(20073 -5238)"/></g><g transform="translate(-19701 5548)"><circle class="c" cx="5.5" cy="5.5" r="5.5" transform="translate(20073 -5238)"/></g><g transform="translate(-19670 5548)"><circle class="c" cx="5.5" cy="5.5" r="5.5" transform="translate(20073 -5238)"/></g><g transform="translate(-19639 5548)"><circle class="c" cx="5.5" cy="5.5" r="5.5" transform="translate(20073 -5238)"/></g><g transform="translate(-19608 5548)"><circle class="c" cx="5.5" cy="5.5" r="5.5" transform="translate(20073 -5238)"/></g><g transform="translate(-19577 5548)"><circle class="c" cx="5.5" cy="5.5" r="5.5" transform="translate(20073 -5238)"/></g><g transform="translate(-19546 5548)"><circle class="c" cx="5.5" cy="5.5" r="5.5" transform="translate(20073 -5238)"/></g><g transform="translate(-19515 5548)"><circle class="c" cx="5.5" cy="5.5" r="5.5" transform="translate(20073 -5238)"/></g><g transform="translate(-19484 5548)"><circle class="c" cx="5.5" cy="5.5" r="5.5" transform="translate(20073 -5238)"/></g><g transform="translate(-19453 5548)"><circle class="c" cx="5.5" cy="5.5" r="5.5" transform="translate(20073 -5238)"/></g><g transform="translate(-19422 5548)"><circle class="c" cx="5.5" cy="5.5" r="5.5" transform="translate(20073 -5238)"/></g><g transform="translate(-19391 5548)"><circle class="c" cx="5.5" cy="5.5" r="5.5" transform="translate(20073 -5238)"/></g><g transform="translate(-19360 5548)"><circle class="c" cx="5.5" cy="5.5" r="5.5" transform="translate(20073 -5238)"/></g><g transform="translate(-19329 5548)"><circle class="c" cx="5.5" cy="5.5" r="5.5" transform="translate(20073 -5238)"/></g><g transform="translate(-19298 5548)"><circle class="c" cx="5.5" cy="5.5" r="5.5" transform="translate(20073 -5238)"/></g><g transform="translate(-19267 5548)"><circle class="c" cx="5.5" cy="5.5" r="5.5" transform="translate(20073 -5238)"/></g><g transform="translate(-19236 5548)"><circle class="c" cx="5.5" cy="5.5" r="5.5" transform="translate(20073 -5238)"/></g><g transform="translate(-19205 5548)"><circle class="c" cx="5.5" cy="5.5" r="5.5" transform="translate(20073 -5238)"/></g><g transform="translate(-19174 5548)"><circle class="c" cx="5.5" cy="5.5" r="5.5" transform="translate(20073 -5238)"/></g><g transform="translate(-19143 5548)"><circle class="c" cx="5.5" cy="5.5" r="5.5" transform="translate(20073 -5238)"/></g><g transform="translate(-19112 5548)"><circle class="c" cx="5.5" cy="5.5" r="5.5" transform="translate(20073 -5238)"/></g><g transform="translate(-19081 5548)"><circle class="c" cx="5.5" cy="5.5" r="5.5" transform="translate(20073 -5238)"/></g><g transform="translate(-19050 5548)"><circle class="c" cx="5.5" cy="5.5" r="5.5" transform="translate(20073 -5238)"/></g><g transform="translate(-19019 5548)"><circle class="c" cx="5.5" cy="5.5" r="5.5" transform="translate(20073 -5238)"/></g></g></svg>