<svg xmlns="http://www.w3.org/2000/svg" width="210.386" height="42.715" viewBox="0 0 210.386 42.715"><defs><style>.a,.b{fill:#fff;}.a{fill-rule:evenodd;}</style></defs><g transform="translate(-12.795 -12.143)"><path class="a" d="M189.442,30.6c-.215,1.813-1.7,5.843-3.37,7.27-2.457,2.812-7.572,1.632-6.914-2.523.217-2.274,1.617-6.18,3.478-7.794,2.688-2.772,7.6-1.3,6.8,3.047m5.025-6.888c-2.925-3.848-10.838-3.547-15.013-.657-5.673,3.611-9.826,13.693-5.038,19.112,10.419,9.152,27.66-7.272,20.051-18.455"/><path class="a" d="M35.549,21.287l-1.684,5.645H26.636l-5.3,17.331H14.423l5.288-17.331H12.8l1.7-5.645Z"/><path class="a" d="M50.205,27.823c-.665,3.43-4.288,2.681-7.73,2.806l1.408-4.684c1.786.267,6.682-.975,6.322,1.875m5.486-4.763c-1.987-3.2-14.1-1.278-17.3-1.772L31.458,44.26h6.908l2.8-9.339c3.563-.324,3.8,6.778,4.974,9.339h7.28q-2.156-7.9-4.081-9.651c5.755-.459,9.54-6.875,6.351-11.551"/><path class="a" d="M66.84,35.629l4.633-8.369h.063l-.125,8.369Zm11.224,8.633L76.743,21.287H69.4L54.614,44.262h7.407l2.1-3.764h7.262l-.063,3.764Z"/><path class="a" d="M108.816,21.287l-7.005,22.975H95.373L91.147,30.91h-.062L87.033,44.262H80.561l7-22.975H94L98.192,34.67h.063l4.086-13.383Z"/><path class="a" d="M128.241,27.665l-6.474.362c.605-3.393-5.039-4.137-5.679-1.16,1.213,3.182,7.7,3.024,9.106,6.52,2.867,6.151-3.6,11.853-10.107,11.268-6.155.109-9.625-2.383-8.962-8.024l6.515-.457c-1.589,5.546,8.538,4.758,6.25.2-1.745-1.409-8.087-3.4-8.437-4.746-3.542-5.594,2.977-11.322,8.82-10.735q9.039,0,8.965,6.768"/><path class="a" d="M139.953,21.287l-6.984,22.975H126l6.988-22.975Z"/><path class="a" d="M163.875,21.287l-1.684,5.645h-7.23l-5.3,17.331h-6.912l5.289-17.331h-6.916l1.7-5.645Z"/><path class="a" d="M173.728,21.287l-6.986,22.975H159.77l6.987-22.975Z"/><path class="a" d="M223.181,21.287l-7,22.975h-6.438L205.515,30.91h-.063L201.4,44.262h-6.469l7-22.975h6.442l4.19,13.383h.063l4.086-13.383Z"/><path class="a" d="M16.283,54.75V49.772h-1.86V49.1H18.9v.668H17.031V54.75Z"/><path class="a" d="M32.576,54.75V49.1h4.083v.668H33.326V51.5h3.125v.665H33.326v1.92H36.79v.666Z"/><path class="a" d="M54.711,52.77l.75.187c-.736,3.169-5.379,1.995-4.991-1.073-.349-2.869,4.074-4.119,4.9-1.234l-.734.174c-.67-2.23-3.726-.983-3.391,1.056-.38,2.312,2.985,3.355,3.473.887"/><path class="a" d="M69.137,54.75V49.1h.747v2.319h2.937V49.1h.745V54.75h-.745V52.09H69.884v2.66Z"/><path class="a" d="M87.245,54.75V49.1h.767l2.968,4.433V49.1h.713V54.75h-.766L87.96,50.312V54.75Z"/><path class="a" d="M109.455,53.615c-2.224,2.164-4.463-1.72-2.742-3.422,2.227-2.005,4.388,1.658,2.742,3.422m.985-3.2c-1.864-3.323-6.515-.235-4.745,2.992,1.855,3.388,6.546.179,4.745-2.992"/><path class="a" d="M124.448,54.75V49.1h.75v4.98h2.782v.666Z"/><path class="a" d="M145.74,53.615c-2.22,2.165-4.464-1.719-2.742-3.422,2.224-2.005,4.39,1.659,2.742,3.422m.986-3.2c-1.861-3.324-6.518-.232-4.745,2.992,1.855,3.388,6.544.179,4.745-2.992"/><path class="a" d="M163.563,52.536v-.662l2.393-.005v2.1c-2.557,2.367-6.551-.367-4.878-3.547.822-1.909,4.375-1.972,4.792.267l-.676.187a1.78,1.78,0,0,0-2.519-1.066c-2.88,1.582-.082,6.078,2.546,3.784v-1.05Z"/><path class="a" d="M179.635,49.1h.746V54.75h-.747Z"/><path class="a" d="M194.057,54.75V49.1h4.083v.668H194.8V51.5h3.125v.665H194.8v1.92h3.467v.666Z"/><path class="a" d="M211.948,52.937l.705-.063c-.045,2.318,4.813,1.069,2.408-.455-.671-.26-2.318-.411-2.7-1.151-1.272-2.591,3.926-3.173,3.911-.574l-.716.053c-.338-2.567-4.875.051-1.326.67,1,.25,1.475.3,1.978.932,1.446,2.883-4.331,3.5-4.261.586"/><path class="b" d="M208.65,15.968c-2.454,1.975-3.75-1.481-2.563-3.342a1.461,1.461,0,0,1,2.563.938h-.833a.6.6,0,0,0-1.091-.445c-.323.776-.425,3.375,1.063,2.525v-.781h-.6v-.645h1.458Z"/><path class="b" d="M210.41,14.185c1.375.282,1.346-1.567,0-1.262Zm.425.713h-.425v1.548h-.855V12.207c.613.04,1.926-.165,2.357.333a1.438,1.438,0,0,1-.264,2.128c0,.041.774,1.732.742,1.775h-.919Z"/><path class="b" d="M215.9,12.21c-.187,1.176.721,4.471-1.39,4.294-2.125.184-1.217-3.114-1.4-4.294h.861c.2.542-.519,3.687.538,3.584,1.049.113.339-3.063.536-3.584Z"/><path class="b" d="M217.706,14.244c1.527.312,1.484-1.62,0-1.321Zm0,.712v1.489h-.856V12.21h1.443c2.209.087,1.523,3.335-.587,2.745Z"/><path class="b" d="M221.061,14.865h.791l-.4-1.509Zm.98.713h-1.166l-.228.867h-.9l1.323-4.236h.782l1.333,4.236h-.913Z"/></g></svg>