<svg width="21" height="30" viewBox="0 0 21 30" fill="currentColor" xmlns="http://www.w3.org/2000/svg">
<path id="pittsburg" d="M10.19 2.36614e-08C8.85157 -0.000920356 7.52609 0.262024 6.28937 0.773793C5.05265 1.28556 3.92894 2.03612 2.98253 2.98253C2.03612 3.92894 1.28557 5.05264 0.773796 6.28937C0.262026 7.52609 -0.000917972 8.85157 2.40785e-06 10.19C2.40785e-06 17.833 10.19 29.115 10.19 29.115C10.19 29.115 20.38 17.833 20.38 10.19C20.3809 8.85157 20.118 7.52609 19.6062 6.28937C19.0944 5.05264 18.3439 3.92894 17.3975 2.98253C16.4511 2.03612 15.3274 1.28556 14.0906 0.773793C12.8539 0.262024 11.5284 -0.000920356 10.19 2.36614e-08V2.36614e-08ZM10.19 13.83C9.47036 13.8298 8.76694 13.6162 8.16866 13.2163C7.57038 12.8164 7.10412 12.248 6.82881 11.5831C6.55351 10.9182 6.48153 10.1866 6.62197 9.48082C6.76242 8.77502 7.10898 8.1267 7.61784 7.61784C8.1267 7.10898 8.77502 6.76241 9.48082 6.62197C10.1866 6.48153 10.9182 6.55351 11.5831 6.82881C12.248 7.10411 12.8164 7.57038 13.2163 8.16866C13.6162 8.76693 13.8298 9.47036 13.83 10.19C13.8297 11.1553 13.4462 12.081 12.7636 12.7636C12.081 13.4462 11.1553 13.8297 10.19 13.83Z" fill=""/>
</svg>
