<svg xmlns="http://www.w3.org/2000/svg" width="484.032" height="450.299" viewBox="0 0 484.032 450.299"><defs><style>.a{fill:#44c1c1;}</style></defs><g transform="translate(-6.5 -6.249)"><path class="a" d="M426.6,454.2c-3.9-1.3-8.2-2.8-9.6-3.2a30.2,30.2,0,0,1-5.8-2.8,41.588,41.588,0,0,0-7.9-3.5c-2.7-.8-5.1-2.5-5.6-3.9-1.3-4-9.4-10.7-12.7-10.7-1.7,0-3.5-.6-3.9-1.3-.5-.8-3.7-1.2-7.4-.9-3.6.2-7.5-.2-8.6-.8-2.3-1.3-6.8-12.5-9-22-.9-4-2.3-6.8-3.9-7.6-2.9-1.5-3.2-4.2-.5-5.2a2.872,2.872,0,0,0,1.9-2.4,5.2,5.2,0,0,0-1.9-3.2c-1.3-1-1.9-3.7-1.9-8.2a50.24,50.24,0,0,0-1.4-11.2c-1.3-4.2-1.1-5,2.3-9.8,2-2.9,7-7.4,11.1-10.1s8.7-6.8,10.2-9.2c9.2-14.1,10.5-15.5,13.9-15.5,1.9,0,3.8-.6,4.2-1.2.4-.7,1.9-1.2,3.3-1.2,2.1,0,2.5.9,2.5,5.6,0,6.5,2.2,8.8,8.4,8.9,3.4,0,8.2,3,8.2,5.2,0,.4-2,1.8-4.5,3.2-3.7,2.1-4.5,3.2-4.5,6.5,0,5.3,2,6.9,8.4,6.9a33.367,33.367,0,0,1,10,1.8c2.5,1,7.9,1.8,12,1.8,6.4,0,7.6-.4,8.7-2.6,2.8-5.8,8.5-5.9,15.1-.4l3.6,3-5.7,7.1a117.071,117.071,0,0,0-7.3,10,15.916,15.916,0,0,1-2.5,3.5c-1.4.9-11.5,17-11.5,18.3a1.11,1.11,0,0,1-1.1,1.1c-.6,0-3,3.5-5.4,7.8l-4.3,7.8,2.3,6a22.752,22.752,0,0,1,1.4,12.7c-1,7.7,1.6,13.4,6.7,14.6,2.3.5,3,1.5,3,4.3C436.9,457.4,436,457.5,426.6,454.2Z"/><path class="a" d="M290.1,445.8c-2.3-2.4-3.4-2.5-8.9-.5-2.1.8-2.3.6-1-.7.9-.9,1.6-4.2,1.6-7.4,0-5.8,0-5.8-4.4-5.8-5.3,0-11-5.6-11-10.8,0-1.9-.8-3.7-1.9-4.1a3.241,3.241,0,0,1-1.9-3c0-5.6-2.8-9.7-7.8-11.6-4.6-1.7-5-2.3-5-6.5,0-3.4-.9-5.4-3.2-7.4l-3.2-2.8,2.8-3.5c1.6-1.9,5-5.7,7.6-8.4,5.1-5.2,6.1-8.8,2.8-10-3.5-1.3,7.2-9.2,12.4-9.2,5.4,0,11.1-2.4,12-5,.5-1.5,2.6-2.1,8.4-2.4,10.4-.5,11.4.1,11.4,8.2,0,6.3,2.2,11.7,5.7,14.1,2.2,1.5,11,1,14.6-.8,3.4-1.7,19.8-6.8,21.9-6.8,1.5,0,2.9,7.5,3.2,17.1.1,4.7.9,8.8,1.9,10,1.1,1.3,1.2,2,.3,2-2.6,0-1.7,8.3,1,9.6,1.6.8,3,3.6,4,8.1a68.248,68.248,0,0,0,4,12.3c1.4,3,2.2,5.7,1.8,6.1s-4.4.6-9,.4c-7.9-.2-8.3-.1-8.3,2.6,0,6.2-8.5,9.1-11.4,4-1.5-2.6-2.5-2.9-12.3-3-10-.1-10.8,0-12.7,2.9-1.1,1.7-3.1,3-4.3,3-1.4,0-3.5,2.3-5.5,6C292.5,448.3,292.5,448.3,290.1,445.8Z"/><path class="a" d="M239.6,430.2c0-.6-2.3-3.1-5.1-5.6-4.2-3.8-5.1-5.4-5.4-10-.2-3.4-1.1-5.7-2.3-6.3-9.9-4.3-9.6-4-9.6-11,0-6.4-.1-6.6-3.8-7a11.887,11.887,0,0,1-5.1-1.5,7.809,7.809,0,0,0-4.2-1.1c-3.6,0-14.5-10.4-13.5-12.9.4-.9,2-1.7,3.6-1.7s5.9-1.5,9.6-3.2c5.9-2.9,6.5-3.6,5.9-6.3-2.2-8.8-2.2-11.7-.2-13.3,1.1-.9,2.1-2.3,2.1-3.2s1.7-2.5,3.8-3.5,3.8-2.2,3.8-2.6c0-1.2-5.6-9.5-6.7-9.9-.6-.2-.2-1.4,1-2.6a15.856,15.856,0,0,0,2.8-6.8,13.888,13.888,0,0,1,3.3-7c2-1.8,2.4-3.4,1.9-7.6-.7-6.1,1-7.6,8.6-7.6,3.4,0,5.1.7,6.7,3,1.8,2.7,3,3,8.7,2.8,7.8-.2,11.9,1.8,13,6.5.6,2.7,1.5,3.4,4.4,3.4,2,0,3.9.8,4.3,1.8a3.082,3.082,0,0,0,2.6,1.8c1.4,0,1.7,1.1,1.2,4.7-.6,4.2-.2,5.1,3.6,8.4,4.1,3.5,4.2,3.7,2.1,6-2.7,2.9-2.9,6.2-.3,7.1,5.4,2-2.4,7-9.1,5.8-3.2-.6-4.7.2-9.8,4.9-6.5,6-7.2,7.5-4.2,8.6,2.8,1,2.4,2.5-2.2,7.1-10.6,10.6-12.2,14.9-6.8,18.2,2.4,1.5,3.2,3.2,3.5,7.5.4,5.1.7,5.6,4.9,7,3.4,1.1,4.9,2.5,6.2,5.8,2.2,5.6,1.4,7.6-4.3,10.1a13.454,13.454,0,0,0-6.7,6.6c-1.6,3.4-2.9,4.6-5.1,4.6C240.9,431.3,239.6,430.8,239.6,430.2Z"/><path class="a" d="M178.3,382.6c-1.5-1.5-2.8-3.4-2.8-4.2s-1.2-2-2.6-2.7-2.6-1.9-2.6-2.6,1.2-1.6,2.6-1.9c1.9-.5,2.6-1.6,2.6-4.6v-4l-8.8-.5c-8.3-.4-9.1-.8-13.9-5.3-5.2-4.9-8.2-6.7-14.9-9l-3.8-1.3,4.1-2.3c2.3-1.3,4.1-3.3,4.1-4.7a2.684,2.684,0,0,1,2.7-2.7c2.5-.4,6-7.2,8.4-16.2.4-1.4,3.2-5.1,6.3-8.3s5.7-6.8,5.7-8.1a4.7,4.7,0,0,1,2.6-3.5c2.7-1.4,3.5-4.8,1.1-4.8-1,0-.9-.6.2-1.8.9-1,3.3-1.8,5.3-1.8,2.8,0,3.7.6,3.7,2.4,0,2.1.9,2.4,6.2,2.4,4,0,6.8-.7,7.8-1.8,1.8-2,9.7-2.5,10.9-.6.4.7,2.7,1.2,5,1.2,4.7,0,8.4,3.1,8.4,7,0,1.4.6,2.9,1.3,3.3,2,1.2,1.5,3.9-1.1,6.3-1.3,1.2-2.7,4.3-3.1,6.8A15.556,15.556,0,0,1,211,326c-2,2.1-2.7,7.3-1,7.3.6,0,2,1.6,3.2,3.5,2.1,3.4,2.1,3.5-1,4.8-1.7.7-3.2,2.1-3.2,3.1a4.933,4.933,0,0,1-2.1,3.3c-1.7,1.3-1.9,3.2-1.4,9.8.6,6.3.3,8.2-.9,8.2-.9,0-3.1,1.1-4.9,2.4a14.35,14.35,0,0,1-7.1,2.4c-4.1,0-6.1,2.9-4.8,7,.7,2.1-3.1,7.6-5.3,7.6C181.6,385.4,179.9,384.1,178.3,382.6Z"/><path class="a" d="M116.7,371.5a9.385,9.385,0,0,1-2.6-5.4c0-2.5-4.2-8.1-11.5-15.3-3.6-3.6-3.2-6,1.3-7.7,3.3-1.3,3.8-2.1,3.8-6.1,0-3.2-.9-5.4-2.8-7.1-3-2.6-6.8-3.2-8.1-1.3-2.3,3.5-16-1.2-16-5.5,0-1.2-1.4-1.7-4.2-1.7-9.4,0-21.4-9.3-21.4-16.6,0-2.3-.6-2.9-2.9-2.6a14.983,14.983,0,0,1-6.5-1.4c-4.9-2.2-7.8-.4-8.3,5.3-.3,3.8-.9,4.4-3.5,4.4-3.8,0-3.9-1.1-.6-5.1a34.927,34.927,0,0,0,4.6-8.9c1.2-3.2,3.2-8.1,4.5-10.7,2.8-5.5,3-8.1.9-10.1-1.1-1.1-1.1-2.2,0-4.5,1.5-3.1,4.6-4,6-1.8,2.4,3.7,12.2-.4,12.2-5.2,0-3.4,2.5-3.6,3.8-.4.7,1.7,2,3.1,2.9,3.1,4.7,0,7.4-1.7,8.7-5.5.8-2.2,2.5-4.4,3.9-4.8,1.7-.5,2.7-2.3,3.3-5.6.6-3.4,1.3-4.6,2.6-4.2,1,.3,1.7.1,1.7-.5a13.612,13.612,0,0,1,.2-2.1c.3-1.7,4.5-3.8,8.2-4.2,3.4-.4,3.8,0,4.8,4.8,1.4,6.7,4.4,6.4,8.1-.7l2.7-5.2,5.4,5.5c2.9,3,5.4,6.6,5.4,7.9,0,1.6,2.4,3.9,6.9,6.7,9.2,5.8,18.9,6.9,25.9,3.1l4.8-2.7,2.7,2.6c1.9,1.9,2.2,2.8,1.1,3.2-.9.3-1.6,1.8-1.6,3.3,0,2.3,1,3,5.6,4.1,5.6,1.3,5.6,1.4,6.2,7.1a59.618,59.618,0,0,0,1.1,7.6c.4,1.3-.5,1.8-3.3,1.7-4.3-.1-6.9,2.3-7,6.4,0,1.5-.6,3-1.3,3.4a3.7,3.7,0,0,0-1.3,3c0,1.3-2.5,4.8-5.7,8-3.1,3.2-6,6.9-6.3,8.3-2.4,9-5.9,15.8-8.4,16.2a2.767,2.767,0,0,0-2.7,2.8c0,1.4-1.6,3.3-3.8,4.5-2.1,1.1-3.8,2.8-3.8,3.7a6.219,6.219,0,0,1-1.9,3.4c-3,2.8-2.3,5.2,2.6,9.4,5.6,4.9,5.6,6.4.1,7.4-2.4.4-6.4,2.5-8.9,4.7l-4.6,3.9Z"/><path class="a" d="M309.4,366.3c-3.5-2.4-5.7-7.8-5.7-14.1,0-8.3-1.5-9.3-13.6-8.4-9.5.7-13.9-.7-11.1-3.3,2.9-2.8,1.8-7.9-2.4-11.2-3.7-3-3.9-3.4-2.5-7.4.8-2.3,1.9-4.2,2.5-4.2,1.3,0,3.9-5.6,3.9-8.3,0-1.7.9-2,5.1-1.6l5.1.5v-4.8c0-3.2-.7-5.1-1.9-5.5a1.777,1.777,0,0,1-1.1-2.5c.5-1.3,2.6-1.9,7-1.9,5.3,0,6.3-.3,6.3-2.3a3.61,3.61,0,0,1,2.6-3.1,3.608,3.608,0,0,0,2.6-3c0-5.4,6.8-5.9,8.2-.6a5.314,5.314,0,0,0,3.8,3.6,14.466,14.466,0,0,1,5.9,3.8c2.6,2.8,3.5,3,9.9,2.4,6.1-.6,7.1-.4,7.7,1.5.3,1.2,2.7,2.8,5.5,3.6,2.7.8,5.6,2.2,6.5,3.2,2.1,2.3,8.2,2.3,10.2,0,.9-1,3.4-1.8,5.6-1.8,4,0,4.1.2,7.1,10.4s3,10.4.7,14.2c-1.3,2.1-3.1,4.3-4.1,4.8-.9.5-2.8,3-4.2,5.6-1.5,2.8-5,6.1-8.7,8.4-6.4,3.9-13.1,10.1-13.1,12.2,0,.7-1.6,1.5-3.5,1.9-8,1.7-21.7,5.7-24.9,7.3C315.1,367.4,311.4,367.7,309.4,366.3Z"/><path class="a" d="M424,355.8a34,34,0,0,0-9.7-1.7c-9.2-.2-11.2-5.3-3.5-9.2,2.6-1.3,5-3.4,5.2-4.6.7-3.4-4.7-8-9.3-8.1-6.2-.1-8.4-2.4-8.4-8.9v-5.6h-5c-2.8,0-5.4.5-5.8,1.2s-1.8,1.2-3.1,1.2c-3.5,0-7.1-13.8-6.7-26,.2-5.3,1-10,1.7-10.5.8-.5,1-2.2.5-4.2-.5-1.9-1.4-6.4-2.1-10.1-.9-4.7-2.2-7.4-4.4-9.1-4-3.1-4.1-5.4,0-5.4,4.5,0,7.1-4.3,7.1-11.7,0-3.5.6-6.6,1.3-7.1,1.8-1.1,1.6-7.5-.3-8.3-.9-.3.3-1,2.6-1.5s4.5-1.3,4.9-1.9,4.1-1.1,8.3-1.1,7.6-.5,7.6-1.2,2.3-1.2,5.2-1.2c4.6,0,5.1-.3,4.4-2.4-.6-1.7-.2-2.4,1.1-2.4a3.3,3.3,0,0,1,2.7,1.2c1.1,1.7,6,1.4,8.7-.5a27.6,27.6,0,0,0,5.2-6.9c3.3-6,7.7-7.4,12.6-4.2a12.223,12.223,0,0,0,4.9,1.9c1.1,0,3.8,1.4,5.8,3,2,1.7,4.2,3,4.9,3,.6,0,.8,4.3.5,9.6-.4,6.1-.2,10,.7,10.9,1,.9.8,1.9-.8,3.5-1.5,1.6-2.1,4.4-2.1,9.7,0,6.5.4,7.8,3.2,10.1s3.2,3.6,3.2,10.1c0,6.7.4,8,3.8,11.3,4.1,4.1,11.6,16.4,11.6,19a3.5,3.5,0,0,0,1.7,2.5c1,.5,2.7,2.8,3.9,4.9,1.9,3.6,2,4.2.2,5.8-2.7,2.6-2.5,4.5,1.2,9.7,3.6,5.1,3.9,7.6,1.4,14.3-1.9,5.1-5,7.9-8.6,7.9-2,0-10.1,7.1-14.4,12.6-1.4,1.8-2,1.7-6.5-1.7-3.8-2.9-6.2-3.7-10.6-3.7-4.9,0-5.9.5-7.8,3.6s-2.9,3.6-7.3,3.5A25.918,25.918,0,0,1,424,355.8Z"/><path class="a" d="M270.1,315.4a6.011,6.011,0,0,0-5.2-2.5c-2.6,0-3.7-.7-4.3-2.9-1.4-5.1-5.2-7.3-12.8-7.3-5.7,0-7.2-.5-8.9-2.7-1.7-2.3-3.2-2.7-9.6-2.7-4.1,0-7.9.6-8.4,1.3-.5.8-2,.1-3.9-1.8a9.6,9.6,0,0,0-6.9-3.1c-2.1,0-4.2-.5-4.6-1.2s-2.2-1.2-3.9-1.2-3.1-.5-3.1-1c0-.6-1.2-2.3-2.6-3.8-3.1-3.4-3.3-8.8-.5-11,1.1-.9,3.9-1.5,6.2-1.3,5.1.4,5.7-1.1,5.9-14.9.2-14.5.8-15.6,7.8-16.1,8.2-.5,12.5-4.7,10.4-10.1-2.1-5.1-.2-9.3,4.4-9.7,3-.3,3.7-1,4-4.2.3-2.6,1.3-4.2,3.5-5.1a4.764,4.764,0,0,0,3.2-4.1c0-3.8,1.7-5.9,5.9-7.6,3.2-1.2,4.2-1,8.8,2.1,4.7,3.2,5.8,3.4,12.8,2.9,4.2-.4,9.6-.8,12-1,4.6-.4,5.9.8,7.1,6.6a8.554,8.554,0,0,0,4.6,5.2c3.4,1.7,3.8,2.5,3.8,7.6,0,3.2.7,6.4,1.5,7.2.9.8,5.2,1.5,10.2,1.5,8.4,0,8.7.1,9.5,3.3a28.511,28.511,0,0,0,2.2,6c2.1,4-2,7.9-7.1,6.9-6.1-1.3-8.4,5.5-3.4,9.8a7.707,7.707,0,0,1,2.6,4.8,5.943,5.943,0,0,0,1.4,3.9c1,1,.7,1.6-1.3,2.1-1.5.4-2.7,1.4-2.7,2.2s-1.2,2.8-2.5,4.5c-1.4,1.7-2.5,3.9-2.5,5.1a3.38,3.38,0,0,1-2.6,2.8,3.61,3.61,0,0,0-2.6,3.1c0,2-.9,2.3-6.3,2.3-4.5,0-6.5.5-7,1.9-1.4,3.3-.8,6.6,1.1,7.3,2.5.9,2.5,5.3.1,5.3a3.236,3.236,0,0,1-2.6-1.2c-1.7-2.6-4.4-1-5.7,3.4a20.641,20.641,0,0,1-3.8,7.4l-2.5,2.7Z"/><path class="a" d="M356.2,300.1c-.9-1-3.8-2.4-6.5-3.2-2.9-.8-5.1-2.3-5.5-3.6-.8-3-4.5-4.2-7.4-2.5-3.7,2.2-7.4,1.7-10.5-1.5a16.785,16.785,0,0,0-5.7-3.7,6.32,6.32,0,0,1-3.7-3.8,5.638,5.638,0,0,0-3.8-3.7c-3.4-.8-2.9-3.6.8-4.8,2.6-.8,3.4-5.9,1.2-7.2-.7-.4-1.3-2-1.3-3.5a7.533,7.533,0,0,0-2.5-4.9c-3.3-2.8-2.2-4.3,3-4.3,2.5,0,5.1-.9,6.3-2.2,2.2-2.3,2.9-9.3,1-10.4-.6-.4-1.5-2.6-2-4.9l-.8-4.2h-8.7c-5,0-9.3-.6-10.2-1.5-.8-.8-1.5-4-1.5-7.2,0-5.1-.4-5.9-3.5-7.3a9.06,9.06,0,0,1-4.6-5.2c-2.2-6.9-2.7-7.3-9.3-7-3.4.1-8.7.6-11.7,1-4.7.7-6.3.3-11.8-3.1-6.9-4.2-7.9-6.4-3.8-8.5,2.7-1.4,3.4-5.9,1.3-8-1.7-1.6,1-9,4.1-11.1,2.5-1.7,3.2-8,1.1-9.3-.7-.4-1.3-2.1-1.3-3.7,0-2.1.7-3,2.5-3a2.854,2.854,0,0,0,2.9-2.7,4.377,4.377,0,0,1,3.6-3.4c2.9-.6,3.2-1.3,3.2-6.7,0-5.9,0-6,5.4-7.7,4.4-1.4,6.2-1.5,9.7-.3a37.7,37.7,0,0,0,10,1.4c5.4,0,5.8-.3,8-4.8,2.2-4.6,2.6-4.8,8.3-4.8,5,0,6.2-.5,7.3-2.7.9-1.8,2.6-2.8,5.3-3.1a11.7,11.7,0,0,0,6.3-2.7c1.6-1.6,3.9-2.4,7.7-2.4,3.1,0,6.1-.7,6.9-1.7.8-.9,4.3-1.9,7.7-2.1l6.2-.4.7,10.9c.5,8.6,1.1,11.1,2.9,12.1,4.5,2.5,9.6,7.9,9.6,10.2,0,6.1,7.7,13.4,14.2,13.4a6.385,6.385,0,0,1,4.7,2.4c1.1,1.7,3,2.4,6.1,2.4,3.8,0,4.5.4,4.5,2.8a6.863,6.863,0,0,0,1.5,4.2c1.1,1.1,1.1,2.5-.1,6.1-2.3,6.5-1.1,8.9,7,14,5.9,3.7,8.1,4.4,13.9,4.4,4.6,0,7.4.6,8.5,1.8a7.208,7.208,0,0,0,4.3,2c2,.1,1.8.3-.9.9-2.6.5-4.5,2.3-6.6,6-3.3,5.8-7.6,9.4-8.9,7.4-.4-.7-2.8-1.2-5.3-1.2-3.5,0-4.7.6-5.2,2.4-.5,1.7-1.7,2.4-4.4,2.4-2,0-3.7.5-3.7,1.2s-3.4,1.2-7.6,1.2-7.9.5-8.3,1.1-2.4,1.4-4.6,1.8c-4.1.8-5.2,3.9-2.3,6.6,1.2,1.1,1.2,1.8,0,2.9-.8.8-1.5,4.2-1.5,7.6,0,7.2-2.6,11.5-7.1,11.5-4.7,0-4.4,6.8.3,10.4,2.7,2.1,3.5,3.7,3.6,7.9a49.493,49.493,0,0,0,.5,6.5c.6,1.9,0,16.7-.7,19-.5,1.6-2,2.1-6.2,2.1-3.3,0-6.1.7-7.1,1.8C359.3,302.4,358.2,302.4,356.2,300.1Z"/><path class="a" d="M179.6,288.9a78.031,78.031,0,0,1-2.3-11.5c-.7-5.7-.7-5.8-6.6-7.2-3.3-.8-5.2-1.6-4.4-1.9,2.6-.8,1.8-6.9-1.4-9.8-3.8-3.3-5.7-3.3-9.5.1-5,4.5-13.6,3.8-22.5-1.8-4.9-3.1-7.3-5.4-7.3-7,0-1.4-2.8-5.3-6.3-8.8s-6.7-7.8-7.2-9.7c-.9-3.3-1.2-3.4-6.4-2.7-5,.7-5.5.5-6.2-2.1-.4-1.6-3.4-5.2-6.6-7.9-6.3-5.5-6.6-6.7-4.3-17.5,1.3-6.1,1.2-7.1-.8-9.2-1.9-2-2-2.7-.6-4.3,1.3-1.5,1.3-2.9.1-7a57.79,57.79,0,0,0-2.7-7.1,2.5,2.5,0,0,1,.6-3.4c1-.7,2.1-3.3,2.6-5.6s1.7-4.6,2.7-4.9c2.7-1,5.6-6.9,5.6-11.2,0-3.3.4-3.7,3.9-3.7,5,0,13.8-5.3,15.4-9.1.7-1.6,1.9-3,2.8-3,2.6,0,11.2-9.1,11.2-11.8a3.559,3.559,0,0,0-2.4-3.2,14.145,14.145,0,0,1-4.7-3.1c-2.2-2.3-2.2-2.4.8-2.4,5.4,0,11.2-4.2,11.6-8.5.4-3.7.5-3.7,3-1.5,7.1,6.2,11,7.9,16,7.1,5.5-.8,8.1,1.1,4.7,3.5-3.3,2.3-2.7,8.6,1.1,11,4,2.5,4.1,5,.2,6.7-2.6,1.1-3.1,2.4-3.8,9.9-.8,9.3-.2,10.7,5.6,13.6,4.8,2.4,5.6,6,1.7,8.4-4.5,2.8-4.4,9.9.2,11a14.254,14.254,0,0,0,5.8.1c2-.5,2.5,0,2.5,2.3,0,3.7,3.2,5,6.3,2.4,2.6-2.2,4.2-1.2,5.8,3.8.6,1.8,2.5,3.1,5.8,3.9,2.7.7,5.6,2.1,6.5,3.1,2.1,2.4,10.2,2.4,10.2,0,0-2.6,2.3-2.2,4.1.6a6.194,6.194,0,0,0,5.2,2.4c2.5,0,3.9.8,4.7,2.7,2.1,5.3,5.9,7.4,11.8,6.5,3.5-.5,5.7-.3,6.3.6,1.2,1.9-1.4,8.6-4.1,10.5-1.2.8-2.3,3-2.6,4.8-.3,2.6-1.2,3.4-4.2,3.9-4.7.8-7.1,6.7-4.9,12.2,1.2,3,1,3.7-1.7,5.4a9.994,9.994,0,0,1-7.3,1.2c-6.5-1.2-7.6,1.1-8.5,17-.4,7.5-1.1,14.1-1.5,14.5-.5.4-2.1.1-3.6-.8-2.5-1.4-3.1-1.2-6.4,2.3-2,2.2-4.3,3.9-5.1,3.9-1.9,0-1.8,1.9.3,3.9a13.289,13.289,0,0,1,2.6,4.9c.5,1.8,1.4,3.3,2.1,3.3a1.24,1.24,0,0,1,1.3,1.2,1.272,1.272,0,0,1-1.4,1.2,6.418,6.418,0,0,0-3.3,1.8,9.184,9.184,0,0,1-5.4,1.8C181.7,294.7,181,294,179.6,288.9Z"/><path class="a" d="M51.9,266.8c-.5-.7-3.1-1.1-5.8-.9-3.1.3-5-.1-5-.9,0-.7-2.2-2-5-2.8-6.6-1.9-8.3-3.8-6.6-8,2.3-5.7,1.6-9.7-2.5-13.4-2.1-1.9-3.8-4.1-3.8-4.8s1.8-3.5,3.9-6.1l3.9-4.8-.9-12.7c-.6-8.4-1.7-14.3-3.3-17.4-2.3-4.6-2.3-4.8.2-8,2.8-3.8,3.3-10.8.9-13.1-1.3-1.2-1.2-1.7.3-2.6a12.07,12.07,0,0,1,4.1-1.2c2.8,0,7.5-5.7,7.5-9,0-1.5,1.4-3.9,3.2-5.5,2.9-2.6,3.5-2.7,6.5-1.2,2.9,1.5,3.9,1.4,9.1-1.3a34.807,34.807,0,0,0,7.8-5.1,6.752,6.752,0,0,1,4.2-2.1,5.9,5.9,0,0,0,3.8-1.8,7.83,7.83,0,0,1,5.1-1.8,40.788,40.788,0,0,0,7.5-.8c3.4-.6,4-1.3,4-4.2,0-2.2.7-3.5,1.9-3.5,1.5,0,1.7,1.3,1.2,6.3-1.2,12-1.9,14.1-5,16.5a11.735,11.735,0,0,0-3.9,6.1,10.215,10.215,0,0,1-2.6,5.1c-2.2,1.7-2.3,6.1-.3,8.1.9.8,1.5,4.7,1.4,9.2-.1,5,.5,8.3,1.5,9.1,1.2.9,1.4,2.7.6,6.4a58.922,58.922,0,0,0-1.1,10.2c0,4.5.6,5.7,5.7,10.1,3.2,2.8,6.1,6.4,6.6,8,.7,2.7,1.4,2.9,6.3,2.5,6.7-.5,7.7,1.4,4.7,8.7-2.1,5.1-4.2,5.4-4.2.6a5.084,5.084,0,0,0-1.3-3.7c-2.5-1.5-11.9.9-14.9,3.8-1.7,1.6-3.5,2.9-4.1,2.9s-1.4,2.2-1.9,5c-.6,3.5-1.6,5.1-3.3,5.6-1.4.3-3.1,2.4-3.9,4.7-1.7,4.9-5.3,5.5-7.4,1.1-.8-1.7-2.2-3-3.2-3A5.343,5.343,0,0,0,59,262c0,1.9-3.8,6-5.5,6C53.1,268.1,52.3,267.5,51.9,266.8Z"/><path class="a" d="M240.9,199c0-.9-2.2-1.2-6.7-.8-7.1.6-8.7-.2-11.2-6-.9-2-2.3-2.7-5-2.7-2.5,0-4.3-.8-5.2-2.4-1.7-3-10.2-3.5-10.2-.6,0,2.5-3,2.3-5.6-.5a11.5,11.5,0,0,0-5.7-2.9c-2.4-.5-4.2-2-5.7-5-2.3-4.5-6.5-5.8-9.7-2.9-1.2,1.1-1.5.7-1.5-2,0-3.2-.3-3.4-4.2-2.8-7.9,1.1-9.9-1.9-4-6,4.9-3.4,3.5-9.7-3-13.7-4.6-2.8-4.7-3.1-4.4-9.5.3-5.2,1-7,3.5-8.9,4.2-3.1,4.2-8.4-.1-11.1-3.6-2.2-4.2-4.9-1.3-6a2.749,2.749,0,0,0,1.9-2.3c0-2.1,4.7-11.4,6.2-12.3.6-.4,3-.1,5.2.7,3.4,1.1,4.5,1,6.6-.8,1.4-1.2,2.5-2.8,2.5-3.6,0-1.7,2.8-3,6.5-3a3.538,3.538,0,0,0,3.2-1.8c1.1-2.7,8.5-2.3,10.3.4,1.1,1.7,3.7,2.5,10.6,3.1,7.7.7,9.6,1.4,12.6,4.4,2.9,2.9,5,3.7,11.8,4.5l8.3.9.4,4.6c.4,4.9,3.4,7.3,16.3,13.2,5,2.3,5.8,3.1,5.8,6.5,0,2.5.8,4.2,2.2,4.7,2,.8,2,1-.5,1.9-3.4,1.2-5.2,7.7-3,10.3,1.6,1.8,1.4,1.9-4.8,3.7-.9.2-1.6,1.6-1.6,2.9a2.194,2.194,0,0,1-2.4,2.5c-3.5,0-4.8,8.1-1.7,11.2,2.1,2.2,2,2.4-.7,4.5-1.6,1.2-2.9,2.8-2.9,3.5a1.324,1.324,0,0,1-1.3,1.3c-1.8,0-1.6,10.1.2,11.8,1.1,1,.7,1.8-1.3,3a5.7,5.7,0,0,0-2.7,4.3,4.61,4.61,0,0,1-2.5,3.9C242.9,200.8,240.9,200.7,240.9,199Z"/><path class="a" d="M435.6,196.1c-1.1-1.2-3.9-1.8-8.5-1.8-5.8,0-8-.7-13.8-4.3-3.8-2.4-7.3-5.2-7.7-6.1-.8-2.1,1.3-6.4,3.2-6.4,2,0,1.4-2.8-1.3-6a10.887,10.887,0,0,1-2.5-5.7c0-2.7-.6-3.1-6.4-3.2-2.3-.1-3.1-.7-2.8-2.2.3-1.7-.6-2.1-4.4-2.1-8,0-15.8-6.6-15.8-13.4,0-2.3-5-7.7-9.6-10.2-1.8-1-2.4-3.5-2.9-12.3l-.7-11,5.3-.8c2.9-.5,5.6-1.3,5.9-1.8s3.3-1.3,6.6-1.8c6.1-.9,7.5-1.9,15.8-11.3,2.4-2.8,5.1-5,5.8-5,2.4,0,8.7-7.1,10.4-11.8,2.4-6.4,2.1-8.2-1.3-10.4-2.2-1.4-3.2-3.3-3.7-7.4-.5-3.8-1.6-6.3-3.7-8l-3-2.4,5.9-5.1c3.2-2.8,6.2-6,6.6-7.2,1.1-3,5-2.6,9,.9,1.9,1.7,4,3,4.7,3s2.5,1.1,4,2.4,3.7,2.4,4.9,2.4c5,0,10.4,11.3,9.3,19.2-.4,3.1-.2,5,.6,5,2.3,0,4.3,7.8,3.3,13.2-.6,3.7-.3,5.6,1.1,7.1,1.1,1.1,2.4,4.2,2.9,6.8a38.621,38.621,0,0,0,3.9,9.7c1.7,2.7,3,6.1,3,7.4,0,1.4,1.2,4.6,2.6,7.3,3.1,5.7,7.1,20.1,8.4,30,1.1,9-1,15.5-5.6,17.5-6.5,2.7-12,6.2-14,8.9a47.026,47.026,0,0,1-3.7,4.4,6.311,6.311,0,0,0-1.7,3.9c0,1.3-.5,2.3-1,2.3-.6,0-2,1.9-3.2,4.2C439.3,198.4,438,198.9,435.6,196.1Z"/><path class="a" d="M24.4,169.4c0-.7-4-5-8.9-9.6s-8.9-9.2-9-10.1c0-.9,2.6-4.3,5.7-7.5,3.2-3.2,5.8-6.4,5.8-7.2,0-.7,1.5-4.3,3.4-7.9,3-5.8,3.2-7.1,2-11.1a70.194,70.194,0,0,1-2.2-10c-.4-3-1.2-8.2-1.7-11.5a34.838,34.838,0,0,0-2.4-8.7c-.9-1.6-1.2-4.7-.7-8.2.8-5.2,1-5.5,4.8-5.6a33.667,33.667,0,0,0,9.1-1.9c2.8-1,7.7-2.6,10.9-3.6a43.1,43.1,0,0,0,9-3.9c3.6-2.5,10.5-4.4,24.2-6.8,5.9-1,10.5-2.6,12.3-4.2,2-1.8,4.5-2.5,8.7-2.5,10.5,0,19.6-5.6,25.2-15.5,1.6-2.7,7.6-6.3,10.8-6.3,2.5,0,4.4,5.2,5,13.5.5,6.2.2,7-2.5,8.1-3.7,1.6-4,6.4-.6,9.7,1.9,1.8,2.3,3.5,1.8,7.7-.6,4.7-.3,5.7,2.1,6.8,3.1,1.5,3.8,7.3,1,7.3-1.2,0-1.9,2.4-2.4,8.1-.4,4.5-1.3,8.3-2.1,8.6-.8.2-1.4,2-1.4,3.9,0,4.4-5.3,8.5-11.1,8.5-6.1,0-5.8,3.8.7,8.3l5.1,3.5-4.8,4.4c-2.6,2.4-5.5,4.4-6.4,4.4s-2.1,1.3-2.8,3c-1.5,3.6-10.5,9.5-13.7,8.9-1.9-.3-2.2-1.4-1.9-5.5l.4-5.1H93c-4.2,0-4.6.3-4.6,3.5,0,2.9-.6,3.6-4,4.2a51.833,51.833,0,0,1-7.5.8,7.83,7.83,0,0,0-5.1,1.8,5.919,5.919,0,0,1-3.9,1.8,6.079,6.079,0,0,0-4,2.1c-3.2,3.9-9.3,6.1-15.4,5.5-5.2-.6-5.9-.3-8.5,3-1.5,2-2.8,4.4-2.8,5.4,0,2.7-5,8.1-7.5,8.1a6.125,6.125,0,0,0-3.7,1.5C25.1,170,24.4,170.1,24.4,169.4Z"/><path class="a" d="M288.3,134.9a20.52,20.52,0,0,0-7.7-.8c-5.5.4-9-2.4-9-7.2,0-3-1.2-3.9-10.9-8.6-10.9-5.2-10.9-5.2-10.9-10,0-4.7-.2-5-6-6.5-2.7-.7-.3-5.2,3.6-6.7a6.522,6.522,0,0,0,4.5-4.9c.5-2.2,1.5-3.5,3-3.5,3.1,0,11.5-7.8,11.5-10.7,0-2.8-1.5-3.9-6.9-4.9-2.9-.6-4.1-1.6-4.8-4.2a10.619,10.619,0,0,0-2.9-4.8c-2-1.4-1.5-6.8.7-6.8.6,0,1.1-2.2,1.1-4.8,0-4.3.3-4.8,3.1-4.8,4.8,0,12.2-3.9,12.2-6.5,0-2,.9-2.2,8-1.6,4.4.3,11.5,1.1,15.7,1.8,25,3.8,31.3,4.4,50.6,4.3,11.6-.1,26.6-.7,33.3-1.5s16.5-1.7,21.8-2.1l9.6-.7-4.8,4c-5.7,4.7-6.1,8.1-1.6,12.4,2.4,2.2,3.2,4.3,3.2,7.9,0,3.8.7,5.3,3,6.7,2.8,1.7,2.9,2.2,1.5,6.1-1.7,4.8-5.9,9.4-11.6,12.7a34.313,34.313,0,0,0-8.1,7.8c-3.2,4.2-5.4,5.8-9.5,6.8-3,.7-9.4,2.7-14.4,4.4a89.943,89.943,0,0,1-15,3.7c-3.3.4-6.7,1.3-7.5,2.3-.9,1-3.8,1.7-6.9,1.7-3.8,0-6.1.7-7.7,2.4a8.141,8.141,0,0,1-4.8,2.4c-3.6,0-7.4,2.2-7.4,4.3,0,1.3-1.5,1.8-5.6,1.8-5.9,0-8.8,1.9-10.4,7-.7,2.1-1.8,2.7-5,2.6A31.054,31.054,0,0,1,288.3,134.9Z"/><path class="a" d="M146.7,104.5c-8.5-5.9-9.2-7-8.6-14.5.4-4.9,1-7,2.3-7s1.8-1.6,1.8-5.4c0-4.1-.6-5.7-2.5-6.7-2.1-1.1-2.4-2.1-1.8-6.6.6-4.4.3-5.7-2-7.5-3.5-2.8-3.4-3.8.5-5.5,3.2-1.4,3.2-1.6,2.4-11.2-.4-5.4-1.6-10.9-2.5-12.4-1.6-2.4-1.4-2.7,2.4-4.1,9.7-3.5,13.6-5.5,13.7-6.8,0-.8,2.8-1.7,6.1-2.1,12.1-1.3,3.2-1.6,8-4.6,4.7-2.9,23.5-4.5,39.2-3.6,15,.8,26.9,15.2,26.2,17.3-.4,1.1.1,5.7-3.3,3.7s-14.7-15.6-16.8-14.2c-3.8,2.6,6.6,11.6,6.6,14.1,0,3.6.4,10.8,3.7,13.6,3.9,3.4,7.2,1.1,16,.7,12.9-.5,16.1,2.7,11.2,11.5-2.6,4.8-2.4,9.2.5,11a7.072,7.072,0,0,1,2.9,4.8c.3,2.8,1.2,3.5,5.5,4.3a22.286,22.286,0,0,1,5.6,1.5c1.2,1.2-8.2,9-10.8,9-2,0-2.9,1-3.5,3.5-.5,2.4-2,3.9-4.6,5-2.9,1.1-4.1,2.5-4.7,5.6-.7,3.7-1.1,4-4.2,3.3a19.093,19.093,0,0,1-6.8-3.7c-3.5-3.1-10.3-5.1-17.2-5.2a9.6,9.6,0,0,1-6.3-2.4c-2.9-3-14-3.5-15.2-.6-.4,1-2.1,1.8-3.7,1.8-3.5,0-5,.9-6.9,4.2-1.1,1.9-2.8,2.4-7.7,2.4-5.7,0-6.4.3-8.1,3.7-1.5,2.9-2.7,3.7-5.8,3.7a17.951,17.951,0,0,0-5.8.8C151.4,106.9,148.9,106.1,146.7,104.5Z"/></g></svg>